<?xml version="1.0" encoding="UTF-8"?>
<svg id="Layer_1" data-name="Layer 1" xmlns="http://www.w3.org/2000/svg" viewBox="0 0 1311.98 842.85">
  <defs>
    <style>
      .cls-1 {
        fill: #f2f3f4;
        opacity: .95;
        stroke-width: 0px;
      }

      .cls-2 {
        opacity: .45;
      }
    </style>
  </defs>
  <g class="cls-2">
    <path class="cls-1" d="M7.82,45.66h11.04v-28.08h-8.58v-3.24c4.5-.6,7.38-1.5,9.84-2.82h3.72v34.14h9.96v4.14H7.82v-4.14Z"/>
    <path class="cls-1" d="M56.3,30.54c0-12.84,5.22-19.74,13.74-19.74s13.74,6.9,13.74,19.74-5.22,19.98-13.74,19.98-13.74-7.26-13.74-19.98ZM79.16,30.54c0-10.98-3.78-15.72-9.12-15.72s-9.12,4.74-9.12,15.72,3.78,15.96,9.12,15.96,9.12-4.98,9.12-15.96ZM66.32,30.12c0-2.46,1.74-3.96,3.72-3.96s3.72,1.5,3.72,3.96-1.74,4.02-3.72,4.02-3.72-1.5-3.72-4.02Z"/>
    <path class="cls-1" d="M106.34,30.54c0-12.84,5.22-19.74,13.74-19.74s13.74,6.9,13.74,19.74-5.22,19.98-13.74,19.98-13.74-7.26-13.74-19.98ZM129.2,30.54c0-10.98-3.78-15.72-9.12-15.72s-9.12,4.74-9.12,15.72,3.78,15.96,9.12,15.96,9.12-4.98,9.12-15.96ZM116.36,30.12c0-2.46,1.74-3.96,3.72-3.96s3.72,1.5,3.72,3.96-1.74,4.02-3.72,4.02-3.72-1.5-3.72-4.02Z"/>
    <path class="cls-1" d="M157.94,45.66h11.04v-28.08h-8.58v-3.24c4.5-.6,7.38-1.5,9.84-2.82h3.72v34.14h9.96v4.14h-25.98v-4.14Z"/>
    <path class="cls-1" d="M206.42,30.54c0-12.84,5.22-19.74,13.74-19.74s13.74,6.9,13.74,19.74-5.22,19.98-13.74,19.98-13.74-7.26-13.74-19.98ZM229.28,30.54c0-10.98-3.78-15.72-9.12-15.72s-9.12,4.74-9.12,15.72,3.78,15.96,9.12,15.96,9.12-4.98,9.12-15.96ZM216.44,30.12c0-2.46,1.74-3.96,3.72-3.96s3.72,1.5,3.72,3.96-1.74,4.02-3.72,4.02-3.72-1.5-3.72-4.02Z"/>
    <path class="cls-1" d="M258.02,45.66h11.04v-28.08h-8.58v-3.24c4.5-.6,7.38-1.5,9.84-2.82h3.72v34.14h9.96v4.14h-25.98v-4.14Z"/>
    <path class="cls-1" d="M306.5,30.54c0-12.84,5.22-19.74,13.74-19.74s13.74,6.9,13.74,19.74-5.22,19.98-13.74,19.98-13.74-7.26-13.74-19.98ZM329.35,30.54c0-10.98-3.78-15.72-9.12-15.72s-9.12,4.74-9.12,15.72,3.78,15.96,9.12,15.96,9.12-4.98,9.12-15.96ZM316.52,30.12c0-2.46,1.74-3.96,3.72-3.96s3.72,1.5,3.72,3.96-1.74,4.02-3.72,4.02-3.72-1.5-3.72-4.02Z"/>
    <path class="cls-1" d="M358.09,45.66h11.04v-28.08h-8.58v-3.24c4.5-.6,7.38-1.5,9.84-2.82h3.72v34.14h9.96v4.14h-25.98v-4.14Z"/>
    <path class="cls-1" d="M406.57,30.54c0-12.84,5.22-19.74,13.74-19.74s13.74,6.9,13.74,19.74-5.22,19.98-13.74,19.98-13.74-7.26-13.74-19.98ZM429.43,30.54c0-10.98-3.78-15.72-9.12-15.72s-9.12,4.74-9.12,15.72,3.78,15.96,9.12,15.96,9.12-4.98,9.12-15.96ZM416.59,30.12c0-2.46,1.74-3.96,3.72-3.96s3.72,1.5,3.72,3.96-1.74,4.02-3.72,4.02-3.72-1.5-3.72-4.02Z"/>
    <path class="cls-1" d="M458.17,45.66h11.04v-28.08h-8.58v-3.24c4.5-.6,7.38-1.5,9.84-2.82h3.72v34.14h9.96v4.14h-25.98v-4.14Z"/>
    <path class="cls-1" d="M508.21,45.66h11.04v-28.08h-8.58v-3.24c4.5-.6,7.38-1.5,9.84-2.82h3.72v34.14h9.96v4.14h-25.98v-4.14Z"/>
    <path class="cls-1" d="M558.25,45.66h11.04v-28.08h-8.58v-3.24c4.5-.6,7.38-1.5,9.84-2.82h3.72v34.14h9.96v4.14h-25.98v-4.14Z"/>
    <path class="cls-1" d="M606.73,30.54c0-12.84,5.22-19.74,13.74-19.74s13.74,6.9,13.74,19.74-5.22,19.98-13.74,19.98-13.74-7.26-13.74-19.98ZM629.59,30.54c0-10.98-3.78-15.72-9.12-15.72s-9.12,4.74-9.12,15.72,3.78,15.96,9.12,15.96,9.12-4.98,9.12-15.96ZM616.75,30.12c0-2.46,1.74-3.96,3.72-3.96s3.72,1.5,3.72,3.96-1.74,4.02-3.72,4.02-3.72-1.5-3.72-4.02Z"/>
    <path class="cls-1" d="M658.33,45.66h11.04v-28.08h-8.58v-3.24c4.5-.6,7.38-1.5,9.84-2.82h3.72v34.14h9.96v4.14h-25.98v-4.14Z"/>
    <path class="cls-1" d="M706.8,30.54c0-12.84,5.22-19.74,13.74-19.74s13.74,6.9,13.74,19.74-5.22,19.98-13.74,19.98-13.74-7.26-13.74-19.98ZM729.66,30.54c0-10.98-3.78-15.72-9.12-15.72s-9.12,4.74-9.12,15.72,3.78,15.96,9.12,15.96,9.12-4.98,9.12-15.96ZM716.82,30.12c0-2.46,1.74-3.96,3.72-3.96s3.72,1.5,3.72,3.96-1.74,4.02-3.72,4.02-3.72-1.5-3.72-4.02Z"/>
    <path class="cls-1" d="M756.84,30.54c0-12.84,5.22-19.74,13.74-19.74s13.74,6.9,13.74,19.74-5.22,19.98-13.74,19.98-13.74-7.26-13.74-19.98ZM779.7,30.54c0-10.98-3.78-15.72-9.12-15.72s-9.12,4.74-9.12,15.72,3.78,15.96,9.12,15.96,9.12-4.98,9.12-15.96ZM766.86,30.12c0-2.46,1.74-3.96,3.72-3.96s3.72,1.5,3.72,3.96-1.74,4.02-3.72,4.02-3.72-1.5-3.72-4.02Z"/>
    <path class="cls-1" d="M808.44,45.66h11.04v-28.08h-8.58v-3.24c4.5-.6,7.38-1.5,9.84-2.82h3.72v34.14h9.96v4.14h-25.98v-4.14Z"/>
    <path class="cls-1" d="M856.92,30.54c0-12.84,5.22-19.74,13.74-19.74s13.74,6.9,13.74,19.74-5.22,19.98-13.74,19.98-13.74-7.26-13.74-19.98ZM879.78,30.54c0-10.98-3.78-15.72-9.12-15.72s-9.12,4.74-9.12,15.72,3.78,15.96,9.12,15.96,9.12-4.98,9.12-15.96ZM866.94,30.12c0-2.46,1.74-3.96,3.72-3.96s3.72,1.5,3.72,3.96-1.74,4.02-3.72,4.02-3.72-1.5-3.72-4.02Z"/>
    <path class="cls-1" d="M908.51,45.66h11.04v-28.08h-8.58v-3.24c4.5-.6,7.38-1.5,9.84-2.82h3.72v34.14h9.96v4.14h-25.98v-4.14Z"/>
    <path class="cls-1" d="M956.99,30.54c0-12.84,5.22-19.74,13.74-19.74s13.74,6.9,13.74,19.74-5.22,19.98-13.74,19.98-13.74-7.26-13.74-19.98ZM979.85,30.54c0-10.98-3.78-15.72-9.12-15.72s-9.12,4.74-9.12,15.72,3.78,15.96,9.12,15.96,9.12-4.98,9.12-15.96ZM967.01,30.12c0-2.46,1.74-3.96,3.72-3.96s3.72,1.5,3.72,3.96-1.74,4.02-3.72,4.02-3.72-1.5-3.72-4.02Z"/>
    <path class="cls-1" d="M1007.03,30.54c0-12.84,5.22-19.74,13.74-19.74s13.74,6.9,13.74,19.74-5.22,19.98-13.74,19.98-13.74-7.26-13.74-19.98ZM1029.89,30.54c0-10.98-3.78-15.72-9.12-15.72s-9.12,4.74-9.12,15.72,3.78,15.96,9.12,15.96,9.12-4.98,9.12-15.96ZM1017.05,30.12c0-2.46,1.74-3.96,3.72-3.96s3.72,1.5,3.72,3.96-1.74,4.02-3.72,4.02-3.72-1.5-3.72-4.02Z"/>
    <path class="cls-1" d="M1058.63,45.66h11.04v-28.08h-8.58v-3.24c4.5-.6,7.38-1.5,9.84-2.82h3.72v34.14h9.96v4.14h-25.98v-4.14Z"/>
    <path class="cls-1" d="M1108.67,45.66h11.04v-28.08h-8.58v-3.24c4.5-.6,7.38-1.5,9.84-2.82h3.72v34.14h9.96v4.14h-25.98v-4.14Z"/>
    <path class="cls-1" d="M1157.15,30.54c0-12.84,5.22-19.74,13.74-19.74s13.74,6.9,13.74,19.74-5.22,19.98-13.74,19.98-13.74-7.26-13.74-19.98ZM1180,30.54c0-10.98-3.78-15.72-9.12-15.72s-9.12,4.74-9.12,15.72,3.78,15.96,9.12,15.96,9.12-4.98,9.12-15.96ZM1167.17,30.12c0-2.46,1.74-3.96,3.72-3.96s3.72,1.5,3.72,3.96-1.74,4.02-3.72,4.02-3.72-1.5-3.72-4.02Z"/>
    <path class="cls-1" d="M1208.74,45.66h11.04v-28.08h-8.58v-3.24c4.5-.6,7.38-1.5,9.84-2.82h3.72v34.14h9.96v4.14h-25.98v-4.14Z"/>
    <path class="cls-1" d="M1257.22,30.54c0-12.84,5.22-19.74,13.74-19.74s13.74,6.9,13.74,19.74-5.22,19.98-13.74,19.98-13.74-7.26-13.74-19.98ZM1280.08,30.54c0-10.98-3.78-15.72-9.12-15.72s-9.12,4.74-9.12,15.72,3.78,15.96,9.12,15.96,9.12-4.98,9.12-15.96ZM1267.24,30.12c0-2.46,1.74-3.96,3.72-3.96s3.72,1.5,3.72,3.96-1.74,4.02-3.72,4.02-3.72-1.5-3.72-4.02Z"/>
  </g>
  <g class="cls-2">
    <path class="cls-1" d="M5.82,105.2h11.04v-28.08h-8.58v-3.24c4.5-.6,7.38-1.5,9.84-2.82h3.72v34.14h9.96v4.14H5.82v-4.14Z"/>
    <path class="cls-1" d="M54.3,90.08c0-12.84,5.22-19.74,13.74-19.74s13.74,6.9,13.74,19.74-5.22,19.98-13.74,19.98-13.74-7.26-13.74-19.98ZM77.16,90.08c0-10.98-3.78-15.72-9.12-15.72s-9.12,4.74-9.12,15.72,3.78,15.96,9.12,15.96,9.12-4.98,9.12-15.96ZM64.32,89.66c0-2.46,1.74-3.96,3.72-3.96s3.72,1.5,3.72,3.96-1.74,4.02-3.72,4.02-3.72-1.5-3.72-4.02Z"/>
    <path class="cls-1" d="M105.9,105.2h11.04v-28.08h-8.58v-3.24c4.5-.6,7.38-1.5,9.84-2.82h3.72v34.14h9.96v4.14h-25.98v-4.14Z"/>
    <path class="cls-1" d="M155.94,105.2h11.04v-28.08h-8.58v-3.24c4.5-.6,7.38-1.5,9.84-2.82h3.72v34.14h9.96v4.14h-25.98v-4.14Z"/>
    <path class="cls-1" d="M204.42,90.08c0-12.84,5.22-19.74,13.74-19.74s13.74,6.9,13.74,19.74-5.22,19.98-13.74,19.98-13.74-7.26-13.74-19.98ZM227.28,90.08c0-10.98-3.78-15.72-9.12-15.72s-9.12,4.74-9.12,15.72,3.78,15.96,9.12,15.96,9.12-4.98,9.12-15.96ZM214.44,89.66c0-2.46,1.74-3.96,3.72-3.96s3.72,1.5,3.72,3.96-1.74,4.02-3.72,4.02-3.72-1.5-3.72-4.02Z"/>
    <path class="cls-1" d="M254.46,90.08c0-12.84,5.22-19.74,13.74-19.74s13.74,6.9,13.74,19.74-5.22,19.98-13.74,19.98-13.74-7.26-13.74-19.98ZM277.31,90.08c0-10.98-3.78-15.72-9.12-15.72s-9.12,4.74-9.12,15.72,3.78,15.96,9.12,15.96,9.12-4.98,9.12-15.96ZM264.47,89.66c0-2.46,1.74-3.96,3.72-3.96s3.72,1.5,3.72,3.96-1.74,4.02-3.72,4.02-3.72-1.5-3.72-4.02Z"/>
    <path class="cls-1" d="M304.49,90.08c0-12.84,5.22-19.74,13.74-19.74s13.74,6.9,13.74,19.74-5.22,19.98-13.74,19.98-13.74-7.26-13.74-19.98ZM327.35,90.08c0-10.98-3.78-15.72-9.12-15.72s-9.12,4.74-9.12,15.72,3.78,15.96,9.12,15.96,9.12-4.98,9.12-15.96ZM314.51,89.66c0-2.46,1.74-3.96,3.72-3.96s3.72,1.5,3.72,3.96-1.74,4.02-3.72,4.02-3.72-1.5-3.72-4.02Z"/>
    <path class="cls-1" d="M354.53,90.08c0-12.84,5.22-19.74,13.74-19.74s13.74,6.9,13.74,19.74-5.22,19.98-13.74,19.98-13.74-7.26-13.74-19.98ZM377.39,90.08c0-10.98-3.78-15.72-9.12-15.72s-9.12,4.74-9.12,15.72,3.78,15.96,9.12,15.96,9.12-4.98,9.12-15.96ZM364.55,89.66c0-2.46,1.74-3.96,3.72-3.96s3.72,1.5,3.72,3.96-1.74,4.02-3.72,4.02-3.72-1.5-3.72-4.02Z"/>
    <path class="cls-1" d="M404.57,90.08c0-12.84,5.22-19.74,13.74-19.74s13.74,6.9,13.74,19.74-5.22,19.98-13.74,19.98-13.74-7.26-13.74-19.98ZM427.43,90.08c0-10.98-3.78-15.72-9.12-15.72s-9.12,4.74-9.12,15.72,3.78,15.96,9.12,15.96,9.12-4.98,9.12-15.96ZM414.59,89.66c0-2.46,1.74-3.96,3.72-3.96s3.72,1.5,3.72,3.96-1.74,4.02-3.72,4.02-3.72-1.5-3.72-4.02Z"/>
    <path class="cls-1" d="M456.17,105.2h11.04v-28.08h-8.58v-3.24c4.5-.6,7.38-1.5,9.84-2.82h3.72v34.14h9.96v4.14h-25.98v-4.14Z"/>
    <path class="cls-1" d="M506.21,105.2h11.04v-28.08h-8.58v-3.24c4.5-.6,7.38-1.5,9.84-2.82h3.72v34.14h9.96v4.14h-25.98v-4.14Z"/>
    <path class="cls-1" d="M554.69,90.08c0-12.84,5.22-19.74,13.74-19.74s13.74,6.9,13.74,19.74-5.22,19.98-13.74,19.98-13.74-7.26-13.74-19.98ZM577.55,90.08c0-10.98-3.78-15.72-9.12-15.72s-9.12,4.74-9.12,15.72,3.78,15.96,9.12,15.96,9.12-4.98,9.12-15.96ZM564.71,89.66c0-2.46,1.74-3.96,3.72-3.96s3.72,1.5,3.72,3.96-1.74,4.02-3.72,4.02-3.72-1.5-3.72-4.02Z"/>
    <path class="cls-1" d="M606.29,105.2h11.04v-28.08h-8.58v-3.24c4.5-.6,7.38-1.5,9.84-2.82h3.72v34.14h9.96v4.14h-25.98v-4.14Z"/>
    <path class="cls-1" d="M654.76,90.08c0-12.84,5.22-19.74,13.74-19.74s13.74,6.9,13.74,19.74-5.22,19.98-13.74,19.98-13.74-7.26-13.74-19.98ZM677.62,90.08c0-10.98-3.78-15.72-9.12-15.72s-9.12,4.74-9.12,15.72,3.78,15.96,9.12,15.96,9.12-4.98,9.12-15.96ZM664.78,89.66c0-2.46,1.74-3.96,3.72-3.96s3.72,1.5,3.72,3.96-1.74,4.02-3.72,4.02-3.72-1.5-3.72-4.02Z"/>
    <path class="cls-1" d="M706.36,105.2h11.04v-28.08h-8.58v-3.24c4.5-.6,7.38-1.5,9.84-2.82h3.72v34.14h9.96v4.14h-25.98v-4.14Z"/>
    <path class="cls-1" d="M754.84,90.08c0-12.84,5.22-19.74,13.74-19.74s13.74,6.9,13.74,19.74-5.22,19.98-13.74,19.98-13.74-7.26-13.74-19.98ZM777.7,90.08c0-10.98-3.78-15.72-9.12-15.72s-9.12,4.74-9.12,15.72,3.78,15.96,9.12,15.96,9.12-4.98,9.12-15.96ZM764.86,89.66c0-2.46,1.74-3.96,3.72-3.96s3.72,1.5,3.72,3.96-1.74,4.02-3.72,4.02-3.72-1.5-3.72-4.02Z"/>
    <path class="cls-1" d="M804.88,90.08c0-12.84,5.22-19.74,13.74-19.74s13.74,6.9,13.74,19.74-5.22,19.98-13.74,19.98-13.74-7.26-13.74-19.98ZM827.74,90.08c0-10.98-3.78-15.72-9.12-15.72s-9.12,4.74-9.12,15.72,3.78,15.96,9.12,15.96,9.12-4.98,9.12-15.96ZM814.9,89.66c0-2.46,1.74-3.96,3.72-3.96s3.72,1.5,3.72,3.96-1.74,4.02-3.72,4.02-3.72-1.5-3.72-4.02Z"/>
    <path class="cls-1" d="M856.47,105.2h11.04v-28.08h-8.58v-3.24c4.5-.6,7.38-1.5,9.84-2.82h3.72v34.14h9.96v4.14h-25.98v-4.14Z"/>
    <path class="cls-1" d="M904.95,90.08c0-12.84,5.22-19.74,13.74-19.74s13.74,6.9,13.74,19.74-5.22,19.98-13.74,19.98-13.74-7.26-13.74-19.98ZM927.81,90.08c0-10.98-3.78-15.72-9.12-15.72s-9.12,4.74-9.12,15.72,3.78,15.96,9.12,15.96,9.12-4.98,9.12-15.96ZM914.97,89.66c0-2.46,1.74-3.96,3.72-3.96s3.72,1.5,3.72,3.96-1.74,4.02-3.72,4.02-3.72-1.5-3.72-4.02Z"/>
    <path class="cls-1" d="M956.55,105.2h11.04v-28.08h-8.58v-3.24c4.5-.6,7.38-1.5,9.84-2.82h3.72v34.14h9.96v4.14h-25.98v-4.14Z"/>
    <path class="cls-1" d="M1006.59,105.2h11.04v-28.08h-8.58v-3.24c4.5-.6,7.38-1.5,9.84-2.82h3.72v34.14h9.96v4.14h-25.98v-4.14Z"/>
    <path class="cls-1" d="M1055.07,90.08c0-12.84,5.22-19.74,13.74-19.74s13.74,6.9,13.74,19.74-5.22,19.98-13.74,19.98-13.74-7.26-13.74-19.98ZM1077.93,90.08c0-10.98-3.78-15.72-9.12-15.72s-9.12,4.74-9.12,15.72,3.78,15.96,9.12,15.96,9.12-4.98,9.12-15.96ZM1065.09,89.66c0-2.46,1.74-3.96,3.72-3.96s3.72,1.5,3.72,3.96-1.74,4.02-3.72,4.02-3.72-1.5-3.72-4.02Z"/>
    <path class="cls-1" d="M1106.67,105.2h11.04v-28.08h-8.58v-3.24c4.5-.6,7.38-1.5,9.84-2.82h3.72v34.14h9.96v4.14h-25.98v-4.14Z"/>
    <path class="cls-1" d="M1156.7,105.2h11.04v-28.08h-8.58v-3.24c4.5-.6,7.38-1.5,9.84-2.82h3.72v34.14h9.96v4.14h-25.98v-4.14Z"/>
    <path class="cls-1" d="M1205.18,90.08c0-12.84,5.22-19.74,13.74-19.74s13.74,6.9,13.74,19.74-5.22,19.98-13.74,19.98-13.74-7.26-13.74-19.98ZM1228.04,90.08c0-10.98-3.78-15.72-9.12-15.72s-9.12,4.74-9.12,15.72,3.78,15.96,9.12,15.96,9.12-4.98,9.12-15.96ZM1215.2,89.66c0-2.46,1.74-3.96,3.72-3.96s3.72,1.5,3.72,3.96-1.74,4.02-3.72,4.02-3.72-1.5-3.72-4.02Z"/>
    <path class="cls-1" d="M1255.22,90.08c0-12.84,5.22-19.74,13.74-19.74s13.74,6.9,13.74,19.74-5.22,19.98-13.74,19.98-13.74-7.26-13.74-19.98ZM1278.08,90.08c0-10.98-3.78-15.72-9.12-15.72s-9.12,4.74-9.12,15.72,3.78,15.96,9.12,15.96,9.12-4.98,9.12-15.96ZM1265.24,89.66c0-2.46,1.74-3.96,3.72-3.96s3.72,1.5,3.72,3.96-1.74,4.02-3.72,4.02-3.72-1.5-3.72-4.02Z"/>
  </g>
  <g class="cls-2">
    <path class="cls-1" d="M10.26,149.63c0-12.84,5.22-19.74,13.74-19.74s13.74,6.9,13.74,19.74-5.22,19.98-13.74,19.98-13.74-7.26-13.74-19.98ZM33.12,149.63c0-10.98-3.78-15.72-9.12-15.72s-9.12,4.74-9.12,15.72,3.78,15.96,9.12,15.96,9.12-4.98,9.12-15.96ZM20.28,149.21c0-2.46,1.74-3.96,3.72-3.96s3.72,1.5,3.72,3.96-1.74,4.02-3.72,4.02-3.72-1.5-3.72-4.02Z"/>
    <path class="cls-1" d="M60.3,149.63c0-12.84,5.22-19.74,13.74-19.74s13.74,6.9,13.74,19.74-5.22,19.98-13.74,19.98-13.74-7.26-13.74-19.98ZM83.16,149.63c0-10.98-3.78-15.72-9.12-15.72s-9.12,4.74-9.12,15.72,3.78,15.96,9.12,15.96,9.12-4.98,9.12-15.96ZM70.32,149.21c0-2.46,1.74-3.96,3.72-3.96s3.72,1.5,3.72,3.96-1.74,4.02-3.72,4.02-3.72-1.5-3.72-4.02Z"/>
    <path class="cls-1" d="M110.34,149.63c0-12.84,5.22-19.74,13.74-19.74s13.74,6.9,13.74,19.74-5.22,19.98-13.74,19.98-13.74-7.26-13.74-19.98ZM133.2,149.63c0-10.98-3.78-15.72-9.12-15.72s-9.12,4.74-9.12,15.72,3.78,15.96,9.12,15.96,9.12-4.98,9.12-15.96ZM120.36,149.21c0-2.46,1.74-3.96,3.72-3.96s3.72,1.5,3.72,3.96-1.74,4.02-3.72,4.02-3.72-1.5-3.72-4.02Z"/>
    <path class="cls-1" d="M160.38,149.63c0-12.84,5.22-19.74,13.74-19.74s13.74,6.9,13.74,19.74-5.22,19.98-13.74,19.98-13.74-7.26-13.74-19.98ZM183.24,149.63c0-10.98-3.78-15.72-9.12-15.72s-9.12,4.74-9.12,15.72,3.78,15.96,9.12,15.96,9.12-4.98,9.12-15.96ZM170.4,149.21c0-2.46,1.74-3.96,3.72-3.96s3.72,1.5,3.72,3.96-1.74,4.02-3.72,4.02-3.72-1.5-3.72-4.02Z"/>
    <path class="cls-1" d="M211.98,164.75h11.04v-28.08h-8.58v-3.24c4.5-.6,7.38-1.5,9.84-2.82h3.72v34.14h9.96v4.14h-25.98v-4.14Z"/>
    <path class="cls-1" d="M262.02,164.75h11.04v-28.08h-8.58v-3.24c4.5-.6,7.38-1.5,9.84-2.82h3.72v34.14h9.96v4.14h-25.98v-4.14Z"/>
    <path class="cls-1" d="M312.06,164.75h11.04v-28.08h-8.58v-3.24c4.5-.6,7.38-1.5,9.84-2.82h3.72v34.14h9.96v4.14h-25.98v-4.14Z"/>
    <path class="cls-1" d="M360.54,149.63c0-12.84,5.22-19.74,13.74-19.74s13.74,6.9,13.74,19.74-5.22,19.98-13.74,19.98-13.74-7.26-13.74-19.98ZM383.4,149.63c0-10.98-3.78-15.72-9.12-15.72s-9.12,4.74-9.12,15.72,3.78,15.96,9.12,15.96,9.12-4.98,9.12-15.96ZM370.56,149.21c0-2.46,1.74-3.96,3.72-3.96s3.72,1.5,3.72,3.96-1.74,4.02-3.72,4.02-3.72-1.5-3.72-4.02Z"/>
    <path class="cls-1" d="M412.14,164.75h11.04v-28.08h-8.58v-3.24c4.5-.6,7.38-1.5,9.84-2.82h3.72v34.14h9.96v4.14h-25.98v-4.14Z"/>
    <path class="cls-1" d="M460.62,149.63c0-12.84,5.22-19.74,13.74-19.74s13.74,6.9,13.74,19.74-5.22,19.98-13.74,19.98-13.74-7.26-13.74-19.98ZM483.47,149.63c0-10.98-3.78-15.72-9.12-15.72s-9.12,4.74-9.12,15.72,3.78,15.96,9.12,15.96,9.12-4.98,9.12-15.96ZM470.64,149.21c0-2.46,1.74-3.96,3.72-3.96s3.72,1.5,3.72,3.96-1.74,4.02-3.72,4.02-3.72-1.5-3.72-4.02Z"/>
    <path class="cls-1" d="M512.21,164.75h11.04v-28.08h-8.58v-3.24c4.5-.6,7.38-1.5,9.84-2.82h3.72v34.14h9.96v4.14h-25.98v-4.14Z"/>
    <path class="cls-1" d="M560.69,149.63c0-12.84,5.22-19.74,13.74-19.74s13.74,6.9,13.74,19.74-5.22,19.98-13.74,19.98-13.74-7.26-13.74-19.98ZM583.55,149.63c0-10.98-3.78-15.72-9.12-15.72s-9.12,4.74-9.12,15.72,3.78,15.96,9.12,15.96,9.12-4.98,9.12-15.96ZM570.71,149.21c0-2.46,1.74-3.96,3.72-3.96s3.72,1.5,3.72,3.96-1.74,4.02-3.72,4.02-3.72-1.5-3.72-4.02Z"/>
    <path class="cls-1" d="M612.29,164.75h11.04v-28.08h-8.58v-3.24c4.5-.6,7.38-1.5,9.84-2.82h3.72v34.14h9.96v4.14h-25.98v-4.14Z"/>
    <path class="cls-1" d="M660.77,149.63c0-12.84,5.22-19.74,13.74-19.74s13.74,6.9,13.74,19.74-5.22,19.98-13.74,19.98-13.74-7.26-13.74-19.98ZM683.63,149.63c0-10.98-3.78-15.72-9.12-15.72s-9.12,4.74-9.12,15.72,3.78,15.96,9.12,15.96,9.12-4.98,9.12-15.96ZM670.79,149.21c0-2.46,1.74-3.96,3.72-3.96s3.72,1.5,3.72,3.96-1.74,4.02-3.72,4.02-3.72-1.5-3.72-4.02Z"/>
    <path class="cls-1" d="M712.37,164.75h11.04v-28.08h-8.58v-3.24c4.5-.6,7.38-1.5,9.84-2.82h3.72v34.14h9.96v4.14h-25.98v-4.14Z"/>
    <path class="cls-1" d="M760.84,149.63c0-12.84,5.22-19.74,13.74-19.74s13.74,6.9,13.74,19.74-5.22,19.98-13.74,19.98-13.74-7.26-13.74-19.98ZM783.7,149.63c0-10.98-3.78-15.72-9.12-15.72s-9.12,4.74-9.12,15.72,3.78,15.96,9.12,15.96,9.12-4.98,9.12-15.96ZM770.86,149.21c0-2.46,1.74-3.96,3.72-3.96s3.72,1.5,3.72,3.96-1.74,4.02-3.72,4.02-3.72-1.5-3.72-4.02Z"/>
    <path class="cls-1" d="M812.44,164.75h11.04v-28.08h-8.58v-3.24c4.5-.6,7.38-1.5,9.84-2.82h3.72v34.14h9.96v4.14h-25.98v-4.14Z"/>
    <path class="cls-1" d="M860.92,149.63c0-12.84,5.22-19.74,13.74-19.74s13.74,6.9,13.74,19.74-5.22,19.98-13.74,19.98-13.74-7.26-13.74-19.98ZM883.78,149.63c0-10.98-3.78-15.72-9.12-15.72s-9.12,4.74-9.12,15.72,3.78,15.96,9.12,15.96,9.12-4.98,9.12-15.96ZM870.94,149.21c0-2.46,1.74-3.96,3.72-3.96s3.72,1.5,3.72,3.96-1.74,4.02-3.72,4.02-3.72-1.5-3.72-4.02Z"/>
    <path class="cls-1" d="M910.96,149.63c0-12.84,5.22-19.74,13.74-19.74s13.74,6.9,13.74,19.74-5.22,19.98-13.74,19.98-13.74-7.26-13.74-19.98ZM933.82,149.63c0-10.98-3.78-15.72-9.12-15.72s-9.12,4.74-9.12,15.72,3.78,15.96,9.12,15.96,9.12-4.98,9.12-15.96ZM920.98,149.21c0-2.46,1.74-3.96,3.72-3.96s3.72,1.5,3.72,3.96-1.74,4.02-3.72,4.02-3.72-1.5-3.72-4.02Z"/>
    <path class="cls-1" d="M962.56,164.75h11.04v-28.08h-8.58v-3.24c4.5-.6,7.38-1.5,9.84-2.82h3.72v34.14h9.96v4.14h-25.98v-4.14Z"/>
    <path class="cls-1" d="M1011.03,149.63c0-12.84,5.22-19.74,13.74-19.74s13.74,6.9,13.74,19.74-5.22,19.98-13.74,19.98-13.74-7.26-13.74-19.98ZM1033.89,149.63c0-10.98-3.78-15.72-9.12-15.72s-9.12,4.74-9.12,15.72,3.78,15.96,9.12,15.96,9.12-4.98,9.12-15.96ZM1021.05,149.21c0-2.46,1.74-3.96,3.72-3.96s3.72,1.5,3.72,3.96-1.74,4.02-3.72,4.02-3.72-1.5-3.72-4.02Z"/>
    <path class="cls-1" d="M1061.07,149.63c0-12.84,5.22-19.74,13.74-19.74s13.74,6.9,13.74,19.74-5.22,19.98-13.74,19.98-13.74-7.26-13.74-19.98ZM1083.93,149.63c0-10.98-3.78-15.72-9.12-15.72s-9.12,4.74-9.12,15.72,3.78,15.96,9.12,15.96,9.12-4.98,9.12-15.96ZM1071.09,149.21c0-2.46,1.74-3.96,3.72-3.96s3.72,1.5,3.72,3.96-1.74,4.02-3.72,4.02-3.72-1.5-3.72-4.02Z"/>
    <path class="cls-1" d="M1112.67,164.75h11.04v-28.08h-8.58v-3.24c4.5-.6,7.38-1.5,9.84-2.82h3.72v34.14h9.96v4.14h-25.98v-4.14Z"/>
    <path class="cls-1" d="M1161.15,149.63c0-12.84,5.22-19.74,13.74-19.74s13.74,6.9,13.74,19.74-5.22,19.98-13.74,19.98-13.74-7.26-13.74-19.98ZM1184.01,149.63c0-10.98-3.78-15.72-9.12-15.72s-9.12,4.74-9.12,15.72,3.78,15.96,9.12,15.96,9.12-4.98,9.12-15.96ZM1171.17,149.21c0-2.46,1.74-3.96,3.72-3.96s3.72,1.5,3.72,3.96-1.74,4.02-3.72,4.02-3.72-1.5-3.72-4.02Z"/>
    <path class="cls-1" d="M1211.19,149.63c0-12.84,5.22-19.74,13.74-19.74s13.74,6.9,13.74,19.74-5.22,19.98-13.74,19.98-13.74-7.26-13.74-19.98ZM1234.05,149.63c0-10.98-3.78-15.72-9.12-15.72s-9.12,4.74-9.12,15.72,3.78,15.96,9.12,15.96,9.12-4.98,9.12-15.96ZM1221.21,149.21c0-2.46,1.74-3.96,3.72-3.96s3.72,1.5,3.72,3.96-1.74,4.02-3.72,4.02-3.72-1.5-3.72-4.02Z"/>
    <path class="cls-1" d="M1262.78,164.75h11.04v-28.08h-8.58v-3.24c4.5-.6,7.38-1.5,9.84-2.82h3.72v34.14h9.96v4.14h-25.98v-4.14Z"/>
  </g>
  <g class="cls-2">
    <path class="cls-1" d="M11.49,205.96c0-12.84,5.22-19.74,13.74-19.74s13.74,6.9,13.74,19.74-5.22,19.98-13.74,19.98-13.74-7.26-13.74-19.98ZM34.35,205.96c0-10.98-3.78-15.72-9.12-15.72s-9.12,4.74-9.12,15.72,3.78,15.96,9.12,15.96,9.12-4.98,9.12-15.96ZM21.51,205.54c0-2.46,1.74-3.96,3.72-3.96s3.72,1.5,3.72,3.96-1.74,4.02-3.72,4.02-3.72-1.5-3.72-4.02Z"/>
    <path class="cls-1" d="M63.09,221.08h11.04v-28.08h-8.58v-3.24c4.5-.6,7.38-1.5,9.84-2.82h3.72v34.14h9.96v4.14h-25.98v-4.14Z"/>
    <path class="cls-1" d="M111.57,205.96c0-12.84,5.22-19.74,13.74-19.74s13.74,6.9,13.74,19.74-5.22,19.98-13.74,19.98-13.74-7.26-13.74-19.98ZM134.43,205.96c0-10.98-3.78-15.72-9.12-15.72s-9.12,4.74-9.12,15.72,3.78,15.96,9.12,15.96,9.12-4.98,9.12-15.96ZM121.59,205.54c0-2.46,1.74-3.96,3.72-3.96s3.72,1.5,3.72,3.96-1.74,4.02-3.72,4.02-3.72-1.5-3.72-4.02Z"/>
    <path class="cls-1" d="M163.17,221.08h11.04v-28.08h-8.58v-3.24c4.5-.6,7.38-1.5,9.84-2.82h3.72v34.14h9.96v4.14h-25.98v-4.14Z"/>
    <path class="cls-1" d="M211.65,205.96c0-12.84,5.22-19.74,13.74-19.74s13.74,6.9,13.74,19.74-5.22,19.98-13.74,19.98-13.74-7.26-13.74-19.98ZM234.5,205.96c0-10.98-3.78-15.72-9.12-15.72s-9.12,4.74-9.12,15.72,3.78,15.96,9.12,15.96,9.12-4.98,9.12-15.96ZM221.66,205.54c0-2.46,1.74-3.96,3.72-3.96s3.72,1.5,3.72,3.96-1.74,4.02-3.72,4.02-3.72-1.5-3.72-4.02Z"/>
    <path class="cls-1" d="M263.24,221.08h11.04v-28.08h-8.58v-3.24c4.5-.6,7.38-1.5,9.84-2.82h3.72v34.14h9.96v4.14h-25.98v-4.14Z"/>
    <path class="cls-1" d="M311.72,205.96c0-12.84,5.22-19.74,13.74-19.74s13.74,6.9,13.74,19.74-5.22,19.98-13.74,19.98-13.74-7.26-13.74-19.98ZM334.58,205.96c0-10.98-3.78-15.72-9.12-15.72s-9.12,4.74-9.12,15.72,3.78,15.96,9.12,15.96,9.12-4.98,9.12-15.96ZM321.74,205.54c0-2.46,1.74-3.96,3.72-3.96s3.72,1.5,3.72,3.96-1.74,4.02-3.72,4.02-3.72-1.5-3.72-4.02Z"/>
    <path class="cls-1" d="M363.32,221.08h11.04v-28.08h-8.58v-3.24c4.5-.6,7.38-1.5,9.84-2.82h3.72v34.14h9.96v4.14h-25.98v-4.14Z"/>
    <path class="cls-1" d="M411.8,205.96c0-12.84,5.22-19.74,13.74-19.74s13.74,6.9,13.74,19.74-5.22,19.98-13.74,19.98-13.74-7.26-13.74-19.98ZM434.66,205.96c0-10.98-3.78-15.72-9.12-15.72s-9.12,4.74-9.12,15.72,3.78,15.96,9.12,15.96,9.12-4.98,9.12-15.96ZM421.82,205.54c0-2.46,1.74-3.96,3.72-3.96s3.72,1.5,3.72,3.96-1.74,4.02-3.72,4.02-3.72-1.5-3.72-4.02Z"/>
    <path class="cls-1" d="M463.4,221.08h11.04v-28.08h-8.58v-3.24c4.5-.6,7.38-1.5,9.84-2.82h3.72v34.14h9.96v4.14h-25.98v-4.14Z"/>
    <path class="cls-1" d="M511.88,205.96c0-12.84,5.22-19.74,13.74-19.74s13.74,6.9,13.74,19.74-5.22,19.98-13.74,19.98-13.74-7.26-13.74-19.98ZM534.74,205.96c0-10.98-3.78-15.72-9.12-15.72s-9.12,4.74-9.12,15.72,3.78,15.96,9.12,15.96,9.12-4.98,9.12-15.96ZM521.9,205.54c0-2.46,1.74-3.96,3.72-3.96s3.72,1.5,3.72,3.96-1.74,4.02-3.72,4.02-3.72-1.5-3.72-4.02Z"/>
    <path class="cls-1" d="M563.48,221.08h11.04v-28.08h-8.58v-3.24c4.5-.6,7.38-1.5,9.84-2.82h3.72v34.14h9.96v4.14h-25.98v-4.14Z"/>
    <path class="cls-1" d="M613.51,221.08h11.04v-28.08h-8.58v-3.24c4.5-.6,7.38-1.5,9.84-2.82h3.72v34.14h9.96v4.14h-25.98v-4.14Z"/>
    <path class="cls-1" d="M663.55,221.08h11.04v-28.08h-8.58v-3.24c4.5-.6,7.38-1.5,9.84-2.82h3.72v34.14h9.96v4.14h-25.98v-4.14Z"/>
    <path class="cls-1" d="M712.03,205.96c0-12.84,5.22-19.74,13.74-19.74s13.74,6.9,13.74,19.74-5.22,19.98-13.74,19.98-13.74-7.26-13.74-19.98ZM734.89,205.96c0-10.98-3.78-15.72-9.12-15.72s-9.12,4.74-9.12,15.72,3.78,15.96,9.12,15.96,9.12-4.98,9.12-15.96ZM722.05,205.54c0-2.46,1.74-3.96,3.72-3.96s3.72,1.5,3.72,3.96-1.74,4.02-3.72,4.02-3.72-1.5-3.72-4.02Z"/>
    <path class="cls-1" d="M762.07,205.96c0-12.84,5.22-19.74,13.74-19.74s13.74,6.9,13.74,19.74-5.22,19.98-13.74,19.98-13.74-7.26-13.74-19.98ZM784.93,205.96c0-10.98-3.78-15.72-9.12-15.72s-9.12,4.74-9.12,15.72,3.78,15.96,9.12,15.96,9.12-4.98,9.12-15.96ZM772.09,205.54c0-2.46,1.74-3.96,3.72-3.96s3.72,1.5,3.72,3.96-1.74,4.02-3.72,4.02-3.72-1.5-3.72-4.02Z"/>
    <path class="cls-1" d="M813.67,221.08h11.04v-28.08h-8.58v-3.24c4.5-.6,7.38-1.5,9.84-2.82h3.72v34.14h9.96v4.14h-25.98v-4.14Z"/>
    <path class="cls-1" d="M862.14,205.96c0-12.84,5.22-19.74,13.74-19.74s13.74,6.9,13.74,19.74-5.22,19.98-13.74,19.98-13.74-7.26-13.74-19.98ZM885,205.96c0-10.98-3.78-15.72-9.12-15.72s-9.12,4.74-9.12,15.72,3.78,15.96,9.12,15.96,9.12-4.98,9.12-15.96ZM872.16,205.54c0-2.46,1.74-3.96,3.72-3.96s3.72,1.5,3.72,3.96-1.74,4.02-3.72,4.02-3.72-1.5-3.72-4.02Z"/>
    <path class="cls-1" d="M913.74,221.08h11.04v-28.08h-8.58v-3.24c4.5-.6,7.38-1.5,9.84-2.82h3.72v34.14h9.96v4.14h-25.98v-4.14Z"/>
    <path class="cls-1" d="M962.22,205.96c0-12.84,5.22-19.74,13.74-19.74s13.74,6.9,13.74,19.74-5.22,19.98-13.74,19.98-13.74-7.26-13.74-19.98ZM985.08,205.96c0-10.98-3.78-15.72-9.12-15.72s-9.12,4.74-9.12,15.72,3.78,15.96,9.12,15.96,9.12-4.98,9.12-15.96ZM972.24,205.54c0-2.46,1.74-3.96,3.72-3.96s3.72,1.5,3.72,3.96-1.74,4.02-3.72,4.02-3.72-1.5-3.72-4.02Z"/>
    <path class="cls-1" d="M1013.82,221.08h11.04v-28.08h-8.58v-3.24c4.5-.6,7.38-1.5,9.84-2.82h3.72v34.14h9.96v4.14h-25.98v-4.14Z"/>
    <path class="cls-1" d="M1062.3,205.96c0-12.84,5.22-19.74,13.74-19.74s13.74,6.9,13.74,19.74-5.22,19.98-13.74,19.98-13.74-7.26-13.74-19.98ZM1085.16,205.96c0-10.98-3.78-15.72-9.12-15.72s-9.12,4.74-9.12,15.72,3.78,15.96,9.12,15.96,9.12-4.98,9.12-15.96ZM1072.32,205.54c0-2.46,1.74-3.96,3.72-3.96s3.72,1.5,3.72,3.96-1.74,4.02-3.72,4.02-3.72-1.5-3.72-4.02Z"/>
    <path class="cls-1" d="M1113.89,221.08h11.04v-28.08h-8.58v-3.24c4.5-.6,7.38-1.5,9.84-2.82h3.72v34.14h9.96v4.14h-25.98v-4.14Z"/>
    <path class="cls-1" d="M1162.37,205.96c0-12.84,5.22-19.74,13.74-19.74s13.74,6.9,13.74,19.74-5.22,19.98-13.74,19.98-13.74-7.26-13.74-19.98ZM1185.23,205.96c0-10.98-3.78-15.72-9.12-15.72s-9.12,4.74-9.12,15.72,3.78,15.96,9.12,15.96,9.12-4.98,9.12-15.96ZM1172.39,205.54c0-2.46,1.74-3.96,3.72-3.96s3.72,1.5,3.72,3.96-1.74,4.02-3.72,4.02-3.72-1.5-3.72-4.02Z"/>
    <path class="cls-1" d="M1213.97,221.08h11.04v-28.08h-8.58v-3.24c4.5-.6,7.38-1.5,9.84-2.82h3.72v34.14h9.96v4.14h-25.98v-4.14Z"/>
    <path class="cls-1" d="M1264.01,221.08h11.04v-28.08h-8.58v-3.24c4.5-.6,7.38-1.5,9.84-2.82h3.72v34.14h9.96v4.14h-25.98v-4.14Z"/>
  </g>
  <g class="cls-2">
    <path class="cls-1" d="M11.49,262.55c0-12.84,5.22-19.74,13.74-19.74s13.74,6.9,13.74,19.74-5.22,19.98-13.74,19.98-13.74-7.26-13.74-19.98ZM34.35,262.55c0-10.98-3.78-15.72-9.12-15.72s-9.12,4.74-9.12,15.72,3.78,15.96,9.12,15.96,9.12-4.98,9.12-15.96ZM21.51,262.13c0-2.46,1.74-3.96,3.72-3.96s3.72,1.5,3.72,3.96-1.74,4.02-3.72,4.02-3.72-1.5-3.72-4.02Z"/>
    <path class="cls-1" d="M63.09,277.67h11.04v-28.08h-8.58v-3.24c4.5-.6,7.38-1.5,9.84-2.82h3.72v34.14h9.96v4.14h-25.98v-4.14Z"/>
    <path class="cls-1" d="M111.57,262.55c0-12.84,5.22-19.74,13.74-19.74s13.74,6.9,13.74,19.74-5.22,19.98-13.74,19.98-13.74-7.26-13.74-19.98ZM134.43,262.55c0-10.98-3.78-15.72-9.12-15.72s-9.12,4.74-9.12,15.72,3.78,15.96,9.12,15.96,9.12-4.98,9.12-15.96ZM121.59,262.13c0-2.46,1.74-3.96,3.72-3.96s3.72,1.5,3.72,3.96-1.74,4.02-3.72,4.02-3.72-1.5-3.72-4.02Z"/>
    <path class="cls-1" d="M163.17,277.67h11.04v-28.08h-8.58v-3.24c4.5-.6,7.38-1.5,9.84-2.82h3.72v34.14h9.96v4.14h-25.98v-4.14Z"/>
    <path class="cls-1" d="M213.21,277.67h11.04v-28.08h-8.58v-3.24c4.5-.6,7.38-1.5,9.84-2.82h3.72v34.14h9.96v4.14h-25.98v-4.14Z"/>
    <path class="cls-1" d="M261.68,262.55c0-12.84,5.22-19.74,13.74-19.74s13.74,6.9,13.74,19.74-5.22,19.98-13.74,19.98-13.74-7.26-13.74-19.98ZM284.54,262.55c0-10.98-3.78-15.72-9.12-15.72s-9.12,4.74-9.12,15.72,3.78,15.96,9.12,15.96,9.12-4.98,9.12-15.96ZM271.7,262.13c0-2.46,1.74-3.96,3.72-3.96s3.72,1.5,3.72,3.96-1.74,4.02-3.72,4.02-3.72-1.5-3.72-4.02Z"/>
    <path class="cls-1" d="M313.28,277.67h11.04v-28.08h-8.58v-3.24c4.5-.6,7.38-1.5,9.84-2.82h3.72v34.14h9.96v4.14h-25.98v-4.14Z"/>
    <path class="cls-1" d="M361.76,262.55c0-12.84,5.22-19.74,13.74-19.74s13.74,6.9,13.74,19.74-5.22,19.98-13.74,19.98-13.74-7.26-13.74-19.98ZM384.62,262.55c0-10.98-3.78-15.72-9.12-15.72s-9.12,4.74-9.12,15.72,3.78,15.96,9.12,15.96,9.12-4.98,9.12-15.96ZM371.78,262.13c0-2.46,1.74-3.96,3.72-3.96s3.72,1.5,3.72,3.96-1.74,4.02-3.72,4.02-3.72-1.5-3.72-4.02Z"/>
    <path class="cls-1" d="M413.36,277.67h11.04v-28.08h-8.58v-3.24c4.5-.6,7.38-1.5,9.84-2.82h3.72v34.14h9.96v4.14h-25.98v-4.14Z"/>
    <path class="cls-1" d="M463.4,277.67h11.04v-28.08h-8.58v-3.24c4.5-.6,7.38-1.5,9.84-2.82h3.72v34.14h9.96v4.14h-25.98v-4.14Z"/>
    <path class="cls-1" d="M513.44,277.67h11.04v-28.08h-8.58v-3.24c4.5-.6,7.38-1.5,9.84-2.82h3.72v34.14h9.96v4.14h-25.98v-4.14Z"/>
    <path class="cls-1" d="M563.48,277.67h11.04v-28.08h-8.58v-3.24c4.5-.6,7.38-1.5,9.84-2.82h3.72v34.14h9.96v4.14h-25.98v-4.14Z"/>
    <path class="cls-1" d="M611.95,262.55c0-12.84,5.22-19.74,13.74-19.74s13.74,6.9,13.74,19.74-5.22,19.98-13.74,19.98-13.74-7.26-13.74-19.98ZM634.81,262.55c0-10.98-3.78-15.72-9.12-15.72s-9.12,4.74-9.12,15.72,3.78,15.96,9.12,15.96,9.12-4.98,9.12-15.96ZM621.97,262.13c0-2.46,1.74-3.96,3.72-3.96s3.72,1.5,3.72,3.96-1.74,4.02-3.72,4.02-3.72-1.5-3.72-4.02Z"/>
    <path class="cls-1" d="M661.99,262.55c0-12.84,5.22-19.74,13.74-19.74s13.74,6.9,13.74,19.74-5.22,19.98-13.74,19.98-13.74-7.26-13.74-19.98ZM684.85,262.55c0-10.98-3.78-15.72-9.12-15.72s-9.12,4.74-9.12,15.72,3.78,15.96,9.12,15.96,9.12-4.98,9.12-15.96ZM672.01,262.13c0-2.46,1.74-3.96,3.72-3.96s3.72,1.5,3.72,3.96-1.74,4.02-3.72,4.02-3.72-1.5-3.72-4.02Z"/>
    <path class="cls-1" d="M713.59,277.67h11.04v-28.08h-8.58v-3.24c4.5-.6,7.38-1.5,9.84-2.82h3.72v34.14h9.96v4.14h-25.98v-4.14Z"/>
    <path class="cls-1" d="M762.07,262.55c0-12.84,5.22-19.74,13.74-19.74s13.74,6.9,13.74,19.74-5.22,19.98-13.74,19.98-13.74-7.26-13.74-19.98ZM784.93,262.55c0-10.98-3.78-15.72-9.12-15.72s-9.12,4.74-9.12,15.72,3.78,15.96,9.12,15.96,9.12-4.98,9.12-15.96ZM772.09,262.13c0-2.46,1.74-3.96,3.72-3.96s3.72,1.5,3.72,3.96-1.74,4.02-3.72,4.02-3.72-1.5-3.72-4.02Z"/>
    <path class="cls-1" d="M813.67,277.67h11.04v-28.08h-8.58v-3.24c4.5-.6,7.38-1.5,9.84-2.82h3.72v34.14h9.96v4.14h-25.98v-4.14Z"/>
    <path class="cls-1" d="M862.14,262.55c0-12.84,5.22-19.74,13.74-19.74s13.74,6.9,13.74,19.74-5.22,19.98-13.74,19.98-13.74-7.26-13.74-19.98ZM885,262.55c0-10.98-3.78-15.72-9.12-15.72s-9.12,4.74-9.12,15.72,3.78,15.96,9.12,15.96,9.12-4.98,9.12-15.96ZM872.16,262.13c0-2.46,1.74-3.96,3.72-3.96s3.72,1.5,3.72,3.96-1.74,4.02-3.72,4.02-3.72-1.5-3.72-4.02Z"/>
    <path class="cls-1" d="M913.74,277.67h11.04v-28.08h-8.58v-3.24c4.5-.6,7.38-1.5,9.84-2.82h3.72v34.14h9.96v4.14h-25.98v-4.14Z"/>
    <path class="cls-1" d="M962.22,262.55c0-12.84,5.22-19.74,13.74-19.74s13.74,6.9,13.74,19.74-5.22,19.98-13.74,19.98-13.74-7.26-13.74-19.98ZM985.08,262.55c0-10.98-3.78-15.72-9.12-15.72s-9.12,4.74-9.12,15.72,3.78,15.96,9.12,15.96,9.12-4.98,9.12-15.96ZM972.24,262.13c0-2.46,1.74-3.96,3.72-3.96s3.72,1.5,3.72,3.96-1.74,4.02-3.72,4.02-3.72-1.5-3.72-4.02Z"/>
    <path class="cls-1" d="M1013.82,277.67h11.04v-28.08h-8.58v-3.24c4.5-.6,7.38-1.5,9.84-2.82h3.72v34.14h9.96v4.14h-25.98v-4.14Z"/>
    <path class="cls-1" d="M1062.3,262.55c0-12.84,5.22-19.74,13.74-19.74s13.74,6.9,13.74,19.74-5.22,19.98-13.74,19.98-13.74-7.26-13.74-19.98ZM1085.16,262.55c0-10.98-3.78-15.72-9.12-15.72s-9.12,4.74-9.12,15.72,3.78,15.96,9.12,15.96,9.12-4.98,9.12-15.96ZM1072.32,262.13c0-2.46,1.74-3.96,3.72-3.96s3.72,1.5,3.72,3.96-1.74,4.02-3.72,4.02-3.72-1.5-3.72-4.02Z"/>
    <path class="cls-1" d="M1113.89,277.67h11.04v-28.08h-8.58v-3.24c4.5-.6,7.38-1.5,9.84-2.82h3.72v34.14h9.96v4.14h-25.98v-4.14Z"/>
    <path class="cls-1" d="M1163.93,277.67h11.04v-28.08h-8.58v-3.24c4.5-.6,7.38-1.5,9.84-2.82h3.72v34.14h9.96v4.14h-25.98v-4.14Z"/>
    <path class="cls-1" d="M1213.97,277.67h11.04v-28.08h-8.58v-3.24c4.5-.6,7.38-1.5,9.84-2.82h3.72v34.14h9.96v4.14h-25.98v-4.14Z"/>
    <path class="cls-1" d="M1262.45,262.55c0-12.84,5.22-19.74,13.74-19.74s13.74,6.9,13.74,19.74-5.22,19.98-13.74,19.98-13.74-7.26-13.74-19.98ZM1285.31,262.55c0-10.98-3.78-15.72-9.12-15.72s-9.12,4.74-9.12,15.72,3.78,15.96,9.12,15.96,9.12-4.98,9.12-15.96ZM1272.47,262.13c0-2.46,1.74-3.96,3.72-3.96s3.72,1.5,3.72,3.96-1.74,4.02-3.72,4.02-3.72-1.5-3.72-4.02Z"/>
  </g>
  <g class="cls-2">
    <path class="cls-1" d="M11.49,326.79c0-12.84,5.22-19.74,13.74-19.74s13.74,6.9,13.74,19.74-5.22,19.98-13.74,19.98-13.74-7.26-13.74-19.98ZM34.35,326.79c0-10.98-3.78-15.72-9.12-15.72s-9.12,4.74-9.12,15.72,3.78,15.96,9.12,15.96,9.12-4.98,9.12-15.96ZM21.51,326.37c0-2.46,1.74-3.96,3.72-3.96s3.72,1.5,3.72,3.96-1.74,4.02-3.72,4.02-3.72-1.5-3.72-4.02Z"/>
    <path class="cls-1" d="M63.09,341.91h11.04v-28.08h-8.58v-3.24c4.5-.6,7.38-1.5,9.84-2.82h3.72v34.14h9.96v4.14h-25.98v-4.14Z"/>
    <path class="cls-1" d="M113.13,341.91h11.04v-28.08h-8.58v-3.24c4.5-.6,7.38-1.5,9.84-2.82h3.72v34.14h9.96v4.14h-25.98v-4.14Z"/>
    <path class="cls-1" d="M163.17,341.91h11.04v-28.08h-8.58v-3.24c4.5-.6,7.38-1.5,9.84-2.82h3.72v34.14h9.96v4.14h-25.98v-4.14Z"/>
    <path class="cls-1" d="M211.65,326.79c0-12.84,5.22-19.74,13.74-19.74s13.74,6.9,13.74,19.74-5.22,19.98-13.74,19.98-13.74-7.26-13.74-19.98ZM234.5,326.79c0-10.98-3.78-15.72-9.12-15.72s-9.12,4.74-9.12,15.72,3.78,15.96,9.12,15.96,9.12-4.98,9.12-15.96ZM221.66,326.37c0-2.46,1.74-3.96,3.72-3.96s3.72,1.5,3.72,3.96-1.74,4.02-3.72,4.02-3.72-1.5-3.72-4.02Z"/>
    <path class="cls-1" d="M261.68,326.79c0-12.84,5.22-19.74,13.74-19.74s13.74,6.9,13.74,19.74-5.22,19.98-13.74,19.98-13.74-7.26-13.74-19.98ZM284.54,326.79c0-10.98-3.78-15.72-9.12-15.72s-9.12,4.74-9.12,15.72,3.78,15.96,9.12,15.96,9.12-4.98,9.12-15.96ZM271.7,326.37c0-2.46,1.74-3.96,3.72-3.96s3.72,1.5,3.72,3.96-1.74,4.02-3.72,4.02-3.72-1.5-3.72-4.02Z"/>
    <path class="cls-1" d="M311.72,326.79c0-12.84,5.22-19.74,13.74-19.74s13.74,6.9,13.74,19.74-5.22,19.98-13.74,19.98-13.74-7.26-13.74-19.98ZM334.58,326.79c0-10.98-3.78-15.72-9.12-15.72s-9.12,4.74-9.12,15.72,3.78,15.96,9.12,15.96,9.12-4.98,9.12-15.96ZM321.74,326.37c0-2.46,1.74-3.96,3.72-3.96s3.72,1.5,3.72,3.96-1.74,4.02-3.72,4.02-3.72-1.5-3.72-4.02Z"/>
    <path class="cls-1" d="M363.32,341.91h11.04v-28.08h-8.58v-3.24c4.5-.6,7.38-1.5,9.84-2.82h3.72v34.14h9.96v4.14h-25.98v-4.14Z"/>
    <path class="cls-1" d="M413.36,341.91h11.04v-28.08h-8.58v-3.24c4.5-.6,7.38-1.5,9.84-2.82h3.72v34.14h9.96v4.14h-25.98v-4.14Z"/>
    <path class="cls-1" d="M461.84,326.79c0-12.84,5.22-19.74,13.74-19.74s13.74,6.9,13.74,19.74-5.22,19.98-13.74,19.98-13.74-7.26-13.74-19.98ZM484.7,326.79c0-10.98-3.78-15.72-9.12-15.72s-9.12,4.74-9.12,15.72,3.78,15.96,9.12,15.96,9.12-4.98,9.12-15.96ZM471.86,326.37c0-2.46,1.74-3.96,3.72-3.96s3.72,1.5,3.72,3.96-1.74,4.02-3.72,4.02-3.72-1.5-3.72-4.02Z"/>
    <path class="cls-1" d="M511.88,326.79c0-12.84,5.22-19.74,13.74-19.74s13.74,6.9,13.74,19.74-5.22,19.98-13.74,19.98-13.74-7.26-13.74-19.98ZM534.74,326.79c0-10.98-3.78-15.72-9.12-15.72s-9.12,4.74-9.12,15.72,3.78,15.96,9.12,15.96,9.12-4.98,9.12-15.96ZM521.9,326.37c0-2.46,1.74-3.96,3.72-3.96s3.72,1.5,3.72,3.96-1.74,4.02-3.72,4.02-3.72-1.5-3.72-4.02Z"/>
    <path class="cls-1" d="M563.48,341.91h11.04v-28.08h-8.58v-3.24c4.5-.6,7.38-1.5,9.84-2.82h3.72v34.14h9.96v4.14h-25.98v-4.14Z"/>
    <path class="cls-1" d="M611.95,326.79c0-12.84,5.22-19.74,13.74-19.74s13.74,6.9,13.74,19.74-5.22,19.98-13.74,19.98-13.74-7.26-13.74-19.98ZM634.81,326.79c0-10.98-3.78-15.72-9.12-15.72s-9.12,4.74-9.12,15.72,3.78,15.96,9.12,15.96,9.12-4.98,9.12-15.96ZM621.97,326.37c0-2.46,1.74-3.96,3.72-3.96s3.72,1.5,3.72,3.96-1.74,4.02-3.72,4.02-3.72-1.5-3.72-4.02Z"/>
    <path class="cls-1" d="M663.55,341.91h11.04v-28.08h-8.58v-3.24c4.5-.6,7.38-1.5,9.84-2.82h3.72v34.14h9.96v4.14h-25.98v-4.14Z"/>
    <path class="cls-1" d="M712.03,326.79c0-12.84,5.22-19.74,13.74-19.74s13.74,6.9,13.74,19.74-5.22,19.98-13.74,19.98-13.74-7.26-13.74-19.98ZM734.89,326.79c0-10.98-3.78-15.72-9.12-15.72s-9.12,4.74-9.12,15.72,3.78,15.96,9.12,15.96,9.12-4.98,9.12-15.96ZM722.05,326.37c0-2.46,1.74-3.96,3.72-3.96s3.72,1.5,3.72,3.96-1.74,4.02-3.72,4.02-3.72-1.5-3.72-4.02Z"/>
    <path class="cls-1" d="M763.63,341.91h11.04v-28.08h-8.58v-3.24c4.5-.6,7.38-1.5,9.84-2.82h3.72v34.14h9.96v4.14h-25.98v-4.14Z"/>
    <path class="cls-1" d="M812.11,326.79c0-12.84,5.22-19.74,13.74-19.74s13.74,6.9,13.74,19.74-5.22,19.98-13.74,19.98-13.74-7.26-13.74-19.98ZM834.96,326.79c0-10.98-3.78-15.72-9.12-15.72s-9.12,4.74-9.12,15.72,3.78,15.96,9.12,15.96,9.12-4.98,9.12-15.96ZM822.12,326.37c0-2.46,1.74-3.96,3.72-3.96s3.72,1.5,3.72,3.96-1.74,4.02-3.72,4.02-3.72-1.5-3.72-4.02Z"/>
    <path class="cls-1" d="M862.14,326.79c0-12.84,5.22-19.74,13.74-19.74s13.74,6.9,13.74,19.74-5.22,19.98-13.74,19.98-13.74-7.26-13.74-19.98ZM885,326.79c0-10.98-3.78-15.72-9.12-15.72s-9.12,4.74-9.12,15.72,3.78,15.96,9.12,15.96,9.12-4.98,9.12-15.96ZM872.16,326.37c0-2.46,1.74-3.96,3.72-3.96s3.72,1.5,3.72,3.96-1.74,4.02-3.72,4.02-3.72-1.5-3.72-4.02Z"/>
    <path class="cls-1" d="M913.74,341.91h11.04v-28.08h-8.58v-3.24c4.5-.6,7.38-1.5,9.84-2.82h3.72v34.14h9.96v4.14h-25.98v-4.14Z"/>
    <path class="cls-1" d="M962.22,326.79c0-12.84,5.22-19.74,13.74-19.74s13.74,6.9,13.74,19.74-5.22,19.98-13.74,19.98-13.74-7.26-13.74-19.98ZM985.08,326.79c0-10.98-3.78-15.72-9.12-15.72s-9.12,4.74-9.12,15.72,3.78,15.96,9.12,15.96,9.12-4.98,9.12-15.96ZM972.24,326.37c0-2.46,1.74-3.96,3.72-3.96s3.72,1.5,3.72,3.96-1.74,4.02-3.72,4.02-3.72-1.5-3.72-4.02Z"/>
    <path class="cls-1" d="M1013.82,341.91h11.04v-28.08h-8.58v-3.24c4.5-.6,7.38-1.5,9.84-2.82h3.72v34.14h9.96v4.14h-25.98v-4.14Z"/>
    <path class="cls-1" d="M1062.3,326.79c0-12.84,5.22-19.74,13.74-19.74s13.74,6.9,13.74,19.74-5.22,19.98-13.74,19.98-13.74-7.26-13.74-19.98ZM1085.16,326.79c0-10.98-3.78-15.72-9.12-15.72s-9.12,4.74-9.12,15.72,3.78,15.96,9.12,15.96,9.12-4.98,9.12-15.96ZM1072.32,326.37c0-2.46,1.74-3.96,3.72-3.96s3.72,1.5,3.72,3.96-1.74,4.02-3.72,4.02-3.72-1.5-3.72-4.02Z"/>
    <path class="cls-1" d="M1113.89,341.91h11.04v-28.08h-8.58v-3.24c4.5-.6,7.38-1.5,9.84-2.82h3.72v34.14h9.96v4.14h-25.98v-4.14Z"/>
    <path class="cls-1" d="M1162.37,326.79c0-12.84,5.22-19.74,13.74-19.74s13.74,6.9,13.74,19.74-5.22,19.98-13.74,19.98-13.74-7.26-13.74-19.98ZM1185.23,326.79c0-10.98-3.78-15.72-9.12-15.72s-9.12,4.74-9.12,15.72,3.78,15.96,9.12,15.96,9.12-4.98,9.12-15.96ZM1172.39,326.37c0-2.46,1.74-3.96,3.72-3.96s3.72,1.5,3.72,3.96-1.74,4.02-3.72,4.02-3.72-1.5-3.72-4.02Z"/>
    <path class="cls-1" d="M1212.41,326.79c0-12.84,5.22-19.74,13.74-19.74s13.74,6.9,13.74,19.74-5.22,19.98-13.74,19.98-13.74-7.26-13.74-19.98ZM1235.27,326.79c0-10.98-3.78-15.72-9.12-15.72s-9.12,4.74-9.12,15.72,3.78,15.96,9.12,15.96,9.12-4.98,9.12-15.96ZM1222.43,326.37c0-2.46,1.74-3.96,3.72-3.96s3.72,1.5,3.72,3.96-1.74,4.02-3.72,4.02-3.72-1.5-3.72-4.02Z"/>
    <path class="cls-1" d="M1262.45,326.79c0-12.84,5.22-19.74,13.74-19.74s13.74,6.9,13.74,19.74-5.22,19.98-13.74,19.98-13.74-7.26-13.74-19.98ZM1285.31,326.79c0-10.98-3.78-15.72-9.12-15.72s-9.12,4.74-9.12,15.72,3.78,15.96,9.12,15.96,9.12-4.98,9.12-15.96ZM1272.47,326.37c0-2.46,1.74-3.96,3.72-3.96s3.72,1.5,3.72,3.96-1.74,4.02-3.72,4.02-3.72-1.5-3.72-4.02Z"/>
  </g>
  <g class="cls-2">
    <path class="cls-1" d="M13.05,400.3h11.04v-28.08h-8.58v-3.24c4.5-.6,7.38-1.5,9.84-2.82h3.72v34.14h9.96v4.14H13.05v-4.14Z"/>
    <path class="cls-1" d="M61.53,385.19c0-12.84,5.22-19.74,13.74-19.74s13.74,6.9,13.74,19.74-5.22,19.98-13.74,19.98-13.74-7.26-13.74-19.98ZM84.39,385.19c0-10.98-3.78-15.72-9.12-15.72s-9.12,4.74-9.12,15.72,3.78,15.96,9.12,15.96,9.12-4.98,9.12-15.96ZM71.55,384.77c0-2.46,1.74-3.96,3.72-3.96s3.72,1.5,3.72,3.96-1.74,4.02-3.72,4.02-3.72-1.5-3.72-4.02Z"/>
    <path class="cls-1" d="M113.13,400.3h11.04v-28.08h-8.58v-3.24c4.5-.6,7.38-1.5,9.84-2.82h3.72v34.14h9.96v4.14h-25.98v-4.14Z"/>
    <path class="cls-1" d="M161.61,385.19c0-12.84,5.22-19.74,13.74-19.74s13.74,6.9,13.74,19.74-5.22,19.98-13.74,19.98-13.74-7.26-13.74-19.98ZM184.47,385.19c0-10.98-3.78-15.72-9.12-15.72s-9.12,4.74-9.12,15.72,3.78,15.96,9.12,15.96,9.12-4.98,9.12-15.96ZM171.63,384.77c0-2.46,1.74-3.96,3.72-3.96s3.72,1.5,3.72,3.96-1.74,4.02-3.72,4.02-3.72-1.5-3.72-4.02Z"/>
    <path class="cls-1" d="M213.21,400.3h11.04v-28.08h-8.58v-3.24c4.5-.6,7.38-1.5,9.84-2.82h3.72v34.14h9.96v4.14h-25.98v-4.14Z"/>
    <path class="cls-1" d="M261.68,385.19c0-12.84,5.22-19.74,13.74-19.74s13.74,6.9,13.74,19.74-5.22,19.98-13.74,19.98-13.74-7.26-13.74-19.98ZM284.54,385.19c0-10.98-3.78-15.72-9.12-15.72s-9.12,4.74-9.12,15.72,3.78,15.96,9.12,15.96,9.12-4.98,9.12-15.96ZM271.7,384.77c0-2.46,1.74-3.96,3.72-3.96s3.72,1.5,3.72,3.96-1.74,4.02-3.72,4.02-3.72-1.5-3.72-4.02Z"/>
    <path class="cls-1" d="M313.28,400.3h11.04v-28.08h-8.58v-3.24c4.5-.6,7.38-1.5,9.84-2.82h3.72v34.14h9.96v4.14h-25.98v-4.14Z"/>
    <path class="cls-1" d="M361.76,385.19c0-12.84,5.22-19.74,13.74-19.74s13.74,6.9,13.74,19.74-5.22,19.98-13.74,19.98-13.74-7.26-13.74-19.98ZM384.62,385.19c0-10.98-3.78-15.72-9.12-15.72s-9.12,4.74-9.12,15.72,3.78,15.96,9.12,15.96,9.12-4.98,9.12-15.96ZM371.78,384.77c0-2.46,1.74-3.96,3.72-3.96s3.72,1.5,3.72,3.96-1.74,4.02-3.72,4.02-3.72-1.5-3.72-4.02Z"/>
    <path class="cls-1" d="M411.8,385.19c0-12.84,5.22-19.74,13.74-19.74s13.74,6.9,13.74,19.74-5.22,19.98-13.74,19.98-13.74-7.26-13.74-19.98ZM434.66,385.19c0-10.98-3.78-15.72-9.12-15.72s-9.12,4.74-9.12,15.72,3.78,15.96,9.12,15.96,9.12-4.98,9.12-15.96ZM421.82,384.77c0-2.46,1.74-3.96,3.72-3.96s3.72,1.5,3.72,3.96-1.74,4.02-3.72,4.02-3.72-1.5-3.72-4.02Z"/>
    <path class="cls-1" d="M461.84,385.19c0-12.84,5.22-19.74,13.74-19.74s13.74,6.9,13.74,19.74-5.22,19.98-13.74,19.98-13.74-7.26-13.74-19.98ZM484.7,385.19c0-10.98-3.78-15.72-9.12-15.72s-9.12,4.74-9.12,15.72,3.78,15.96,9.12,15.96,9.12-4.98,9.12-15.96ZM471.86,384.77c0-2.46,1.74-3.96,3.72-3.96s3.72,1.5,3.72,3.96-1.74,4.02-3.72,4.02-3.72-1.5-3.72-4.02Z"/>
    <path class="cls-1" d="M513.44,400.3h11.04v-28.08h-8.58v-3.24c4.5-.6,7.38-1.5,9.84-2.82h3.72v34.14h9.96v4.14h-25.98v-4.14Z"/>
    <path class="cls-1" d="M561.92,385.19c0-12.84,5.22-19.74,13.74-19.74s13.74,6.9,13.74,19.74-5.22,19.98-13.74,19.98-13.74-7.26-13.74-19.98ZM584.77,385.19c0-10.98-3.78-15.72-9.12-15.72s-9.12,4.74-9.12,15.72,3.78,15.96,9.12,15.96,9.12-4.98,9.12-15.96ZM571.94,384.77c0-2.46,1.74-3.96,3.72-3.96s3.72,1.5,3.72,3.96-1.74,4.02-3.72,4.02-3.72-1.5-3.72-4.02Z"/>
    <path class="cls-1" d="M611.95,385.19c0-12.84,5.22-19.74,13.74-19.74s13.74,6.9,13.74,19.74-5.22,19.98-13.74,19.98-13.74-7.26-13.74-19.98ZM634.81,385.19c0-10.98-3.78-15.72-9.12-15.72s-9.12,4.74-9.12,15.72,3.78,15.96,9.12,15.96,9.12-4.98,9.12-15.96ZM621.97,384.77c0-2.46,1.74-3.96,3.72-3.96s3.72,1.5,3.72,3.96-1.74,4.02-3.72,4.02-3.72-1.5-3.72-4.02Z"/>
    <path class="cls-1" d="M663.55,400.3h11.04v-28.08h-8.58v-3.24c4.5-.6,7.38-1.5,9.84-2.82h3.72v34.14h9.96v4.14h-25.98v-4.14Z"/>
    <path class="cls-1" d="M712.03,385.19c0-12.84,5.22-19.74,13.74-19.74s13.74,6.9,13.74,19.74-5.22,19.98-13.74,19.98-13.74-7.26-13.74-19.98ZM734.89,385.19c0-10.98-3.78-15.72-9.12-15.72s-9.12,4.74-9.12,15.72,3.78,15.96,9.12,15.96,9.12-4.98,9.12-15.96ZM722.05,384.77c0-2.46,1.74-3.96,3.72-3.96s3.72,1.5,3.72,3.96-1.74,4.02-3.72,4.02-3.72-1.5-3.72-4.02Z"/>
    <path class="cls-1" d="M763.63,400.3h11.04v-28.08h-8.58v-3.24c4.5-.6,7.38-1.5,9.84-2.82h3.72v34.14h9.96v4.14h-25.98v-4.14Z"/>
    <path class="cls-1" d="M813.67,400.3h11.04v-28.08h-8.58v-3.24c4.5-.6,7.38-1.5,9.84-2.82h3.72v34.14h9.96v4.14h-25.98v-4.14Z"/>
    <path class="cls-1" d="M863.7,400.3h11.04v-28.08h-8.58v-3.24c4.5-.6,7.38-1.5,9.84-2.82h3.72v34.14h9.96v4.14h-25.98v-4.14Z"/>
    <path class="cls-1" d="M912.18,385.19c0-12.84,5.22-19.74,13.74-19.74s13.74,6.9,13.74,19.74-5.22,19.98-13.74,19.98-13.74-7.26-13.74-19.98ZM935.04,385.19c0-10.98-3.78-15.72-9.12-15.72s-9.12,4.74-9.12,15.72,3.78,15.96,9.12,15.96,9.12-4.98,9.12-15.96ZM922.2,384.77c0-2.46,1.74-3.96,3.72-3.96s3.72,1.5,3.72,3.96-1.74,4.02-3.72,4.02-3.72-1.5-3.72-4.02Z"/>
    <path class="cls-1" d="M962.22,385.19c0-12.84,5.22-19.74,13.74-19.74s13.74,6.9,13.74,19.74-5.22,19.98-13.74,19.98-13.74-7.26-13.74-19.98ZM985.08,385.19c0-10.98-3.78-15.72-9.12-15.72s-9.12,4.74-9.12,15.72,3.78,15.96,9.12,15.96,9.12-4.98,9.12-15.96ZM972.24,384.77c0-2.46,1.74-3.96,3.72-3.96s3.72,1.5,3.72,3.96-1.74,4.02-3.72,4.02-3.72-1.5-3.72-4.02Z"/>
    <path class="cls-1" d="M1012.26,385.19c0-12.84,5.22-19.74,13.74-19.74s13.74,6.9,13.74,19.74-5.22,19.98-13.74,19.98-13.74-7.26-13.74-19.98ZM1035.12,385.19c0-10.98-3.78-15.72-9.12-15.72s-9.12,4.74-9.12,15.72,3.78,15.96,9.12,15.96,9.12-4.98,9.12-15.96ZM1022.28,384.77c0-2.46,1.74-3.96,3.72-3.96s3.72,1.5,3.72,3.96-1.74,4.02-3.72,4.02-3.72-1.5-3.72-4.02Z"/>
    <path class="cls-1" d="M1062.3,385.19c0-12.84,5.22-19.74,13.74-19.74s13.74,6.9,13.74,19.74-5.22,19.98-13.74,19.98-13.74-7.26-13.74-19.98ZM1085.16,385.19c0-10.98-3.78-15.72-9.12-15.72s-9.12,4.74-9.12,15.72,3.78,15.96,9.12,15.96,9.12-4.98,9.12-15.96ZM1072.32,384.77c0-2.46,1.74-3.96,3.72-3.96s3.72,1.5,3.72,3.96-1.74,4.02-3.72,4.02-3.72-1.5-3.72-4.02Z"/>
    <path class="cls-1" d="M1112.33,385.19c0-12.84,5.22-19.74,13.74-19.74s13.74,6.9,13.74,19.74-5.22,19.98-13.74,19.98-13.74-7.26-13.74-19.98ZM1135.19,385.19c0-10.98-3.78-15.72-9.12-15.72s-9.12,4.74-9.12,15.72,3.78,15.96,9.12,15.96,9.12-4.98,9.12-15.96ZM1122.35,384.77c0-2.46,1.74-3.96,3.72-3.96s3.72,1.5,3.72,3.96-1.74,4.02-3.72,4.02-3.72-1.5-3.72-4.02Z"/>
    <path class="cls-1" d="M1162.37,385.19c0-12.84,5.22-19.74,13.74-19.74s13.74,6.9,13.74,19.74-5.22,19.98-13.74,19.98-13.74-7.26-13.74-19.98ZM1185.23,385.19c0-10.98-3.78-15.72-9.12-15.72s-9.12,4.74-9.12,15.72,3.78,15.96,9.12,15.96,9.12-4.98,9.12-15.96ZM1172.39,384.77c0-2.46,1.74-3.96,3.72-3.96s3.72,1.5,3.72,3.96-1.74,4.02-3.72,4.02-3.72-1.5-3.72-4.02Z"/>
    <path class="cls-1" d="M1212.41,385.19c0-12.84,5.22-19.74,13.74-19.74s13.74,6.9,13.74,19.74-5.22,19.98-13.74,19.98-13.74-7.26-13.74-19.98ZM1235.27,385.19c0-10.98-3.78-15.72-9.12-15.72s-9.12,4.74-9.12,15.72,3.78,15.96,9.12,15.96,9.12-4.98,9.12-15.96ZM1222.43,384.77c0-2.46,1.74-3.96,3.72-3.96s3.72,1.5,3.72,3.96-1.74,4.02-3.72,4.02-3.72-1.5-3.72-4.02Z"/>
    <path class="cls-1" d="M1262.45,385.19c0-12.84,5.22-19.74,13.74-19.74s13.74,6.9,13.74,19.74-5.22,19.98-13.74,19.98-13.74-7.26-13.74-19.98ZM1285.31,385.19c0-10.98-3.78-15.72-9.12-15.72s-9.12,4.74-9.12,15.72,3.78,15.96,9.12,15.96,9.12-4.98,9.12-15.96ZM1272.47,384.77c0-2.46,1.74-3.96,3.72-3.96s3.72,1.5,3.72,3.96-1.74,4.02-3.72,4.02-3.72-1.5-3.72-4.02Z"/>
  </g>
  <g class="cls-2">
    <path class="cls-1" d="M13.05,459.31h11.04v-28.08h-8.58v-3.24c4.5-.6,7.38-1.5,9.84-2.82h3.72v34.14h9.96v4.14H13.05v-4.14Z"/>
    <path class="cls-1" d="M61.53,444.19c0-12.84,5.22-19.74,13.74-19.74s13.74,6.9,13.74,19.74-5.22,19.98-13.74,19.98-13.74-7.26-13.74-19.98ZM84.39,444.19c0-10.98-3.78-15.72-9.12-15.72s-9.12,4.74-9.12,15.72,3.78,15.96,9.12,15.96,9.12-4.98,9.12-15.96ZM71.55,443.77c0-2.46,1.74-3.96,3.72-3.96s3.72,1.5,3.72,3.96-1.74,4.02-3.72,4.02-3.72-1.5-3.72-4.02Z"/>
    <path class="cls-1" d="M113.13,459.31h11.04v-28.08h-8.58v-3.24c4.5-.6,7.38-1.5,9.84-2.82h3.72v34.14h9.96v4.14h-25.98v-4.14Z"/>
    <path class="cls-1" d="M161.61,444.19c0-12.84,5.22-19.74,13.74-19.74s13.74,6.9,13.74,19.74-5.22,19.98-13.74,19.98-13.74-7.26-13.74-19.98ZM184.47,444.19c0-10.98-3.78-15.72-9.12-15.72s-9.12,4.74-9.12,15.72,3.78,15.96,9.12,15.96,9.12-4.98,9.12-15.96ZM171.63,443.77c0-2.46,1.74-3.96,3.72-3.96s3.72,1.5,3.72,3.96-1.74,4.02-3.72,4.02-3.72-1.5-3.72-4.02Z"/>
    <path class="cls-1" d="M213.21,459.31h11.04v-28.08h-8.58v-3.24c4.5-.6,7.38-1.5,9.84-2.82h3.72v34.14h9.96v4.14h-25.98v-4.14Z"/>
    <path class="cls-1" d="M263.24,459.31h11.04v-28.08h-8.58v-3.24c4.5-.6,7.38-1.5,9.84-2.82h3.72v34.14h9.96v4.14h-25.98v-4.14Z"/>
    <path class="cls-1" d="M313.28,459.31h11.04v-28.08h-8.58v-3.24c4.5-.6,7.38-1.5,9.84-2.82h3.72v34.14h9.96v4.14h-25.98v-4.14Z"/>
    <path class="cls-1" d="M363.32,459.31h11.04v-28.08h-8.58v-3.24c4.5-.6,7.38-1.5,9.84-2.82h3.72v34.14h9.96v4.14h-25.98v-4.14Z"/>
    <path class="cls-1" d="M413.36,459.31h11.04v-28.08h-8.58v-3.24c4.5-.6,7.38-1.5,9.84-2.82h3.72v34.14h9.96v4.14h-25.98v-4.14Z"/>
    <path class="cls-1" d="M463.4,459.31h11.04v-28.08h-8.58v-3.24c4.5-.6,7.38-1.5,9.84-2.82h3.72v34.14h9.96v4.14h-25.98v-4.14Z"/>
    <path class="cls-1" d="M513.44,459.31h11.04v-28.08h-8.58v-3.24c4.5-.6,7.38-1.5,9.84-2.82h3.72v34.14h9.96v4.14h-25.98v-4.14Z"/>
    <path class="cls-1" d="M561.92,444.19c0-12.84,5.22-19.74,13.74-19.74s13.74,6.9,13.74,19.74-5.22,19.98-13.74,19.98-13.74-7.26-13.74-19.98ZM584.77,444.19c0-10.98-3.78-15.72-9.12-15.72s-9.12,4.74-9.12,15.72,3.78,15.96,9.12,15.96,9.12-4.98,9.12-15.96ZM571.94,443.77c0-2.46,1.74-3.96,3.72-3.96s3.72,1.5,3.72,3.96-1.74,4.02-3.72,4.02-3.72-1.5-3.72-4.02Z"/>
    <path class="cls-1" d="M611.95,444.19c0-12.84,5.22-19.74,13.74-19.74s13.74,6.9,13.74,19.74-5.22,19.98-13.74,19.98-13.74-7.26-13.74-19.98ZM634.81,444.19c0-10.98-3.78-15.72-9.12-15.72s-9.12,4.74-9.12,15.72,3.78,15.96,9.12,15.96,9.12-4.98,9.12-15.96ZM621.97,443.77c0-2.46,1.74-3.96,3.72-3.96s3.72,1.5,3.72,3.96-1.74,4.02-3.72,4.02-3.72-1.5-3.72-4.02Z"/>
    <path class="cls-1" d="M661.99,444.19c0-12.84,5.22-19.74,13.74-19.74s13.74,6.9,13.74,19.74-5.22,19.98-13.74,19.98-13.74-7.26-13.74-19.98ZM684.85,444.19c0-10.98-3.78-15.72-9.12-15.72s-9.12,4.74-9.12,15.72,3.78,15.96,9.12,15.96,9.12-4.98,9.12-15.96ZM672.01,443.77c0-2.46,1.74-3.96,3.72-3.96s3.72,1.5,3.72,3.96-1.74,4.02-3.72,4.02-3.72-1.5-3.72-4.02Z"/>
    <path class="cls-1" d="M712.03,444.19c0-12.84,5.22-19.74,13.74-19.74s13.74,6.9,13.74,19.74-5.22,19.98-13.74,19.98-13.74-7.26-13.74-19.98ZM734.89,444.19c0-10.98-3.78-15.72-9.12-15.72s-9.12,4.74-9.12,15.72,3.78,15.96,9.12,15.96,9.12-4.98,9.12-15.96ZM722.05,443.77c0-2.46,1.74-3.96,3.72-3.96s3.72,1.5,3.72,3.96-1.74,4.02-3.72,4.02-3.72-1.5-3.72-4.02Z"/>
    <path class="cls-1" d="M762.07,444.19c0-12.84,5.22-19.74,13.74-19.74s13.74,6.9,13.74,19.74-5.22,19.98-13.74,19.98-13.74-7.26-13.74-19.98ZM784.93,444.19c0-10.98-3.78-15.72-9.12-15.72s-9.12,4.74-9.12,15.72,3.78,15.96,9.12,15.96,9.12-4.98,9.12-15.96ZM772.09,443.77c0-2.46,1.74-3.96,3.72-3.96s3.72,1.5,3.72,3.96-1.74,4.02-3.72,4.02-3.72-1.5-3.72-4.02Z"/>
    <path class="cls-1" d="M812.11,444.19c0-12.84,5.22-19.74,13.74-19.74s13.74,6.9,13.74,19.74-5.22,19.98-13.74,19.98-13.74-7.26-13.74-19.98ZM834.96,444.19c0-10.98-3.78-15.72-9.12-15.72s-9.12,4.74-9.12,15.72,3.78,15.96,9.12,15.96,9.12-4.98,9.12-15.96ZM822.12,443.77c0-2.46,1.74-3.96,3.72-3.96s3.72,1.5,3.72,3.96-1.74,4.02-3.72,4.02-3.72-1.5-3.72-4.02Z"/>
    <path class="cls-1" d="M862.14,444.19c0-12.84,5.22-19.74,13.74-19.74s13.74,6.9,13.74,19.74-5.22,19.98-13.74,19.98-13.74-7.26-13.74-19.98ZM885,444.19c0-10.98-3.78-15.72-9.12-15.72s-9.12,4.74-9.12,15.72,3.78,15.96,9.12,15.96,9.12-4.98,9.12-15.96ZM872.16,443.77c0-2.46,1.74-3.96,3.72-3.96s3.72,1.5,3.72,3.96-1.74,4.02-3.72,4.02-3.72-1.5-3.72-4.02Z"/>
    <path class="cls-1" d="M912.18,444.19c0-12.84,5.22-19.74,13.74-19.74s13.74,6.9,13.74,19.74-5.22,19.98-13.74,19.98-13.74-7.26-13.74-19.98ZM935.04,444.19c0-10.98-3.78-15.72-9.12-15.72s-9.12,4.74-9.12,15.72,3.78,15.96,9.12,15.96,9.12-4.98,9.12-15.96ZM922.2,443.77c0-2.46,1.74-3.96,3.72-3.96s3.72,1.5,3.72,3.96-1.74,4.02-3.72,4.02-3.72-1.5-3.72-4.02Z"/>
    <path class="cls-1" d="M962.22,444.19c0-12.84,5.22-19.74,13.74-19.74s13.74,6.9,13.74,19.74-5.22,19.98-13.74,19.98-13.74-7.26-13.74-19.98ZM985.08,444.19c0-10.98-3.78-15.72-9.12-15.72s-9.12,4.74-9.12,15.72,3.78,15.96,9.12,15.96,9.12-4.98,9.12-15.96ZM972.24,443.77c0-2.46,1.74-3.96,3.72-3.96s3.72,1.5,3.72,3.96-1.74,4.02-3.72,4.02-3.72-1.5-3.72-4.02Z"/>
    <path class="cls-1" d="M1012.26,444.19c0-12.84,5.22-19.74,13.74-19.74s13.74,6.9,13.74,19.74-5.22,19.98-13.74,19.98-13.74-7.26-13.74-19.98ZM1035.12,444.19c0-10.98-3.78-15.72-9.12-15.72s-9.12,4.74-9.12,15.72,3.78,15.96,9.12,15.96,9.12-4.98,9.12-15.96ZM1022.28,443.77c0-2.46,1.74-3.96,3.72-3.96s3.72,1.5,3.72,3.96-1.74,4.02-3.72,4.02-3.72-1.5-3.72-4.02Z"/>
    <path class="cls-1" d="M1063.86,459.31h11.04v-28.08h-8.58v-3.24c4.5-.6,7.38-1.5,9.84-2.82h3.72v34.14h9.96v4.14h-25.98v-4.14Z"/>
    <path class="cls-1" d="M1113.89,459.31h11.04v-28.08h-8.58v-3.24c4.5-.6,7.38-1.5,9.84-2.82h3.72v34.14h9.96v4.14h-25.98v-4.14Z"/>
    <path class="cls-1" d="M1163.93,459.31h11.04v-28.08h-8.58v-3.24c4.5-.6,7.38-1.5,9.84-2.82h3.72v34.14h9.96v4.14h-25.98v-4.14Z"/>
    <path class="cls-1" d="M1213.97,459.31h11.04v-28.08h-8.58v-3.24c4.5-.6,7.38-1.5,9.84-2.82h3.72v34.14h9.96v4.14h-25.98v-4.14Z"/>
    <path class="cls-1" d="M1264.01,459.31h11.04v-28.08h-8.58v-3.24c4.5-.6,7.38-1.5,9.84-2.82h3.72v34.14h9.96v4.14h-25.98v-4.14Z"/>
  </g>
  <g class="cls-2">
    <path class="cls-1" d="M11.49,501.7c0-12.84,5.22-19.74,13.74-19.74s13.74,6.9,13.74,19.74-5.22,19.98-13.74,19.98-13.74-7.26-13.74-19.98ZM34.35,501.7c0-10.98-3.78-15.72-9.12-15.72s-9.12,4.74-9.12,15.72,3.78,15.96,9.12,15.96,9.12-4.98,9.12-15.96ZM21.51,501.28c0-2.46,1.74-3.96,3.72-3.96s3.72,1.5,3.72,3.96-1.74,4.02-3.72,4.02-3.72-1.5-3.72-4.02Z"/>
    <path class="cls-1" d="M61.53,501.7c0-12.84,5.22-19.74,13.74-19.74s13.74,6.9,13.74,19.74-5.22,19.98-13.74,19.98-13.74-7.26-13.74-19.98ZM84.39,501.7c0-10.98-3.78-15.72-9.12-15.72s-9.12,4.74-9.12,15.72,3.78,15.96,9.12,15.96,9.12-4.98,9.12-15.96ZM71.55,501.28c0-2.46,1.74-3.96,3.72-3.96s3.72,1.5,3.72,3.96-1.74,4.02-3.72,4.02-3.72-1.5-3.72-4.02Z"/>
    <path class="cls-1" d="M111.57,501.7c0-12.84,5.22-19.74,13.74-19.74s13.74,6.9,13.74,19.74-5.22,19.98-13.74,19.98-13.74-7.26-13.74-19.98ZM134.43,501.7c0-10.98-3.78-15.72-9.12-15.72s-9.12,4.74-9.12,15.72,3.78,15.96,9.12,15.96,9.12-4.98,9.12-15.96ZM121.59,501.28c0-2.46,1.74-3.96,3.72-3.96s3.72,1.5,3.72,3.96-1.74,4.02-3.72,4.02-3.72-1.5-3.72-4.02Z"/>
    <path class="cls-1" d="M161.61,501.7c0-12.84,5.22-19.74,13.74-19.74s13.74,6.9,13.74,19.74-5.22,19.98-13.74,19.98-13.74-7.26-13.74-19.98ZM184.47,501.7c0-10.98-3.78-15.72-9.12-15.72s-9.12,4.74-9.12,15.72,3.78,15.96,9.12,15.96,9.12-4.98,9.12-15.96ZM171.63,501.28c0-2.46,1.74-3.96,3.72-3.96s3.72,1.5,3.72,3.96-1.74,4.02-3.72,4.02-3.72-1.5-3.72-4.02Z"/>
    <path class="cls-1" d="M211.65,501.7c0-12.84,5.22-19.74,13.74-19.74s13.74,6.9,13.74,19.74-5.22,19.98-13.74,19.98-13.74-7.26-13.74-19.98ZM234.5,501.7c0-10.98-3.78-15.72-9.12-15.72s-9.12,4.74-9.12,15.72,3.78,15.96,9.12,15.96,9.12-4.98,9.12-15.96ZM221.66,501.28c0-2.46,1.74-3.96,3.72-3.96s3.72,1.5,3.72,3.96-1.74,4.02-3.72,4.02-3.72-1.5-3.72-4.02Z"/>
    <path class="cls-1" d="M261.68,501.7c0-12.84,5.22-19.74,13.74-19.74s13.74,6.9,13.74,19.74-5.22,19.98-13.74,19.98-13.74-7.26-13.74-19.98ZM284.54,501.7c0-10.98-3.78-15.72-9.12-15.72s-9.12,4.74-9.12,15.72,3.78,15.96,9.12,15.96,9.12-4.98,9.12-15.96ZM271.7,501.28c0-2.46,1.74-3.96,3.72-3.96s3.72,1.5,3.72,3.96-1.74,4.02-3.72,4.02-3.72-1.5-3.72-4.02Z"/>
    <path class="cls-1" d="M311.72,501.7c0-12.84,5.22-19.74,13.74-19.74s13.74,6.9,13.74,19.74-5.22,19.98-13.74,19.98-13.74-7.26-13.74-19.98ZM334.58,501.7c0-10.98-3.78-15.72-9.12-15.72s-9.12,4.74-9.12,15.72,3.78,15.96,9.12,15.96,9.12-4.98,9.12-15.96ZM321.74,501.28c0-2.46,1.74-3.96,3.72-3.96s3.72,1.5,3.72,3.96-1.74,4.02-3.72,4.02-3.72-1.5-3.72-4.02Z"/>
    <path class="cls-1" d="M363.32,516.82h11.04v-28.08h-8.58v-3.24c4.5-.6,7.38-1.5,9.84-2.82h3.72v34.14h9.96v4.14h-25.98v-4.14Z"/>
    <path class="cls-1" d="M413.36,516.82h11.04v-28.08h-8.58v-3.24c4.5-.6,7.38-1.5,9.84-2.82h3.72v34.14h9.96v4.14h-25.98v-4.14Z"/>
    <path class="cls-1" d="M463.4,516.82h11.04v-28.08h-8.58v-3.24c4.5-.6,7.38-1.5,9.84-2.82h3.72v34.14h9.96v4.14h-25.98v-4.14Z"/>
    <path class="cls-1" d="M513.44,516.82h11.04v-28.08h-8.58v-3.24c4.5-.6,7.38-1.5,9.84-2.82h3.72v34.14h9.96v4.14h-25.98v-4.14Z"/>
    <path class="cls-1" d="M563.48,516.82h11.04v-28.08h-8.58v-3.24c4.5-.6,7.38-1.5,9.84-2.82h3.72v34.14h9.96v4.14h-25.98v-4.14Z"/>
    <path class="cls-1" d="M613.51,516.82h11.04v-28.08h-8.58v-3.24c4.5-.6,7.38-1.5,9.84-2.82h3.72v34.14h9.96v4.14h-25.98v-4.14Z"/>
    <path class="cls-1" d="M663.55,516.82h11.04v-28.08h-8.58v-3.24c4.5-.6,7.38-1.5,9.84-2.82h3.72v34.14h9.96v4.14h-25.98v-4.14Z"/>
    <path class="cls-1" d="M713.59,516.82h11.04v-28.08h-8.58v-3.24c4.5-.6,7.38-1.5,9.84-2.82h3.72v34.14h9.96v4.14h-25.98v-4.14Z"/>
    <path class="cls-1" d="M763.63,516.82h11.04v-28.08h-8.58v-3.24c4.5-.6,7.38-1.5,9.84-2.82h3.72v34.14h9.96v4.14h-25.98v-4.14Z"/>
    <path class="cls-1" d="M812.11,501.7c0-12.84,5.22-19.74,13.74-19.74s13.74,6.9,13.74,19.74-5.22,19.98-13.74,19.98-13.74-7.26-13.74-19.98ZM834.96,501.7c0-10.98-3.78-15.72-9.12-15.72s-9.12,4.74-9.12,15.72,3.78,15.96,9.12,15.96,9.12-4.98,9.12-15.96ZM822.12,501.28c0-2.46,1.74-3.96,3.72-3.96s3.72,1.5,3.72,3.96-1.74,4.02-3.72,4.02-3.72-1.5-3.72-4.02Z"/>
    <path class="cls-1" d="M862.14,501.7c0-12.84,5.22-19.74,13.74-19.74s13.74,6.9,13.74,19.74-5.22,19.98-13.74,19.98-13.74-7.26-13.74-19.98ZM885,501.7c0-10.98-3.78-15.72-9.12-15.72s-9.12,4.74-9.12,15.72,3.78,15.96,9.12,15.96,9.12-4.98,9.12-15.96ZM872.16,501.28c0-2.46,1.74-3.96,3.72-3.96s3.72,1.5,3.72,3.96-1.74,4.02-3.72,4.02-3.72-1.5-3.72-4.02Z"/>
    <path class="cls-1" d="M912.18,501.7c0-12.84,5.22-19.74,13.74-19.74s13.74,6.9,13.74,19.74-5.22,19.98-13.74,19.98-13.74-7.26-13.74-19.98ZM935.04,501.7c0-10.98-3.78-15.72-9.12-15.72s-9.12,4.74-9.12,15.72,3.78,15.96,9.12,15.96,9.12-4.98,9.12-15.96ZM922.2,501.28c0-2.46,1.74-3.96,3.72-3.96s3.72,1.5,3.72,3.96-1.74,4.02-3.72,4.02-3.72-1.5-3.72-4.02Z"/>
    <path class="cls-1" d="M963.78,516.82h11.04v-28.08h-8.58v-3.24c4.5-.6,7.38-1.5,9.84-2.82h3.72v34.14h9.96v4.14h-25.98v-4.14Z"/>
    <path class="cls-1" d="M1012.26,501.7c0-12.84,5.22-19.74,13.74-19.74s13.74,6.9,13.74,19.74-5.22,19.98-13.74,19.98-13.74-7.26-13.74-19.98ZM1035.12,501.7c0-10.98-3.78-15.72-9.12-15.72s-9.12,4.74-9.12,15.72,3.78,15.96,9.12,15.96,9.12-4.98,9.12-15.96ZM1022.28,501.28c0-2.46,1.74-3.96,3.72-3.96s3.72,1.5,3.72,3.96-1.74,4.02-3.72,4.02-3.72-1.5-3.72-4.02Z"/>
    <path class="cls-1" d="M1063.86,516.82h11.04v-28.08h-8.58v-3.24c4.5-.6,7.38-1.5,9.84-2.82h3.72v34.14h9.96v4.14h-25.98v-4.14Z"/>
    <path class="cls-1" d="M1112.33,501.7c0-12.84,5.22-19.74,13.74-19.74s13.74,6.9,13.74,19.74-5.22,19.98-13.74,19.98-13.74-7.26-13.74-19.98ZM1135.19,501.7c0-10.98-3.78-15.72-9.12-15.72s-9.12,4.74-9.12,15.72,3.78,15.96,9.12,15.96,9.12-4.98,9.12-15.96ZM1122.35,501.28c0-2.46,1.74-3.96,3.72-3.96s3.72,1.5,3.72,3.96-1.74,4.02-3.72,4.02-3.72-1.5-3.72-4.02Z"/>
    <path class="cls-1" d="M1163.93,516.82h11.04v-28.08h-8.58v-3.24c4.5-.6,7.38-1.5,9.84-2.82h3.72v34.14h9.96v4.14h-25.98v-4.14Z"/>
    <path class="cls-1" d="M1212.41,501.7c0-12.84,5.22-19.74,13.74-19.74s13.74,6.9,13.74,19.74-5.22,19.98-13.74,19.98-13.74-7.26-13.74-19.98ZM1235.27,501.7c0-10.98-3.78-15.72-9.12-15.72s-9.12,4.74-9.12,15.72,3.78,15.96,9.12,15.96,9.12-4.98,9.12-15.96ZM1222.43,501.28c0-2.46,1.74-3.96,3.72-3.96s3.72,1.5,3.72,3.96-1.74,4.02-3.72,4.02-3.72-1.5-3.72-4.02Z"/>
    <path class="cls-1" d="M1264.01,516.82h11.04v-28.08h-8.58v-3.24c4.5-.6,7.38-1.5,9.84-2.82h3.72v34.14h9.96v4.14h-25.98v-4.14Z"/>
  </g>
  <g class="cls-2">
    <path class="cls-1" d="M13.05,577.41h11.04v-28.08h-8.58v-3.24c4.5-.6,7.38-1.5,9.84-2.82h3.72v34.14h9.96v4.14H13.05v-4.14Z"/>
    <path class="cls-1" d="M61.53,562.29c0-12.84,5.22-19.74,13.74-19.74s13.74,6.9,13.74,19.74-5.22,19.98-13.74,19.98-13.74-7.26-13.74-19.98ZM84.39,562.29c0-10.98-3.78-15.72-9.12-15.72s-9.12,4.74-9.12,15.72,3.78,15.96,9.12,15.96,9.12-4.98,9.12-15.96ZM71.55,561.87c0-2.46,1.74-3.96,3.72-3.96s3.72,1.5,3.72,3.96-1.74,4.02-3.72,4.02-3.72-1.5-3.72-4.02Z"/>
    <path class="cls-1" d="M113.13,577.41h11.04v-28.08h-8.58v-3.24c4.5-.6,7.38-1.5,9.84-2.82h3.72v34.14h9.96v4.14h-25.98v-4.14Z"/>
    <path class="cls-1" d="M161.61,562.29c0-12.84,5.22-19.74,13.74-19.74s13.74,6.9,13.74,19.74-5.22,19.98-13.74,19.98-13.74-7.26-13.74-19.98ZM184.47,562.29c0-10.98-3.78-15.72-9.12-15.72s-9.12,4.74-9.12,15.72,3.78,15.96,9.12,15.96,9.12-4.98,9.12-15.96ZM171.63,561.87c0-2.46,1.74-3.96,3.72-3.96s3.72,1.5,3.72,3.96-1.74,4.02-3.72,4.02-3.72-1.5-3.72-4.02Z"/>
    <path class="cls-1" d="M213.21,577.41h11.04v-28.08h-8.58v-3.24c4.5-.6,7.38-1.5,9.84-2.82h3.72v34.14h9.96v4.14h-25.98v-4.14Z"/>
    <path class="cls-1" d="M261.68,562.29c0-12.84,5.22-19.74,13.74-19.74s13.74,6.9,13.74,19.74-5.22,19.98-13.74,19.98-13.74-7.26-13.74-19.98ZM284.54,562.29c0-10.98-3.78-15.72-9.12-15.72s-9.12,4.74-9.12,15.72,3.78,15.96,9.12,15.96,9.12-4.98,9.12-15.96ZM271.7,561.87c0-2.46,1.74-3.96,3.72-3.96s3.72,1.5,3.72,3.96-1.74,4.02-3.72,4.02-3.72-1.5-3.72-4.02Z"/>
    <path class="cls-1" d="M311.72,562.29c0-12.84,5.22-19.74,13.74-19.74s13.74,6.9,13.74,19.74-5.22,19.98-13.74,19.98-13.74-7.26-13.74-19.98ZM334.58,562.29c0-10.98-3.78-15.72-9.12-15.72s-9.12,4.74-9.12,15.72,3.78,15.96,9.12,15.96,9.12-4.98,9.12-15.96ZM321.74,561.87c0-2.46,1.74-3.96,3.72-3.96s3.72,1.5,3.72,3.96-1.74,4.02-3.72,4.02-3.72-1.5-3.72-4.02Z"/>
    <path class="cls-1" d="M363.32,577.41h11.04v-28.08h-8.58v-3.24c4.5-.6,7.38-1.5,9.84-2.82h3.72v34.14h9.96v4.14h-25.98v-4.14Z"/>
    <path class="cls-1" d="M413.36,577.41h11.04v-28.08h-8.58v-3.24c4.5-.6,7.38-1.5,9.84-2.82h3.72v34.14h9.96v4.14h-25.98v-4.14Z"/>
    <path class="cls-1" d="M461.84,562.29c0-12.84,5.22-19.74,13.74-19.74s13.74,6.9,13.74,19.74-5.22,19.98-13.74,19.98-13.74-7.26-13.74-19.98ZM484.7,562.29c0-10.98-3.78-15.72-9.12-15.72s-9.12,4.74-9.12,15.72,3.78,15.96,9.12,15.96,9.12-4.98,9.12-15.96ZM471.86,561.87c0-2.46,1.74-3.96,3.72-3.96s3.72,1.5,3.72,3.96-1.74,4.02-3.72,4.02-3.72-1.5-3.72-4.02Z"/>
    <path class="cls-1" d="M511.88,562.29c0-12.84,5.22-19.74,13.74-19.74s13.74,6.9,13.74,19.74-5.22,19.98-13.74,19.98-13.74-7.26-13.74-19.98ZM534.74,562.29c0-10.98-3.78-15.72-9.12-15.72s-9.12,4.74-9.12,15.72,3.78,15.96,9.12,15.96,9.12-4.98,9.12-15.96ZM521.9,561.87c0-2.46,1.74-3.96,3.72-3.96s3.72,1.5,3.72,3.96-1.74,4.02-3.72,4.02-3.72-1.5-3.72-4.02Z"/>
    <path class="cls-1" d="M563.48,577.41h11.04v-28.08h-8.58v-3.24c4.5-.6,7.38-1.5,9.84-2.82h3.72v34.14h9.96v4.14h-25.98v-4.14Z"/>
    <path class="cls-1" d="M611.95,562.29c0-12.84,5.22-19.74,13.74-19.74s13.74,6.9,13.74,19.74-5.22,19.98-13.74,19.98-13.74-7.26-13.74-19.98ZM634.81,562.29c0-10.98-3.78-15.72-9.12-15.72s-9.12,4.74-9.12,15.72,3.78,15.96,9.12,15.96,9.12-4.98,9.12-15.96ZM621.97,561.87c0-2.46,1.74-3.96,3.72-3.96s3.72,1.5,3.72,3.96-1.74,4.02-3.72,4.02-3.72-1.5-3.72-4.02Z"/>
    <path class="cls-1" d="M663.55,577.41h11.04v-28.08h-8.58v-3.24c4.5-.6,7.38-1.5,9.84-2.82h3.72v34.14h9.96v4.14h-25.98v-4.14Z"/>
    <path class="cls-1" d="M712.03,562.29c0-12.84,5.22-19.74,13.74-19.74s13.74,6.9,13.74,19.74-5.22,19.98-13.74,19.98-13.74-7.26-13.74-19.98ZM734.89,562.29c0-10.98-3.78-15.72-9.12-15.72s-9.12,4.74-9.12,15.72,3.78,15.96,9.12,15.96,9.12-4.98,9.12-15.96ZM722.05,561.87c0-2.46,1.74-3.96,3.72-3.96s3.72,1.5,3.72,3.96-1.74,4.02-3.72,4.02-3.72-1.5-3.72-4.02Z"/>
    <path class="cls-1" d="M763.63,577.41h11.04v-28.08h-8.58v-3.24c4.5-.6,7.38-1.5,9.84-2.82h3.72v34.14h9.96v4.14h-25.98v-4.14Z"/>
    <path class="cls-1" d="M812.11,562.29c0-12.84,5.22-19.74,13.74-19.74s13.74,6.9,13.74,19.74-5.22,19.98-13.74,19.98-13.74-7.26-13.74-19.98ZM834.96,562.29c0-10.98-3.78-15.72-9.12-15.72s-9.12,4.74-9.12,15.72,3.78,15.96,9.12,15.96,9.12-4.98,9.12-15.96ZM822.12,561.87c0-2.46,1.74-3.96,3.72-3.96s3.72,1.5,3.72,3.96-1.74,4.02-3.72,4.02-3.72-1.5-3.72-4.02Z"/>
    <path class="cls-1" d="M863.7,577.41h11.04v-28.08h-8.58v-3.24c4.5-.6,7.38-1.5,9.84-2.82h3.72v34.14h9.96v4.14h-25.98v-4.14Z"/>
    <path class="cls-1" d="M912.18,562.29c0-12.84,5.22-19.74,13.74-19.74s13.74,6.9,13.74,19.74-5.22,19.98-13.74,19.98-13.74-7.26-13.74-19.98ZM935.04,562.29c0-10.98-3.78-15.72-9.12-15.72s-9.12,4.74-9.12,15.72,3.78,15.96,9.12,15.96,9.12-4.98,9.12-15.96ZM922.2,561.87c0-2.46,1.74-3.96,3.72-3.96s3.72,1.5,3.72,3.96-1.74,4.02-3.72,4.02-3.72-1.5-3.72-4.02Z"/>
    <path class="cls-1" d="M962.22,562.29c0-12.84,5.22-19.74,13.74-19.74s13.74,6.9,13.74,19.74-5.22,19.98-13.74,19.98-13.74-7.26-13.74-19.98ZM985.08,562.29c0-10.98-3.78-15.72-9.12-15.72s-9.12,4.74-9.12,15.72,3.78,15.96,9.12,15.96,9.12-4.98,9.12-15.96ZM972.24,561.87c0-2.46,1.74-3.96,3.72-3.96s3.72,1.5,3.72,3.96-1.74,4.02-3.72,4.02-3.72-1.5-3.72-4.02Z"/>
    <path class="cls-1" d="M1013.82,577.41h11.04v-28.08h-8.58v-3.24c4.5-.6,7.38-1.5,9.84-2.82h3.72v34.14h9.96v4.14h-25.98v-4.14Z"/>
    <path class="cls-1" d="M1063.86,577.41h11.04v-28.08h-8.58v-3.24c4.5-.6,7.38-1.5,9.84-2.82h3.72v34.14h9.96v4.14h-25.98v-4.14Z"/>
    <path class="cls-1" d="M1112.33,562.29c0-12.84,5.22-19.74,13.74-19.74s13.74,6.9,13.74,19.74-5.22,19.98-13.74,19.98-13.74-7.26-13.74-19.98ZM1135.19,562.29c0-10.98-3.78-15.72-9.12-15.72s-9.12,4.74-9.12,15.72,3.78,15.96,9.12,15.96,9.12-4.98,9.12-15.96ZM1122.35,561.87c0-2.46,1.74-3.96,3.72-3.96s3.72,1.5,3.72,3.96-1.74,4.02-3.72,4.02-3.72-1.5-3.72-4.02Z"/>
    <path class="cls-1" d="M1162.37,562.29c0-12.84,5.22-19.74,13.74-19.74s13.74,6.9,13.74,19.74-5.22,19.98-13.74,19.98-13.74-7.26-13.74-19.98ZM1185.23,562.29c0-10.98-3.78-15.72-9.12-15.72s-9.12,4.74-9.12,15.72,3.78,15.96,9.12,15.96,9.12-4.98,9.12-15.96ZM1172.39,561.87c0-2.46,1.74-3.96,3.72-3.96s3.72,1.5,3.72,3.96-1.74,4.02-3.72,4.02-3.72-1.5-3.72-4.02Z"/>
    <path class="cls-1" d="M1213.97,577.41h11.04v-28.08h-8.58v-3.24c4.5-.6,7.38-1.5,9.84-2.82h3.72v34.14h9.96v4.14h-25.98v-4.14Z"/>
    <path class="cls-1" d="M1264.01,577.41h11.04v-28.08h-8.58v-3.24c4.5-.6,7.38-1.5,9.84-2.82h3.72v34.14h9.96v4.14h-25.98v-4.14Z"/>
  </g>
  <g class="cls-2">
    <path class="cls-1" d="M13.05,638.67h11.04v-28.08h-8.58v-3.24c4.5-.6,7.38-1.5,9.84-2.82h3.72v34.14h9.96v4.14H13.05v-4.14Z"/>
    <path class="cls-1" d="M63.09,638.67h11.04v-28.08h-8.58v-3.24c4.5-.6,7.38-1.5,9.84-2.82h3.72v34.14h9.96v4.14h-25.98v-4.14Z"/>
    <path class="cls-1" d="M113.13,638.67h11.04v-28.08h-8.58v-3.24c4.5-.6,7.38-1.5,9.84-2.82h3.72v34.14h9.96v4.14h-25.98v-4.14Z"/>
    <path class="cls-1" d="M161.61,623.55c0-12.84,5.22-19.74,13.74-19.74s13.74,6.9,13.74,19.74-5.22,19.98-13.74,19.98-13.74-7.26-13.74-19.98ZM184.47,623.55c0-10.98-3.78-15.72-9.12-15.72s-9.12,4.74-9.12,15.72,3.78,15.96,9.12,15.96,9.12-4.98,9.12-15.96ZM171.63,623.13c0-2.46,1.74-3.96,3.72-3.96s3.72,1.5,3.72,3.96-1.74,4.02-3.72,4.02-3.72-1.5-3.72-4.02Z"/>
    <path class="cls-1" d="M213.21,638.67h11.04v-28.08h-8.58v-3.24c4.5-.6,7.38-1.5,9.84-2.82h3.72v34.14h9.96v4.14h-25.98v-4.14Z"/>
    <path class="cls-1" d="M261.68,623.55c0-12.84,5.22-19.74,13.74-19.74s13.74,6.9,13.74,19.74-5.22,19.98-13.74,19.98-13.74-7.26-13.74-19.98ZM284.54,623.55c0-10.98-3.78-15.72-9.12-15.72s-9.12,4.74-9.12,15.72,3.78,15.96,9.12,15.96,9.12-4.98,9.12-15.96ZM271.7,623.13c0-2.46,1.74-3.96,3.72-3.96s3.72,1.5,3.72,3.96-1.74,4.02-3.72,4.02-3.72-1.5-3.72-4.02Z"/>
    <path class="cls-1" d="M311.72,623.55c0-12.84,5.22-19.74,13.74-19.74s13.74,6.9,13.74,19.74-5.22,19.98-13.74,19.98-13.74-7.26-13.74-19.98ZM334.58,623.55c0-10.98-3.78-15.72-9.12-15.72s-9.12,4.74-9.12,15.72,3.78,15.96,9.12,15.96,9.12-4.98,9.12-15.96ZM321.74,623.13c0-2.46,1.74-3.96,3.72-3.96s3.72,1.5,3.72,3.96-1.74,4.02-3.72,4.02-3.72-1.5-3.72-4.02Z"/>
    <path class="cls-1" d="M363.32,638.67h11.04v-28.08h-8.58v-3.24c4.5-.6,7.38-1.5,9.84-2.82h3.72v34.14h9.96v4.14h-25.98v-4.14Z"/>
    <path class="cls-1" d="M411.8,623.55c0-12.84,5.22-19.74,13.74-19.74s13.74,6.9,13.74,19.74-5.22,19.98-13.74,19.98-13.74-7.26-13.74-19.98ZM434.66,623.55c0-10.98-3.78-15.72-9.12-15.72s-9.12,4.74-9.12,15.72,3.78,15.96,9.12,15.96,9.12-4.98,9.12-15.96ZM421.82,623.13c0-2.46,1.74-3.96,3.72-3.96s3.72,1.5,3.72,3.96-1.74,4.02-3.72,4.02-3.72-1.5-3.72-4.02Z"/>
    <path class="cls-1" d="M463.4,638.67h11.04v-28.08h-8.58v-3.24c4.5-.6,7.38-1.5,9.84-2.82h3.72v34.14h9.96v4.14h-25.98v-4.14Z"/>
    <path class="cls-1" d="M511.88,623.55c0-12.84,5.22-19.74,13.74-19.74s13.74,6.9,13.74,19.74-5.22,19.98-13.74,19.98-13.74-7.26-13.74-19.98ZM534.74,623.55c0-10.98-3.78-15.72-9.12-15.72s-9.12,4.74-9.12,15.72,3.78,15.96,9.12,15.96,9.12-4.98,9.12-15.96ZM521.9,623.13c0-2.46,1.74-3.96,3.72-3.96s3.72,1.5,3.72,3.96-1.74,4.02-3.72,4.02-3.72-1.5-3.72-4.02Z"/>
    <path class="cls-1" d="M561.92,623.55c0-12.84,5.22-19.74,13.74-19.74s13.74,6.9,13.74,19.74-5.22,19.98-13.74,19.98-13.74-7.26-13.74-19.98ZM584.77,623.55c0-10.98-3.78-15.72-9.12-15.72s-9.12,4.74-9.12,15.72,3.78,15.96,9.12,15.96,9.12-4.98,9.12-15.96ZM571.94,623.13c0-2.46,1.74-3.96,3.72-3.96s3.72,1.5,3.72,3.96-1.74,4.02-3.72,4.02-3.72-1.5-3.72-4.02Z"/>
    <path class="cls-1" d="M613.51,638.67h11.04v-28.08h-8.58v-3.24c4.5-.6,7.38-1.5,9.84-2.82h3.72v34.14h9.96v4.14h-25.98v-4.14Z"/>
    <path class="cls-1" d="M661.99,623.55c0-12.84,5.22-19.74,13.74-19.74s13.74,6.9,13.74,19.74-5.22,19.98-13.74,19.98-13.74-7.26-13.74-19.98ZM684.85,623.55c0-10.98-3.78-15.72-9.12-15.72s-9.12,4.74-9.12,15.72,3.78,15.96,9.12,15.96,9.12-4.98,9.12-15.96ZM672.01,623.13c0-2.46,1.74-3.96,3.72-3.96s3.72,1.5,3.72,3.96-1.74,4.02-3.72,4.02-3.72-1.5-3.72-4.02Z"/>
    <path class="cls-1" d="M713.59,638.67h11.04v-28.08h-8.58v-3.24c4.5-.6,7.38-1.5,9.84-2.82h3.72v34.14h9.96v4.14h-25.98v-4.14Z"/>
    <path class="cls-1" d="M762.07,623.55c0-12.84,5.22-19.74,13.74-19.74s13.74,6.9,13.74,19.74-5.22,19.98-13.74,19.98-13.74-7.26-13.74-19.98ZM784.93,623.55c0-10.98-3.78-15.72-9.12-15.72s-9.12,4.74-9.12,15.72,3.78,15.96,9.12,15.96,9.12-4.98,9.12-15.96ZM772.09,623.13c0-2.46,1.74-3.96,3.72-3.96s3.72,1.5,3.72,3.96-1.74,4.02-3.72,4.02-3.72-1.5-3.72-4.02Z"/>
    <path class="cls-1" d="M813.67,638.67h11.04v-28.08h-8.58v-3.24c4.5-.6,7.38-1.5,9.84-2.82h3.72v34.14h9.96v4.14h-25.98v-4.14Z"/>
    <path class="cls-1" d="M862.14,623.55c0-12.84,5.22-19.74,13.74-19.74s13.74,6.9,13.74,19.74-5.22,19.98-13.74,19.98-13.74-7.26-13.74-19.98ZM885,623.55c0-10.98-3.78-15.72-9.12-15.72s-9.12,4.74-9.12,15.72,3.78,15.96,9.12,15.96,9.12-4.98,9.12-15.96ZM872.16,623.13c0-2.46,1.74-3.96,3.72-3.96s3.72,1.5,3.72,3.96-1.74,4.02-3.72,4.02-3.72-1.5-3.72-4.02Z"/>
    <path class="cls-1" d="M913.74,638.67h11.04v-28.08h-8.58v-3.24c4.5-.6,7.38-1.5,9.84-2.82h3.72v34.14h9.96v4.14h-25.98v-4.14Z"/>
    <path class="cls-1" d="M962.22,623.55c0-12.84,5.22-19.74,13.74-19.74s13.74,6.9,13.74,19.74-5.22,19.98-13.74,19.98-13.74-7.26-13.74-19.98ZM985.08,623.55c0-10.98-3.78-15.72-9.12-15.72s-9.12,4.74-9.12,15.72,3.78,15.96,9.12,15.96,9.12-4.98,9.12-15.96ZM972.24,623.13c0-2.46,1.74-3.96,3.72-3.96s3.72,1.5,3.72,3.96-1.74,4.02-3.72,4.02-3.72-1.5-3.72-4.02Z"/>
    <path class="cls-1" d="M1013.82,638.67h11.04v-28.08h-8.58v-3.24c4.5-.6,7.38-1.5,9.84-2.82h3.72v34.14h9.96v4.14h-25.98v-4.14Z"/>
    <path class="cls-1" d="M1063.86,638.67h11.04v-28.08h-8.58v-3.24c4.5-.6,7.38-1.5,9.84-2.82h3.72v34.14h9.96v4.14h-25.98v-4.14Z"/>
    <path class="cls-1" d="M1112.33,623.55c0-12.84,5.22-19.74,13.74-19.74s13.74,6.9,13.74,19.74-5.22,19.98-13.74,19.98-13.74-7.26-13.74-19.98ZM1135.19,623.55c0-10.98-3.78-15.72-9.12-15.72s-9.12,4.74-9.12,15.72,3.78,15.96,9.12,15.96,9.12-4.98,9.12-15.96ZM1122.35,623.13c0-2.46,1.74-3.96,3.72-3.96s3.72,1.5,3.72,3.96-1.74,4.02-3.72,4.02-3.72-1.5-3.72-4.02Z"/>
    <path class="cls-1" d="M1163.93,638.67h11.04v-28.08h-8.58v-3.24c4.5-.6,7.38-1.5,9.84-2.82h3.72v34.14h9.96v4.14h-25.98v-4.14Z"/>
    <path class="cls-1" d="M1213.97,638.67h11.04v-28.08h-8.58v-3.24c4.5-.6,7.38-1.5,9.84-2.82h3.72v34.14h9.96v4.14h-25.98v-4.14Z"/>
    <path class="cls-1" d="M1264.01,638.67h11.04v-28.08h-8.58v-3.24c4.5-.6,7.38-1.5,9.84-2.82h3.72v34.14h9.96v4.14h-25.98v-4.14Z"/>
  </g>
  <g class="cls-2">
    <path class="cls-1" d="M11.49,679.83c0-12.84,5.22-19.74,13.74-19.74s13.74,6.9,13.74,19.74-5.22,19.98-13.74,19.98-13.74-7.26-13.74-19.98ZM34.35,679.83c0-10.98-3.78-15.72-9.12-15.72s-9.12,4.74-9.12,15.72,3.78,15.96,9.12,15.96,9.12-4.98,9.12-15.96ZM21.51,679.41c0-2.46,1.74-3.96,3.72-3.96s3.72,1.5,3.72,3.96-1.74,4.02-3.72,4.02-3.72-1.5-3.72-4.02Z"/>
    <path class="cls-1" d="M61.53,679.83c0-12.84,5.22-19.74,13.74-19.74s13.74,6.9,13.74,19.74-5.22,19.98-13.74,19.98-13.74-7.26-13.74-19.98ZM84.39,679.83c0-10.98-3.78-15.72-9.12-15.72s-9.12,4.74-9.12,15.72,3.78,15.96,9.12,15.96,9.12-4.98,9.12-15.96ZM71.55,679.41c0-2.46,1.74-3.96,3.72-3.96s3.72,1.5,3.72,3.96-1.74,4.02-3.72,4.02-3.72-1.5-3.72-4.02Z"/>
    <path class="cls-1" d="M111.57,679.83c0-12.84,5.22-19.74,13.74-19.74s13.74,6.9,13.74,19.74-5.22,19.98-13.74,19.98-13.74-7.26-13.74-19.98ZM134.43,679.83c0-10.98-3.78-15.72-9.12-15.72s-9.12,4.74-9.12,15.72,3.78,15.96,9.12,15.96,9.12-4.98,9.12-15.96ZM121.59,679.41c0-2.46,1.74-3.96,3.72-3.96s3.72,1.5,3.72,3.96-1.74,4.02-3.72,4.02-3.72-1.5-3.72-4.02Z"/>
    <path class="cls-1" d="M161.61,679.83c0-12.84,5.22-19.74,13.74-19.74s13.74,6.9,13.74,19.74-5.22,19.98-13.74,19.98-13.74-7.26-13.74-19.98ZM184.47,679.83c0-10.98-3.78-15.72-9.12-15.72s-9.12,4.74-9.12,15.72,3.78,15.96,9.12,15.96,9.12-4.98,9.12-15.96ZM171.63,679.41c0-2.46,1.74-3.96,3.72-3.96s3.72,1.5,3.72,3.96-1.74,4.02-3.72,4.02-3.72-1.5-3.72-4.02Z"/>
    <path class="cls-1" d="M211.65,679.83c0-12.84,5.22-19.74,13.74-19.74s13.74,6.9,13.74,19.74-5.22,19.98-13.74,19.98-13.74-7.26-13.74-19.98ZM234.5,679.83c0-10.98-3.78-15.72-9.12-15.72s-9.12,4.74-9.12,15.72,3.78,15.96,9.12,15.96,9.12-4.98,9.12-15.96ZM221.66,679.41c0-2.46,1.74-3.96,3.72-3.96s3.72,1.5,3.72,3.96-1.74,4.02-3.72,4.02-3.72-1.5-3.72-4.02Z"/>
    <path class="cls-1" d="M261.68,679.83c0-12.84,5.22-19.74,13.74-19.74s13.74,6.9,13.74,19.74-5.22,19.98-13.74,19.98-13.74-7.26-13.74-19.98ZM284.54,679.83c0-10.98-3.78-15.72-9.12-15.72s-9.12,4.74-9.12,15.72,3.78,15.96,9.12,15.96,9.12-4.98,9.12-15.96ZM271.7,679.41c0-2.46,1.74-3.96,3.72-3.96s3.72,1.5,3.72,3.96-1.74,4.02-3.72,4.02-3.72-1.5-3.72-4.02Z"/>
    <path class="cls-1" d="M311.72,679.83c0-12.84,5.22-19.74,13.74-19.74s13.74,6.9,13.74,19.74-5.22,19.98-13.74,19.98-13.74-7.26-13.74-19.98ZM334.58,679.83c0-10.98-3.78-15.72-9.12-15.72s-9.12,4.74-9.12,15.72,3.78,15.96,9.12,15.96,9.12-4.98,9.12-15.96ZM321.74,679.41c0-2.46,1.74-3.96,3.72-3.96s3.72,1.5,3.72,3.96-1.74,4.02-3.72,4.02-3.72-1.5-3.72-4.02Z"/>
    <path class="cls-1" d="M361.76,679.83c0-12.84,5.22-19.74,13.74-19.74s13.74,6.9,13.74,19.74-5.22,19.98-13.74,19.98-13.74-7.26-13.74-19.98ZM384.62,679.83c0-10.98-3.78-15.72-9.12-15.72s-9.12,4.74-9.12,15.72,3.78,15.96,9.12,15.96,9.12-4.98,9.12-15.96ZM371.78,679.41c0-2.46,1.74-3.96,3.72-3.96s3.72,1.5,3.72,3.96-1.74,4.02-3.72,4.02-3.72-1.5-3.72-4.02Z"/>
    <path class="cls-1" d="M411.8,679.83c0-12.84,5.22-19.74,13.74-19.74s13.74,6.9,13.74,19.74-5.22,19.98-13.74,19.98-13.74-7.26-13.74-19.98ZM434.66,679.83c0-10.98-3.78-15.72-9.12-15.72s-9.12,4.74-9.12,15.72,3.78,15.96,9.12,15.96,9.12-4.98,9.12-15.96ZM421.82,679.41c0-2.46,1.74-3.96,3.72-3.96s3.72,1.5,3.72,3.96-1.74,4.02-3.72,4.02-3.72-1.5-3.72-4.02Z"/>
    <path class="cls-1" d="M461.84,679.83c0-12.84,5.22-19.74,13.74-19.74s13.74,6.9,13.74,19.74-5.22,19.98-13.74,19.98-13.74-7.26-13.74-19.98ZM484.7,679.83c0-10.98-3.78-15.72-9.12-15.72s-9.12,4.74-9.12,15.72,3.78,15.96,9.12,15.96,9.12-4.98,9.12-15.96ZM471.86,679.41c0-2.46,1.74-3.96,3.72-3.96s3.72,1.5,3.72,3.96-1.74,4.02-3.72,4.02-3.72-1.5-3.72-4.02Z"/>
    <path class="cls-1" d="M513.44,694.95h11.04v-28.08h-8.58v-3.24c4.5-.6,7.38-1.5,9.84-2.82h3.72v34.14h9.96v4.14h-25.98v-4.14Z"/>
    <path class="cls-1" d="M563.48,694.95h11.04v-28.08h-8.58v-3.24c4.5-.6,7.38-1.5,9.84-2.82h3.72v34.14h9.96v4.14h-25.98v-4.14Z"/>
    <path class="cls-1" d="M613.51,694.95h11.04v-28.08h-8.58v-3.24c4.5-.6,7.38-1.5,9.84-2.82h3.72v34.14h9.96v4.14h-25.98v-4.14Z"/>
    <path class="cls-1" d="M663.55,694.95h11.04v-28.08h-8.58v-3.24c4.5-.6,7.38-1.5,9.84-2.82h3.72v34.14h9.96v4.14h-25.98v-4.14Z"/>
    <path class="cls-1" d="M713.59,694.95h11.04v-28.08h-8.58v-3.24c4.5-.6,7.38-1.5,9.84-2.82h3.72v34.14h9.96v4.14h-25.98v-4.14Z"/>
    <path class="cls-1" d="M763.63,694.95h11.04v-28.08h-8.58v-3.24c4.5-.6,7.38-1.5,9.84-2.82h3.72v34.14h9.96v4.14h-25.98v-4.14Z"/>
    <path class="cls-1" d="M813.67,694.95h11.04v-28.08h-8.58v-3.24c4.5-.6,7.38-1.5,9.84-2.82h3.72v34.14h9.96v4.14h-25.98v-4.14Z"/>
    <path class="cls-1" d="M863.7,694.95h11.04v-28.08h-8.58v-3.24c4.5-.6,7.38-1.5,9.84-2.82h3.72v34.14h9.96v4.14h-25.98v-4.14Z"/>
    <path class="cls-1" d="M913.74,694.95h11.04v-28.08h-8.58v-3.24c4.5-.6,7.38-1.5,9.84-2.82h3.72v34.14h9.96v4.14h-25.98v-4.14Z"/>
    <path class="cls-1" d="M963.78,694.95h11.04v-28.08h-8.58v-3.24c4.5-.6,7.38-1.5,9.84-2.82h3.72v34.14h9.96v4.14h-25.98v-4.14Z"/>
    <path class="cls-1" d="M1013.82,694.95h11.04v-28.08h-8.58v-3.24c4.5-.6,7.38-1.5,9.84-2.82h3.72v34.14h9.96v4.14h-25.98v-4.14Z"/>
    <path class="cls-1" d="M1063.86,694.95h11.04v-28.08h-8.58v-3.24c4.5-.6,7.38-1.5,9.84-2.82h3.72v34.14h9.96v4.14h-25.98v-4.14Z"/>
    <path class="cls-1" d="M1112.33,679.83c0-12.84,5.22-19.74,13.74-19.74s13.74,6.9,13.74,19.74-5.22,19.98-13.74,19.98-13.74-7.26-13.74-19.98ZM1135.19,679.83c0-10.98-3.78-15.72-9.12-15.72s-9.12,4.74-9.12,15.72,3.78,15.96,9.12,15.96,9.12-4.98,9.12-15.96ZM1122.35,679.41c0-2.46,1.74-3.96,3.72-3.96s3.72,1.5,3.72,3.96-1.74,4.02-3.72,4.02-3.72-1.5-3.72-4.02Z"/>
    <path class="cls-1" d="M1162.37,679.83c0-12.84,5.22-19.74,13.74-19.74s13.74,6.9,13.74,19.74-5.22,19.98-13.74,19.98-13.74-7.26-13.74-19.98ZM1185.23,679.83c0-10.98-3.78-15.72-9.12-15.72s-9.12,4.74-9.12,15.72,3.78,15.96,9.12,15.96,9.12-4.98,9.12-15.96ZM1172.39,679.41c0-2.46,1.74-3.96,3.72-3.96s3.72,1.5,3.72,3.96-1.74,4.02-3.72,4.02-3.72-1.5-3.72-4.02Z"/>
    <path class="cls-1" d="M1212.41,679.83c0-12.84,5.22-19.74,13.74-19.74s13.74,6.9,13.74,19.74-5.22,19.98-13.74,19.98-13.74-7.26-13.74-19.98ZM1235.27,679.83c0-10.98-3.78-15.72-9.12-15.72s-9.12,4.74-9.12,15.72,3.78,15.96,9.12,15.96,9.12-4.98,9.12-15.96ZM1222.43,679.41c0-2.46,1.74-3.96,3.72-3.96s3.72,1.5,3.72,3.96-1.74,4.02-3.72,4.02-3.72-1.5-3.72-4.02Z"/>
    <path class="cls-1" d="M1262.45,679.83c0-12.84,5.22-19.74,13.74-19.74s13.74,6.9,13.74,19.74-5.22,19.98-13.74,19.98-13.74-7.26-13.74-19.98ZM1285.31,679.83c0-10.98-3.78-15.72-9.12-15.72s-9.12,4.74-9.12,15.72,3.78,15.96,9.12,15.96,9.12-4.98,9.12-15.96ZM1272.47,679.41c0-2.46,1.74-3.96,3.72-3.96s3.72,1.5,3.72,3.96-1.74,4.02-3.72,4.02-3.72-1.5-3.72-4.02Z"/>
  </g>
  <g class="cls-2">
    <path class="cls-1" d="M13.05,755.19h11.04v-28.08h-8.58v-3.24c4.5-.6,7.38-1.5,9.84-2.82h3.72v34.14h9.96v4.14H13.05v-4.14Z"/>
    <path class="cls-1" d="M61.53,740.07c0-12.84,5.22-19.74,13.74-19.74s13.74,6.9,13.74,19.74-5.22,19.98-13.74,19.98-13.74-7.26-13.74-19.98ZM84.39,740.07c0-10.98-3.78-15.72-9.12-15.72s-9.12,4.74-9.12,15.72,3.78,15.96,9.12,15.96,9.12-4.98,9.12-15.96ZM71.55,739.65c0-2.46,1.74-3.96,3.72-3.96s3.72,1.5,3.72,3.96-1.74,4.02-3.72,4.02-3.72-1.5-3.72-4.02Z"/>
    <path class="cls-1" d="M113.13,755.19h11.04v-28.08h-8.58v-3.24c4.5-.6,7.38-1.5,9.84-2.82h3.72v34.14h9.96v4.14h-25.98v-4.14Z"/>
    <path class="cls-1" d="M161.61,740.07c0-12.84,5.22-19.74,13.74-19.74s13.74,6.9,13.74,19.74-5.22,19.98-13.74,19.98-13.74-7.26-13.74-19.98ZM184.47,740.07c0-10.98-3.78-15.72-9.12-15.72s-9.12,4.74-9.12,15.72,3.78,15.96,9.12,15.96,9.12-4.98,9.12-15.96ZM171.63,739.65c0-2.46,1.74-3.96,3.72-3.96s3.72,1.5,3.72,3.96-1.74,4.02-3.72,4.02-3.72-1.5-3.72-4.02Z"/>
    <path class="cls-1" d="M213.21,755.19h11.04v-28.08h-8.58v-3.24c4.5-.6,7.38-1.5,9.84-2.82h3.72v34.14h9.96v4.14h-25.98v-4.14Z"/>
    <path class="cls-1" d="M261.68,740.07c0-12.84,5.22-19.74,13.74-19.74s13.74,6.9,13.74,19.74-5.22,19.98-13.74,19.98-13.74-7.26-13.74-19.98ZM284.54,740.07c0-10.98-3.78-15.72-9.12-15.72s-9.12,4.74-9.12,15.72,3.78,15.96,9.12,15.96,9.12-4.98,9.12-15.96ZM271.7,739.65c0-2.46,1.74-3.96,3.72-3.96s3.72,1.5,3.72,3.96-1.74,4.02-3.72,4.02-3.72-1.5-3.72-4.02Z"/>
    <path class="cls-1" d="M313.28,755.19h11.04v-28.08h-8.58v-3.24c4.5-.6,7.38-1.5,9.84-2.82h3.72v34.14h9.96v4.14h-25.98v-4.14Z"/>
    <path class="cls-1" d="M361.76,740.07c0-12.84,5.22-19.74,13.74-19.74s13.74,6.9,13.74,19.74-5.22,19.98-13.74,19.98-13.74-7.26-13.74-19.98ZM384.62,740.07c0-10.98-3.78-15.72-9.12-15.72s-9.12,4.74-9.12,15.72,3.78,15.96,9.12,15.96,9.12-4.98,9.12-15.96ZM371.78,739.65c0-2.46,1.74-3.96,3.72-3.96s3.72,1.5,3.72,3.96-1.74,4.02-3.72,4.02-3.72-1.5-3.72-4.02Z"/>
    <path class="cls-1" d="M411.8,740.07c0-12.84,5.22-19.74,13.74-19.74s13.74,6.9,13.74,19.74-5.22,19.98-13.74,19.98-13.74-7.26-13.74-19.98ZM434.66,740.07c0-10.98-3.78-15.72-9.12-15.72s-9.12,4.74-9.12,15.72,3.78,15.96,9.12,15.96,9.12-4.98,9.12-15.96ZM421.82,739.65c0-2.46,1.74-3.96,3.72-3.96s3.72,1.5,3.72,3.96-1.74,4.02-3.72,4.02-3.72-1.5-3.72-4.02Z"/>
    <path class="cls-1" d="M461.84,740.07c0-12.84,5.22-19.74,13.74-19.74s13.74,6.9,13.74,19.74-5.22,19.98-13.74,19.98-13.74-7.26-13.74-19.98ZM484.7,740.07c0-10.98-3.78-15.72-9.12-15.72s-9.12,4.74-9.12,15.72,3.78,15.96,9.12,15.96,9.12-4.98,9.12-15.96ZM471.86,739.65c0-2.46,1.74-3.96,3.72-3.96s3.72,1.5,3.72,3.96-1.74,4.02-3.72,4.02-3.72-1.5-3.72-4.02Z"/>
    <path class="cls-1" d="M513.44,755.19h11.04v-28.08h-8.58v-3.24c4.5-.6,7.38-1.5,9.84-2.82h3.72v34.14h9.96v4.14h-25.98v-4.14Z"/>
    <path class="cls-1" d="M561.92,740.07c0-12.84,5.22-19.74,13.74-19.74s13.74,6.9,13.74,19.74-5.22,19.98-13.74,19.98-13.74-7.26-13.74-19.98ZM584.77,740.07c0-10.98-3.78-15.72-9.12-15.72s-9.12,4.74-9.12,15.72,3.78,15.96,9.12,15.96,9.12-4.98,9.12-15.96ZM571.94,739.65c0-2.46,1.74-3.96,3.72-3.96s3.72,1.5,3.72,3.96-1.74,4.02-3.72,4.02-3.72-1.5-3.72-4.02Z"/>
    <path class="cls-1" d="M611.95,740.07c0-12.84,5.22-19.74,13.74-19.74s13.74,6.9,13.74,19.74-5.22,19.98-13.74,19.98-13.74-7.26-13.74-19.98ZM634.81,740.07c0-10.98-3.78-15.72-9.12-15.72s-9.12,4.74-9.12,15.72,3.78,15.96,9.12,15.96,9.12-4.98,9.12-15.96ZM621.97,739.65c0-2.46,1.74-3.96,3.72-3.96s3.72,1.5,3.72,3.96-1.74,4.02-3.72,4.02-3.72-1.5-3.72-4.02Z"/>
    <path class="cls-1" d="M661.99,740.07c0-12.84,5.22-19.74,13.74-19.74s13.74,6.9,13.74,19.74-5.22,19.98-13.74,19.98-13.74-7.26-13.74-19.98ZM684.85,740.07c0-10.98-3.78-15.72-9.12-15.72s-9.12,4.74-9.12,15.72,3.78,15.96,9.12,15.96,9.12-4.98,9.12-15.96ZM672.01,739.65c0-2.46,1.74-3.96,3.72-3.96s3.72,1.5,3.72,3.96-1.74,4.02-3.72,4.02-3.72-1.5-3.72-4.02Z"/>
    <path class="cls-1" d="M713.59,755.19h11.04v-28.08h-8.58v-3.24c4.5-.6,7.38-1.5,9.84-2.82h3.72v34.14h9.96v4.14h-25.98v-4.14Z"/>
    <path class="cls-1" d="M762.07,740.07c0-12.84,5.22-19.74,13.74-19.74s13.74,6.9,13.74,19.74-5.22,19.98-13.74,19.98-13.74-7.26-13.74-19.98ZM784.93,740.07c0-10.98-3.78-15.72-9.12-15.72s-9.12,4.74-9.12,15.72,3.78,15.96,9.12,15.96,9.12-4.98,9.12-15.96ZM772.09,739.65c0-2.46,1.74-3.96,3.72-3.96s3.72,1.5,3.72,3.96-1.74,4.02-3.72,4.02-3.72-1.5-3.72-4.02Z"/>
    <path class="cls-1" d="M813.67,755.19h11.04v-28.08h-8.58v-3.24c4.5-.6,7.38-1.5,9.84-2.82h3.72v34.14h9.96v4.14h-25.98v-4.14Z"/>
    <path class="cls-1" d="M862.14,740.07c0-12.84,5.22-19.74,13.74-19.74s13.74,6.9,13.74,19.74-5.22,19.98-13.74,19.98-13.74-7.26-13.74-19.98ZM885,740.07c0-10.98-3.78-15.72-9.12-15.72s-9.12,4.74-9.12,15.72,3.78,15.96,9.12,15.96,9.12-4.98,9.12-15.96ZM872.16,739.65c0-2.46,1.74-3.96,3.72-3.96s3.72,1.5,3.72,3.96-1.74,4.02-3.72,4.02-3.72-1.5-3.72-4.02Z"/>
    <path class="cls-1" d="M913.74,755.19h11.04v-28.08h-8.58v-3.24c4.5-.6,7.38-1.5,9.84-2.82h3.72v34.14h9.96v4.14h-25.98v-4.14Z"/>
    <path class="cls-1" d="M962.22,740.07c0-12.84,5.22-19.74,13.74-19.74s13.74,6.9,13.74,19.74-5.22,19.98-13.74,19.98-13.74-7.26-13.74-19.98ZM985.08,740.07c0-10.98-3.78-15.72-9.12-15.72s-9.12,4.74-9.12,15.72,3.78,15.96,9.12,15.96,9.12-4.98,9.12-15.96ZM972.24,739.65c0-2.46,1.74-3.96,3.72-3.96s3.72,1.5,3.72,3.96-1.74,4.02-3.72,4.02-3.72-1.5-3.72-4.02Z"/>
    <path class="cls-1" d="M1013.82,755.19h11.04v-28.08h-8.58v-3.24c4.5-.6,7.38-1.5,9.84-2.82h3.72v34.14h9.96v4.14h-25.98v-4.14Z"/>
    <path class="cls-1" d="M1062.3,740.07c0-12.84,5.22-19.74,13.74-19.74s13.74,6.9,13.74,19.74-5.22,19.98-13.74,19.98-13.74-7.26-13.74-19.98ZM1085.16,740.07c0-10.98-3.78-15.72-9.12-15.72s-9.12,4.74-9.12,15.72,3.78,15.96,9.12,15.96,9.12-4.98,9.12-15.96ZM1072.32,739.65c0-2.46,1.74-3.96,3.72-3.96s3.72,1.5,3.72,3.96-1.74,4.02-3.72,4.02-3.72-1.5-3.72-4.02Z"/>
    <path class="cls-1" d="M1112.33,740.07c0-12.84,5.22-19.74,13.74-19.74s13.74,6.9,13.74,19.74-5.22,19.98-13.74,19.98-13.74-7.26-13.74-19.98ZM1135.19,740.07c0-10.98-3.78-15.72-9.12-15.72s-9.12,4.74-9.12,15.72,3.78,15.96,9.12,15.96,9.12-4.98,9.12-15.96ZM1122.35,739.65c0-2.46,1.74-3.96,3.72-3.96s3.72,1.5,3.72,3.96-1.74,4.02-3.72,4.02-3.72-1.5-3.72-4.02Z"/>
    <path class="cls-1" d="M1162.37,740.07c0-12.84,5.22-19.74,13.74-19.74s13.74,6.9,13.74,19.74-5.22,19.98-13.74,19.98-13.74-7.26-13.74-19.98ZM1185.23,740.07c0-10.98-3.78-15.72-9.12-15.72s-9.12,4.74-9.12,15.72,3.78,15.96,9.12,15.96,9.12-4.98,9.12-15.96ZM1172.39,739.65c0-2.46,1.74-3.96,3.72-3.96s3.72,1.5,3.72,3.96-1.74,4.02-3.72,4.02-3.72-1.5-3.72-4.02Z"/>
    <path class="cls-1" d="M1213.97,755.19h11.04v-28.08h-8.58v-3.24c4.5-.6,7.38-1.5,9.84-2.82h3.72v34.14h9.96v4.14h-25.98v-4.14Z"/>
    <path class="cls-1" d="M1262.45,740.07c0-12.84,5.22-19.74,13.74-19.74s13.74,6.9,13.74,19.74-5.22,19.98-13.74,19.98-13.74-7.26-13.74-19.98ZM1285.31,740.07c0-10.98-3.78-15.72-9.12-15.72s-9.12,4.74-9.12,15.72,3.78,15.96,9.12,15.96,9.12-4.98,9.12-15.96ZM1272.47,739.65c0-2.46,1.74-3.96,3.72-3.96s3.72,1.5,3.72,3.96-1.74,4.02-3.72,4.02-3.72-1.5-3.72-4.02Z"/>
  </g>
  <g class="cls-2">
    <path class="cls-1" d="M13.05,811.47h11.04v-28.08h-8.58v-3.24c4.5-.6,7.38-1.5,9.84-2.82h3.72v34.14h9.96v4.14H13.05v-4.14Z"/>
    <path class="cls-1" d="M61.53,796.35c0-12.84,5.22-19.74,13.74-19.74s13.74,6.9,13.74,19.74-5.22,19.98-13.74,19.98-13.74-7.26-13.74-19.98ZM84.39,796.35c0-10.98-3.78-15.72-9.12-15.72s-9.12,4.74-9.12,15.72,3.78,15.96,9.12,15.96,9.12-4.98,9.12-15.96ZM71.55,795.93c0-2.46,1.74-3.96,3.72-3.96s3.72,1.5,3.72,3.96-1.74,4.02-3.72,4.02-3.72-1.5-3.72-4.02Z"/>
    <path class="cls-1" d="M113.13,811.47h11.04v-28.08h-8.58v-3.24c4.5-.6,7.38-1.5,9.84-2.82h3.72v34.14h9.96v4.14h-25.98v-4.14Z"/>
    <path class="cls-1" d="M161.61,796.35c0-12.84,5.22-19.74,13.74-19.74s13.74,6.9,13.74,19.74-5.22,19.98-13.74,19.98-13.74-7.26-13.74-19.98ZM184.47,796.35c0-10.98-3.78-15.72-9.12-15.72s-9.12,4.74-9.12,15.72,3.78,15.96,9.12,15.96,9.12-4.98,9.12-15.96ZM171.63,795.93c0-2.46,1.74-3.96,3.72-3.96s3.72,1.5,3.72,3.96-1.74,4.02-3.72,4.02-3.72-1.5-3.72-4.02Z"/>
    <path class="cls-1" d="M213.21,811.47h11.04v-28.08h-8.58v-3.24c4.5-.6,7.38-1.5,9.84-2.82h3.72v34.14h9.96v4.14h-25.98v-4.14Z"/>
    <path class="cls-1" d="M261.68,796.35c0-12.84,5.22-19.74,13.74-19.74s13.74,6.9,13.74,19.74-5.22,19.98-13.74,19.98-13.74-7.26-13.74-19.98ZM284.54,796.35c0-10.98-3.78-15.72-9.12-15.72s-9.12,4.74-9.12,15.72,3.78,15.96,9.12,15.96,9.12-4.98,9.12-15.96ZM271.7,795.93c0-2.46,1.74-3.96,3.72-3.96s3.72,1.5,3.72,3.96-1.74,4.02-3.72,4.02-3.72-1.5-3.72-4.02Z"/>
    <path class="cls-1" d="M311.72,796.35c0-12.84,5.22-19.74,13.74-19.74s13.74,6.9,13.74,19.74-5.22,19.98-13.74,19.98-13.74-7.26-13.74-19.98ZM334.58,796.35c0-10.98-3.78-15.72-9.12-15.72s-9.12,4.74-9.12,15.72,3.78,15.96,9.12,15.96,9.12-4.98,9.12-15.96ZM321.74,795.93c0-2.46,1.74-3.96,3.72-3.96s3.72,1.5,3.72,3.96-1.74,4.02-3.72,4.02-3.72-1.5-3.72-4.02Z"/>
    <path class="cls-1" d="M361.76,796.35c0-12.84,5.22-19.74,13.74-19.74s13.74,6.9,13.74,19.74-5.22,19.98-13.74,19.98-13.74-7.26-13.74-19.98ZM384.62,796.35c0-10.98-3.78-15.72-9.12-15.72s-9.12,4.74-9.12,15.72,3.78,15.96,9.12,15.96,9.12-4.98,9.12-15.96ZM371.78,795.93c0-2.46,1.74-3.96,3.72-3.96s3.72,1.5,3.72,3.96-1.74,4.02-3.72,4.02-3.72-1.5-3.72-4.02Z"/>
    <path class="cls-1" d="M413.36,811.47h11.04v-28.08h-8.58v-3.24c4.5-.6,7.38-1.5,9.84-2.82h3.72v34.14h9.96v4.14h-25.98v-4.14Z"/>
    <path class="cls-1" d="M463.4,811.47h11.04v-28.08h-8.58v-3.24c4.5-.6,7.38-1.5,9.84-2.82h3.72v34.14h9.96v4.14h-25.98v-4.14Z"/>
    <path class="cls-1" d="M511.88,796.35c0-12.84,5.22-19.74,13.74-19.74s13.74,6.9,13.74,19.74-5.22,19.98-13.74,19.98-13.74-7.26-13.74-19.98ZM534.74,796.35c0-10.98-3.78-15.72-9.12-15.72s-9.12,4.74-9.12,15.72,3.78,15.96,9.12,15.96,9.12-4.98,9.12-15.96ZM521.9,795.93c0-2.46,1.74-3.96,3.72-3.96s3.72,1.5,3.72,3.96-1.74,4.02-3.72,4.02-3.72-1.5-3.72-4.02Z"/>
    <path class="cls-1" d="M563.48,811.47h11.04v-28.08h-8.58v-3.24c4.5-.6,7.38-1.5,9.84-2.82h3.72v34.14h9.96v4.14h-25.98v-4.14Z"/>
    <path class="cls-1" d="M613.51,811.47h11.04v-28.08h-8.58v-3.24c4.5-.6,7.38-1.5,9.84-2.82h3.72v34.14h9.96v4.14h-25.98v-4.14Z"/>
    <path class="cls-1" d="M661.99,796.35c0-12.84,5.22-19.74,13.74-19.74s13.74,6.9,13.74,19.74-5.22,19.98-13.74,19.98-13.74-7.26-13.74-19.98ZM684.85,796.35c0-10.98-3.78-15.72-9.12-15.72s-9.12,4.74-9.12,15.72,3.78,15.96,9.12,15.96,9.12-4.98,9.12-15.96ZM672.01,795.93c0-2.46,1.74-3.96,3.72-3.96s3.72,1.5,3.72,3.96-1.74,4.02-3.72,4.02-3.72-1.5-3.72-4.02Z"/>
    <path class="cls-1" d="M713.59,811.47h11.04v-28.08h-8.58v-3.24c4.5-.6,7.38-1.5,9.84-2.82h3.72v34.14h9.96v4.14h-25.98v-4.14Z"/>
    <path class="cls-1" d="M762.07,796.35c0-12.84,5.22-19.74,13.74-19.74s13.74,6.9,13.74,19.74-5.22,19.98-13.74,19.98-13.74-7.26-13.74-19.98ZM784.93,796.35c0-10.98-3.78-15.72-9.12-15.72s-9.12,4.74-9.12,15.72,3.78,15.96,9.12,15.96,9.12-4.98,9.12-15.96ZM772.09,795.93c0-2.46,1.74-3.96,3.72-3.96s3.72,1.5,3.72,3.96-1.74,4.02-3.72,4.02-3.72-1.5-3.72-4.02Z"/>
    <path class="cls-1" d="M813.67,811.47h11.04v-28.08h-8.58v-3.24c4.5-.6,7.38-1.5,9.84-2.82h3.72v34.14h9.96v4.14h-25.98v-4.14Z"/>
    <path class="cls-1" d="M862.14,796.35c0-12.84,5.22-19.74,13.74-19.74s13.74,6.9,13.74,19.74-5.22,19.98-13.74,19.98-13.74-7.26-13.74-19.98ZM885,796.35c0-10.98-3.78-15.72-9.12-15.72s-9.12,4.74-9.12,15.72,3.78,15.96,9.12,15.96,9.12-4.98,9.12-15.96ZM872.16,795.93c0-2.46,1.74-3.96,3.72-3.96s3.72,1.5,3.72,3.96-1.74,4.02-3.72,4.02-3.72-1.5-3.72-4.02Z"/>
    <path class="cls-1" d="M912.18,796.35c0-12.84,5.22-19.74,13.74-19.74s13.74,6.9,13.74,19.74-5.22,19.98-13.74,19.98-13.74-7.26-13.74-19.98ZM935.04,796.35c0-10.98-3.78-15.72-9.12-15.72s-9.12,4.74-9.12,15.72,3.78,15.96,9.12,15.96,9.12-4.98,9.12-15.96ZM922.2,795.93c0-2.46,1.74-3.96,3.72-3.96s3.72,1.5,3.72,3.96-1.74,4.02-3.72,4.02-3.72-1.5-3.72-4.02Z"/>
    <path class="cls-1" d="M963.78,811.47h11.04v-28.08h-8.58v-3.24c4.5-.6,7.38-1.5,9.84-2.82h3.72v34.14h9.96v4.14h-25.98v-4.14Z"/>
    <path class="cls-1" d="M1012.26,796.35c0-12.84,5.22-19.74,13.74-19.74s13.74,6.9,13.74,19.74-5.22,19.98-13.74,19.98-13.74-7.26-13.74-19.98ZM1035.12,796.35c0-10.98-3.78-15.72-9.12-15.72s-9.12,4.74-9.12,15.72,3.78,15.96,9.12,15.96,9.12-4.98,9.12-15.96ZM1022.28,795.93c0-2.46,1.74-3.96,3.72-3.96s3.72,1.5,3.72,3.96-1.74,4.02-3.72,4.02-3.72-1.5-3.72-4.02Z"/>
    <path class="cls-1" d="M1063.86,811.47h11.04v-28.08h-8.58v-3.24c4.5-.6,7.38-1.5,9.84-2.82h3.72v34.14h9.96v4.14h-25.98v-4.14Z"/>
    <path class="cls-1" d="M1112.33,796.35c0-12.84,5.22-19.74,13.74-19.74s13.74,6.9,13.74,19.74-5.22,19.98-13.74,19.98-13.74-7.26-13.74-19.98ZM1135.19,796.35c0-10.98-3.78-15.72-9.12-15.72s-9.12,4.74-9.12,15.72,3.78,15.96,9.12,15.96,9.12-4.98,9.12-15.96ZM1122.35,795.93c0-2.46,1.74-3.96,3.72-3.96s3.72,1.5,3.72,3.96-1.74,4.02-3.72,4.02-3.72-1.5-3.72-4.02Z"/>
    <path class="cls-1" d="M1163.93,811.47h11.04v-28.08h-8.58v-3.24c4.5-.6,7.38-1.5,9.84-2.82h3.72v34.14h9.96v4.14h-25.98v-4.14Z"/>
    <path class="cls-1" d="M1213.97,811.47h11.04v-28.08h-8.58v-3.24c4.5-.6,7.38-1.5,9.84-2.82h3.72v34.14h9.96v4.14h-25.98v-4.14Z"/>
    <path class="cls-1" d="M1264.01,811.47h11.04v-28.08h-8.58v-3.24c4.5-.6,7.38-1.5,9.84-2.82h3.72v34.14h9.96v4.14h-25.98v-4.14Z"/>
  </g>
</svg>