<?xml version="1.0" encoding="UTF-8"?>
<svg id="Layer_1" data-name="Layer 1" xmlns="http://www.w3.org/2000/svg" viewBox="0 0 1485.8 842.8">
  <defs>
    <style>
      .cls-1, .cls-2, .cls-3, .cls-4 {
        opacity: .9;
      }

      .cls-1, .cls-2, .cls-3, .cls-4, .cls-5, .cls-6 {
        stroke-width: 0px;
      }

      .cls-1, .cls-5 {
        fill: #f2f3f4;
      }

      .cls-2, .cls-6 {
        fill: #f8e1cd;
      }

      .cls-3 {
        fill: #f8d3b0;
      }

      .cls-4 {
        fill: #fdecde;
      }

      .cls-7 {
        opacity: .5;
      }

      .cls-5, .cls-6 {
        opacity: 0;
      }
    </style>
  </defs>
  <g class="cls-7">
    <path class="cls-1" d="M181.6,45.7h11v-28.1h-8.6v-3.2c4.5-.6,7.4-1.5,9.8-2.8h3.7v34.1h10v4.1h-26v-4.1Z"/>
    <path class="cls-1" d="M230.1,30.5c0-12.8,5.2-19.7,13.7-19.7s13.7,6.9,13.7,19.7-5.2,20-13.7,20-13.7-7.3-13.7-20ZM253,30.5c0-11-3.8-15.7-9.1-15.7s-9.1,4.7-9.1,15.7,3.8,16,9.1,16,9.1-5,9.1-16ZM240.1,30.1c0-2.5,1.7-4,3.7-4s3.7,1.5,3.7,4-1.7,4-3.7,4-3.7-1.5-3.7-4Z"/>
    <path class="cls-1" d="M280.1,30.5c0-12.8,5.2-19.7,13.7-19.7s13.7,6.9,13.7,19.7-5.2,20-13.7,20-13.7-7.3-13.7-20ZM303,30.5c0-11-3.8-15.7-9.1-15.7s-9.1,4.7-9.1,15.7,3.8,16,9.1,16,9.1-5,9.1-16ZM290.2,30.1c0-2.5,1.7-4,3.7-4s3.7,1.5,3.7,4-1.7,4-3.7,4-3.7-1.5-3.7-4Z"/>
    <path class="cls-2" d="M331.7,45.7h11v-28.1h-8.6v-3.2c4.5-.6,7.4-1.5,9.8-2.8h3.7v34.1h10v4.1h-26v-4.1Z"/>
    <path class="cls-2" d="M380.2,30.5c0-12.8,5.2-19.7,13.7-19.7s13.7,6.9,13.7,19.7-5.2,20-13.7,20-13.7-7.3-13.7-20ZM403.1,30.5c0-11-3.8-15.7-9.1-15.7s-9.1,4.7-9.1,15.7,3.8,16,9.1,16,9.1-5,9.1-16ZM390.2,30.1c0-2.5,1.7-4,3.7-4s3.7,1.5,3.7,4-1.7,4-3.7,4-3.7-1.5-3.7-4Z"/>
    <path class="cls-6" d="M431.8,45.7h11v-28.1h-8.6v-3.2c4.5-.6,7.4-1.5,9.8-2.8h3.7v34.1h10v4.1h-26v-4.1Z"/>
    <path class="cls-6" d="M480.3,30.5c0-12.8,5.2-19.7,13.7-19.7s13.7,6.9,13.7,19.7-5.2,20-13.7,20-13.7-7.3-13.7-20ZM503.2,30.5c0-11-3.8-15.7-9.1-15.7s-9.1,4.7-9.1,15.7,3.8,16,9.1,16,9.1-5,9.1-16ZM490.3,30.1c0-2.5,1.7-4,3.7-4s3.7,1.5,3.7,4-1.7,4-3.7,4-3.7-1.5-3.7-4Z"/>
    <path class="cls-6" d="M531.9,45.7h11v-28.1h-8.6v-3.2c4.5-.6,7.4-1.5,9.8-2.8h3.7v34.1h10v4.1h-26v-4.1Z"/>
    <path class="cls-5" d="M580.4,30.5c0-12.8,5.2-19.7,13.7-19.7s13.7,6.9,13.7,19.7-5.2,20-13.7,20-13.7-7.3-13.7-20ZM603.2,30.5c0-11-3.8-15.7-9.1-15.7s-9.1,4.7-9.1,15.7,3.8,16,9.1,16,9.1-5,9.1-16ZM590.4,30.1c0-2.5,1.7-4,3.7-4s3.7,1.5,3.7,4-1.7,4-3.7,4-3.7-1.5-3.7-4Z"/>
    <path class="cls-5" d="M632,45.7h11v-28.1h-8.6v-3.2c4.5-.6,7.4-1.5,9.8-2.8h3.7v34.1h10v4.1h-26v-4.1Z"/>
    <path class="cls-5" d="M682,45.7h11v-28.1h-8.6v-3.2c4.5-.6,7.4-1.5,9.8-2.8h3.7v34.1h10v4.1h-26v-4.1Z"/>
    <path class="cls-5" d="M732,45.7h11v-28.1h-8.6v-3.2c4.5-.6,7.4-1.5,9.8-2.8h3.7v34.1h10v4.1h-26v-4.1Z"/>
    <path class="cls-1" d="M780.5,30.5c0-12.8,5.2-19.7,13.7-19.7s13.7,6.9,13.7,19.7-5.2,20-13.7,20-13.7-7.3-13.7-20ZM803.4,30.5c0-11-3.8-15.7-9.1-15.7s-9.1,4.7-9.1,15.7,3.8,16,9.1,16,9.1-5,9.1-16ZM790.5,30.1c0-2.5,1.7-4,3.7-4s3.7,1.5,3.7,4-1.7,4-3.7,4-3.7-1.5-3.7-4Z"/>
    <path class="cls-1" d="M832.1,45.7h11v-28.1h-8.6v-3.2c4.5-.6,7.4-1.5,9.8-2.8h3.7v34.1h10v4.1h-26v-4.1Z"/>
    <path class="cls-3" d="M880.6,30.5c0-12.8,5.2-19.7,13.7-19.7s13.7,6.9,13.7,19.7-5.2,20-13.7,20-13.7-7.3-13.7-20ZM903.5,30.5c0-11-3.8-15.7-9.1-15.7s-9.1,4.7-9.1,15.7,3.8,16,9.1,16,9.1-5,9.1-16ZM890.6,30.1c0-2.5,1.7-4,3.7-4s3.7,1.5,3.7,4-1.7,4-3.7,4-3.7-1.5-3.7-4Z"/>
    <path class="cls-3" d="M930.6,30.5c0-12.8,5.2-19.7,13.7-19.7s13.7,6.9,13.7,19.7-5.2,20-13.7,20-13.7-7.3-13.7-20ZM953.5,30.5c0-11-3.8-15.7-9.1-15.7s-9.1,4.7-9.1,15.7,3.8,16,9.1,16,9.1-5,9.1-16ZM940.7,30.1c0-2.5,1.7-4,3.7-4s3.7,1.5,3.7,4-1.7,4-3.7,4-3.7-1.5-3.7-4Z"/>
    <path class="cls-3" d="M982.2,45.7h11v-28.1h-8.6v-3.2c4.5-.6,7.4-1.5,9.8-2.8h3.7v34.1h10v4.1h-26v-4.1Z"/>
    <path class="cls-1" d="M1030.7,30.5c0-12.8,5.2-19.7,13.7-19.7s13.7,6.9,13.7,19.7-5.2,20-13.7,20-13.7-7.3-13.7-20ZM1053.6,30.5c0-11-3.8-15.7-9.1-15.7s-9.1,4.7-9.1,15.7,3.8,16,9.1,16,9.1-5,9.1-16ZM1040.7,30.1c0-2.5,1.7-4,3.7-4s3.7,1.5,3.7,4-1.7,4-3.7,4-3.7-1.5-3.7-4Z"/>
    <path class="cls-1" d="M1082.3,45.7h11v-28.1h-8.6v-3.2c4.5-.6,7.4-1.5,9.8-2.8h3.7v34.1h10v4.1h-26v-4.1Z"/>
    <path class="cls-1" d="M1130.8,30.5c0-12.8,5.2-19.7,13.7-19.7s13.7,6.9,13.7,19.7-5.2,20-13.7,20-13.7-7.3-13.7-20ZM1153.6,30.5c0-11-3.8-15.7-9.1-15.7s-9.1,4.7-9.1,15.7,3.8,16,9.1,16,9.1-5,9.1-16ZM1140.8,30.1c0-2.5,1.7-4,3.7-4s3.7,1.5,3.7,4-1.7,4-3.7,4-3.7-1.5-3.7-4Z"/>
    <path class="cls-1" d="M1180.8,30.5c0-12.8,5.2-19.7,13.7-19.7s13.7,6.9,13.7,19.7-5.2,20-13.7,20-13.7-7.3-13.7-20ZM1203.7,30.5c0-11-3.8-15.7-9.1-15.7s-9.1,4.7-9.1,15.7,3.8,16,9.1,16,9.1-5,9.1-16ZM1190.8,30.1c0-2.5,1.7-4,3.7-4s3.7,1.5,3.7,4-1.7,4-3.7,4-3.7-1.5-3.7-4Z"/>
    <path class="cls-1" d="M1232.4,45.7h11v-28.1h-8.6v-3.2c4.5-.6,7.4-1.5,9.8-2.8h3.7v34.1h10v4.1h-26v-4.1Z"/>
    <path class="cls-1" d="M1282.5,45.7h11v-28.1h-8.6v-3.2c4.5-.6,7.4-1.5,9.8-2.8h3.7v34.1h10v4.1h-26v-4.1Z"/>
    <path class="cls-1" d="M1330.9,30.5c0-12.8,5.2-19.7,13.7-19.7s13.7,6.9,13.7,19.7-5.2,20-13.7,20-13.7-7.3-13.7-20ZM1353.8,30.5c0-11-3.8-15.7-9.1-15.7s-9.1,4.7-9.1,15.7,3.8,16,9.1,16,9.1-5,9.1-16ZM1341,30.1c0-2.5,1.7-4,3.7-4s3.7,1.5,3.7,4-1.7,4-3.7,4-3.7-1.5-3.7-4Z"/>
    <path class="cls-1" d="M1382.5,45.7h11v-28.1h-8.6v-3.2c4.5-.6,7.4-1.5,9.8-2.8h3.7v34.1h10v4.1h-26v-4.1Z"/>
    <path class="cls-1" d="M1431,30.5c0-12.8,5.2-19.7,13.7-19.7s13.7,6.9,13.7,19.7-5.2,20-13.7,20-13.7-7.3-13.7-20ZM1453.9,30.5c0-11-3.8-15.7-9.1-15.7s-9.1,4.7-9.1,15.7,3.8,16,9.1,16,9.1-5,9.1-16ZM1441,30.1c0-2.5,1.7-4,3.7-4s3.7,1.5,3.7,4-1.7,4-3.7,4-3.7-1.5-3.7-4Z"/>
  </g>
  <g class="cls-7">
    <path class="cls-1" d="M179.6,105.2h11v-28.1h-8.6v-3.2c4.5-.6,7.4-1.5,9.8-2.8h3.7v34.1h10v4.1h-26v-4.1Z"/>
    <path class="cls-1" d="M228.1,90.1c0-12.8,5.2-19.7,13.7-19.7s13.7,6.9,13.7,19.7-5.2,20-13.7,20-13.7-7.3-13.7-20ZM251,90.1c0-11-3.8-15.7-9.1-15.7s-9.1,4.7-9.1,15.7,3.8,16,9.1,16,9.1-5,9.1-16ZM238.1,89.7c0-2.5,1.7-4,3.7-4s3.7,1.5,3.7,4-1.7,4-3.7,4-3.7-1.5-3.7-4Z"/>
    <path class="cls-1" d="M279.7,105.2h11v-28.1h-8.6v-3.2c4.5-.6,7.4-1.5,9.8-2.8h3.7v34.1h10v4.1h-26v-4.1Z"/>
    <path class="cls-1" d="M329.7,105.2h11v-28.1h-8.6v-3.2c4.5-.6,7.4-1.5,9.8-2.8h3.7v34.1h10v4.1h-26v-4.1Z"/>
    <path class="cls-1" d="M378.2,90.1c0-12.8,5.2-19.7,13.7-19.7s13.7,6.9,13.7,19.7-5.2,20-13.7,20-13.7-7.3-13.7-20ZM401.1,90.1c0-11-3.8-15.7-9.1-15.7s-9.1,4.7-9.1,15.7,3.8,16,9.1,16,9.1-5,9.1-16ZM388.2,89.7c0-2.5,1.7-4,3.7-4s3.7,1.5,3.7,4-1.7,4-3.7,4-3.7-1.5-3.7-4Z"/>
    <path class="cls-1" d="M428.3,90.1c0-12.8,5.2-19.7,13.7-19.7s13.7,6.9,13.7,19.7-5.2,20-13.7,20-13.7-7.3-13.7-20ZM451.1,90.1c0-11-3.8-15.7-9.1-15.7s-9.1,4.7-9.1,15.7,3.8,16,9.1,16,9.1-5,9.1-16ZM438.3,89.7c0-2.5,1.7-4,3.7-4s3.7,1.5,3.7,4-1.7,4-3.7,4-3.7-1.5-3.7-4Z"/>
    <path class="cls-1" d="M478.3,90.1c0-12.8,5.2-19.7,13.7-19.7s13.7,6.9,13.7,19.7-5.2,20-13.7,20-13.7-7.3-13.7-20ZM501.2,90.1c0-11-3.8-15.7-9.1-15.7s-9.1,4.7-9.1,15.7,3.8,16,9.1,16,9.1-5,9.1-16ZM488.3,89.7c0-2.5,1.7-4,3.7-4s3.7,1.5,3.7,4-1.7,4-3.7,4-3.7-1.5-3.7-4Z"/>
    <path class="cls-1" d="M528.3,90.1c0-12.8,5.2-19.7,13.7-19.7s13.7,6.9,13.7,19.7-5.2,20-13.7,20-13.7-7.3-13.7-20ZM551.2,90.1c0-11-3.8-15.7-9.1-15.7s-9.1,4.7-9.1,15.7,3.8,16,9.1,16,9.1-5,9.1-16ZM538.4,89.7c0-2.5,1.7-4,3.7-4s3.7,1.5,3.7,4-1.7,4-3.7,4-3.7-1.5-3.7-4Z"/>
    <path class="cls-3" d="M578.4,90.1c0-12.8,5.2-19.7,13.7-19.7s13.7,6.9,13.7,19.7-5.2,20-13.7,20-13.7-7.3-13.7-20ZM601.2,90.1c0-11-3.8-15.7-9.1-15.7s-9.1,4.7-9.1,15.7,3.8,16,9.1,16,9.1-5,9.1-16ZM588.4,89.7c0-2.5,1.7-4,3.7-4s3.7,1.5,3.7,4-1.7,4-3.7,4-3.7-1.5-3.7-4Z"/>
    <path class="cls-1" d="M630,105.2h11v-28.1h-8.6v-3.2c4.5-.6,7.4-1.5,9.8-2.8h3.7v34.1h10v4.1h-26v-4.1Z"/>
    <path class="cls-1" d="M680,105.2h11v-28.1h-8.6v-3.2c4.5-.6,7.4-1.5,9.8-2.8h3.7v34.1h10v4.1h-26v-4.1Z"/>
    <path class="cls-1" d="M728.5,90.1c0-12.8,5.2-19.7,13.7-19.7s13.7,6.9,13.7,19.7-5.2,20-13.7,20-13.7-7.3-13.7-20ZM751.3,90.1c0-11-3.8-15.7-9.1-15.7s-9.1,4.7-9.1,15.7,3.8,16,9.1,16,9.1-5,9.1-16ZM738.5,89.7c0-2.5,1.7-4,3.7-4s3.7,1.5,3.7,4-1.7,4-3.7,4-3.7-1.5-3.7-4Z"/>
    <path class="cls-1" d="M780.1,105.2h11v-28.1h-8.6v-3.2c4.5-.6,7.4-1.5,9.8-2.8h3.7v34.1h10v4.1h-26v-4.1Z"/>
    <path class="cls-1" d="M828.6,90.1c0-12.8,5.2-19.7,13.7-19.7s13.7,6.9,13.7,19.7-5.2,20-13.7,20-13.7-7.3-13.7-20ZM851.4,90.1c0-11-3.8-15.7-9.1-15.7s-9.1,4.7-9.1,15.7,3.8,16,9.1,16,9.1-5,9.1-16ZM838.6,89.7c0-2.5,1.7-4,3.7-4s3.7,1.5,3.7,4-1.7,4-3.7,4-3.7-1.5-3.7-4Z"/>
    <path class="cls-1" d="M880.2,105.2h11v-28.1h-8.6v-3.2c4.5-.6,7.4-1.5,9.8-2.8h3.7v34.1h10v4.1h-26v-4.1Z"/>
    <path class="cls-1" d="M928.6,90.1c0-12.8,5.2-19.7,13.7-19.7s13.7,6.9,13.7,19.7-5.2,20-13.7,20-13.7-7.3-13.7-20ZM951.5,90.1c0-11-3.8-15.7-9.1-15.7s-9.1,4.7-9.1,15.7,3.8,16,9.1,16,9.1-5,9.1-16ZM938.7,89.7c0-2.5,1.7-4,3.7-4s3.7,1.5,3.7,4-1.7,4-3.7,4-3.7-1.5-3.7-4Z"/>
    <path class="cls-1" d="M978.7,90.1c0-12.8,5.2-19.7,13.7-19.7s13.7,6.9,13.7,19.7-5.2,20-13.7,20-13.7-7.3-13.7-20ZM1001.5,90.1c0-11-3.8-15.7-9.1-15.7s-9.1,4.7-9.1,15.7,3.8,16,9.1,16,9.1-5,9.1-16ZM988.7,89.7c0-2.5,1.7-4,3.7-4s3.7,1.5,3.7,4-1.7,4-3.7,4-3.7-1.5-3.7-4Z"/>
    <path class="cls-1" d="M1030.3,105.2h11v-28.1h-8.6v-3.2c4.5-.6,7.4-1.5,9.8-2.8h3.7v34.1h10v4.1h-26v-4.1Z"/>
    <path class="cls-1" d="M1078.8,90.1c0-12.8,5.2-19.7,13.7-19.7s13.7,6.9,13.7,19.7-5.2,20-13.7,20-13.7-7.3-13.7-20ZM1101.6,90.1c0-11-3.8-15.7-9.1-15.7s-9.1,4.7-9.1,15.7,3.8,16,9.1,16,9.1-5,9.1-16ZM1088.8,89.7c0-2.5,1.7-4,3.7-4s3.7,1.5,3.7,4-1.7,4-3.7,4-3.7-1.5-3.7-4Z"/>
    <path class="cls-1" d="M1130.3,105.2h11v-28.1h-8.6v-3.2c4.5-.6,7.4-1.5,9.8-2.8h3.7v34.1h10v4.1h-26v-4.1Z"/>
    <path class="cls-2" d="M1180.4,105.2h11v-28.1h-8.6v-3.2c4.5-.6,7.4-1.5,9.8-2.8h3.7v34.1h10v4.1h-26v-4.1Z"/>
    <path class="cls-2" d="M1228.9,90.1c0-12.8,5.2-19.7,13.7-19.7s13.7,6.9,13.7,19.7-5.2,20-13.7,20-13.7-7.3-13.7-20ZM1251.7,90.1c0-11-3.8-15.7-9.1-15.7s-9.1,4.7-9.1,15.7,3.8,16,9.1,16,9.1-5,9.1-16ZM1238.9,89.7c0-2.5,1.7-4,3.7-4s3.7,1.5,3.7,4-1.7,4-3.7,4-3.7-1.5-3.7-4Z"/>
    <path class="cls-1" d="M1280.5,105.2h11v-28.1h-8.6v-3.2c4.5-.6,7.4-1.5,9.8-2.8h3.7v34.1h10v4.1h-26v-4.1Z"/>
    <path class="cls-1" d="M1330.5,105.2h11v-28.1h-8.6v-3.2c4.5-.6,7.4-1.5,9.8-2.8h3.7v34.1h10v4.1h-26v-4.1Z"/>
    <path class="cls-1" d="M1379,90.1c0-12.8,5.2-19.7,13.7-19.7s13.7,6.9,13.7,19.7-5.2,20-13.7,20-13.7-7.3-13.7-20ZM1401.8,90.1c0-11-3.8-15.7-9.1-15.7s-9.1,4.7-9.1,15.7,3.8,16,9.1,16,9.1-5,9.1-16ZM1389,89.7c0-2.5,1.7-4,3.7-4s3.7,1.5,3.7,4-1.7,4-3.7,4-3.7-1.5-3.7-4Z"/>
    <path class="cls-1" d="M1429,90.1c0-12.8,5.2-19.7,13.7-19.7s13.7,6.9,13.7,19.7-5.2,20-13.7,20-13.7-7.3-13.7-20ZM1451.9,90.1c0-11-3.8-15.7-9.1-15.7s-9.1,4.7-9.1,15.7,3.8,16,9.1,16,9.1-5,9.1-16ZM1439,89.7c0-2.5,1.7-4,3.7-4s3.7,1.5,3.7,4-1.7,4-3.7,4-3.7-1.5-3.7-4Z"/>
  </g>
  <g class="cls-7">
    <path class="cls-1" d="M184.1,149.6c0-12.8,5.2-19.7,13.7-19.7s13.7,6.9,13.7,19.7-5.2,20-13.7,20-13.7-7.3-13.7-20ZM206.9,149.6c0-11-3.8-15.7-9.1-15.7s-9.1,4.7-9.1,15.7,3.8,16,9.1,16,9.1-5,9.1-16ZM194.1,149.2c0-2.5,1.7-4,3.7-4s3.7,1.5,3.7,4-1.7,4-3.7,4-3.7-1.5-3.7-4Z"/>
    <path class="cls-1" d="M234.1,149.6c0-12.8,5.2-19.7,13.7-19.7s13.7,6.9,13.7,19.7-5.2,20-13.7,20-13.7-7.3-13.7-20ZM257,149.6c0-11-3.8-15.7-9.1-15.7s-9.1,4.7-9.1,15.7,3.8,16,9.1,16,9.1-5,9.1-16ZM244.1,149.2c0-2.5,1.7-4,3.7-4s3.7,1.5,3.7,4-1.7,4-3.7,4-3.7-1.5-3.7-4Z"/>
    <path class="cls-1" d="M284.1,149.6c0-12.8,5.2-19.7,13.7-19.7s13.7,6.9,13.7,19.7-5.2,20-13.7,20-13.7-7.3-13.7-20ZM307,149.6c0-11-3.8-15.7-9.1-15.7s-9.1,4.7-9.1,15.7,3.8,16,9.1,16,9.1-5,9.1-16ZM294.2,149.2c0-2.5,1.7-4,3.7-4s3.7,1.5,3.7,4-1.7,4-3.7,4-3.7-1.5-3.7-4Z"/>
    <path class="cls-1" d="M334.2,149.6c0-12.8,5.2-19.7,13.7-19.7s13.7,6.9,13.7,19.7-5.2,20-13.7,20-13.7-7.3-13.7-20ZM357,149.6c0-11-3.8-15.7-9.1-15.7s-9.1,4.7-9.1,15.7,3.8,16,9.1,16,9.1-5,9.1-16ZM344.2,149.2c0-2.5,1.7-4,3.7-4s3.7,1.5,3.7,4-1.7,4-3.7,4-3.7-1.5-3.7-4Z"/>
    <path class="cls-1" d="M385.8,164.7h11v-28.1h-8.6v-3.2c4.5-.6,7.4-1.5,9.8-2.8h3.7v34.1h10v4.1h-26v-4.1Z"/>
    <path class="cls-1" d="M435.8,164.7h11v-28.1h-8.6v-3.2c4.5-.6,7.4-1.5,9.8-2.8h3.7v34.1h10v4.1h-26v-4.1Z"/>
    <path class="cls-1" d="M485.9,164.7h11v-28.1h-8.6v-3.2c4.5-.6,7.4-1.5,9.8-2.8h3.7v34.1h10v4.1h-26v-4.1Z"/>
    <path class="cls-1" d="M534.3,149.6c0-12.8,5.2-19.7,13.7-19.7s13.7,6.9,13.7,19.7-5.2,20-13.7,20-13.7-7.3-13.7-20ZM557.2,149.6c0-11-3.8-15.7-9.1-15.7s-9.1,4.7-9.1,15.7,3.8,16,9.1,16,9.1-5,9.1-16ZM544.4,149.2c0-2.5,1.7-4,3.7-4s3.7,1.5,3.7,4-1.7,4-3.7,4-3.7-1.5-3.7-4Z"/>
    <path class="cls-1" d="M585.9,164.7h11v-28.1h-8.6v-3.2c4.5-.6,7.4-1.5,9.8-2.8h3.7v34.1h10v4.1h-26v-4.1Z"/>
    <path class="cls-1" d="M634.4,149.6c0-12.8,5.2-19.7,13.7-19.7s13.7,6.9,13.7,19.7-5.2,20-13.7,20-13.7-7.3-13.7-20ZM657.3,149.6c0-11-3.8-15.7-9.1-15.7s-9.1,4.7-9.1,15.7,3.8,16,9.1,16,9.1-5,9.1-16ZM644.4,149.2c0-2.5,1.7-4,3.7-4s3.7,1.5,3.7,4-1.7,4-3.7,4-3.7-1.5-3.7-4Z"/>
    <path class="cls-1" d="M686,164.7h11v-28.1h-8.6v-3.2c4.5-.6,7.4-1.5,9.8-2.8h3.7v34.1h10v4.1h-26v-4.1Z"/>
    <path class="cls-1" d="M734.5,149.6c0-12.8,5.2-19.7,13.7-19.7s13.7,6.9,13.7,19.7-5.2,20-13.7,20-13.7-7.3-13.7-20ZM757.3,149.6c0-11-3.8-15.7-9.1-15.7s-9.1,4.7-9.1,15.7,3.8,16,9.1,16,9.1-5,9.1-16ZM744.5,149.2c0-2.5,1.7-4,3.7-4s3.7,1.5,3.7,4-1.7,4-3.7,4-3.7-1.5-3.7-4Z"/>
    <path class="cls-1" d="M786.1,164.7h11v-28.1h-8.6v-3.2c4.5-.6,7.4-1.5,9.8-2.8h3.7v34.1h10v4.1h-26v-4.1Z"/>
    <path class="cls-1" d="M834.6,149.6c0-12.8,5.2-19.7,13.7-19.7s13.7,6.9,13.7,19.7-5.2,20-13.7,20-13.7-7.3-13.7-20ZM857.4,149.6c0-11-3.8-15.7-9.1-15.7s-9.1,4.7-9.1,15.7,3.8,16,9.1,16,9.1-5,9.1-16ZM844.6,149.2c0-2.5,1.7-4,3.7-4s3.7,1.5,3.7,4-1.7,4-3.7,4-3.7-1.5-3.7-4Z"/>
    <path class="cls-1" d="M886.2,164.7h11v-28.1h-8.6v-3.2c4.5-.6,7.4-1.5,9.8-2.8h3.7v34.1h10v4.1h-26v-4.1Z"/>
    <path class="cls-1" d="M934.6,149.6c0-12.8,5.2-19.7,13.7-19.7s13.7,6.9,13.7,19.7-5.2,20-13.7,20-13.7-7.3-13.7-20ZM957.5,149.6c0-11-3.8-15.7-9.1-15.7s-9.1,4.7-9.1,15.7,3.8,16,9.1,16,9.1-5,9.1-16ZM944.7,149.2c0-2.5,1.7-4,3.7-4s3.7,1.5,3.7,4-1.7,4-3.7,4-3.7-1.5-3.7-4Z"/>
    <path class="cls-1" d="M986.2,164.7h11v-28.1h-8.6v-3.2c4.5-.6,7.4-1.5,9.8-2.8h3.7v34.1h10v4.1h-26v-4.1Z"/>
    <path class="cls-1" d="M1034.7,149.6c0-12.8,5.2-19.7,13.7-19.7s13.7,6.9,13.7,19.7-5.2,20-13.7,20-13.7-7.3-13.7-20ZM1057.6,149.6c0-11-3.8-15.7-9.1-15.7s-9.1,4.7-9.1,15.7,3.8,16,9.1,16,9.1-5,9.1-16ZM1044.7,149.2c0-2.5,1.7-4,3.7-4s3.7,1.5,3.7,4-1.7,4-3.7,4-3.7-1.5-3.7-4Z"/>
    <path class="cls-1" d="M1084.8,149.6c0-12.8,5.2-19.7,13.7-19.7s13.7,6.9,13.7,19.7-5.2,20-13.7,20-13.7-7.3-13.7-20ZM1107.6,149.6c0-11-3.8-15.7-9.1-15.7s-9.1,4.7-9.1,15.7,3.8,16,9.1,16,9.1-5,9.1-16ZM1094.8,149.2c0-2.5,1.7-4,3.7-4s3.7,1.5,3.7,4-1.7,4-3.7,4-3.7-1.5-3.7-4Z"/>
    <path class="cls-1" d="M1136.4,164.7h11v-28.1h-8.6v-3.2c4.5-.6,7.4-1.5,9.8-2.8h3.7v34.1h10v4.1h-26v-4.1Z"/>
    <path class="cls-1" d="M1184.8,149.6c0-12.8,5.2-19.7,13.7-19.7s13.7,6.9,13.7,19.7-5.2,20-13.7,20-13.7-7.3-13.7-20ZM1207.7,149.6c0-11-3.8-15.7-9.1-15.7s-9.1,4.7-9.1,15.7,3.8,16,9.1,16,9.1-5,9.1-16ZM1194.9,149.2c0-2.5,1.7-4,3.7-4s3.7,1.5,3.7,4-1.7,4-3.7,4-3.7-1.5-3.7-4Z"/>
    <path class="cls-1" d="M1234.9,149.6c0-12.8,5.2-19.7,13.7-19.7s13.7,6.9,13.7,19.7-5.2,20-13.7,20-13.7-7.3-13.7-20ZM1257.7,149.6c0-11-3.8-15.7-9.1-15.7s-9.1,4.7-9.1,15.7,3.8,16,9.1,16,9.1-5,9.1-16ZM1244.9,149.2c0-2.5,1.7-4,3.7-4s3.7,1.5,3.7,4-1.7,4-3.7,4-3.7-1.5-3.7-4Z"/>
    <path class="cls-1" d="M1286.5,164.7h11v-28.1h-8.6v-3.2c4.5-.6,7.4-1.5,9.8-2.8h3.7v34.1h10v4.1h-26v-4.1Z"/>
    <path class="cls-1" d="M1334.9,149.6c0-12.8,5.2-19.7,13.7-19.7s13.7,6.9,13.7,19.7-5.2,20-13.7,20-13.7-7.3-13.7-20ZM1357.8,149.6c0-11-3.8-15.7-9.1-15.7s-9.1,4.7-9.1,15.7,3.8,16,9.1,16,9.1-5,9.1-16ZM1345,149.2c0-2.5,1.7-4,3.7-4s3.7,1.5,3.7,4-1.7,4-3.7,4-3.7-1.5-3.7-4Z"/>
    <path class="cls-1" d="M1385,149.6c0-12.8,5.2-19.7,13.7-19.7s13.7,6.9,13.7,19.7-5.2,20-13.7,20-13.7-7.3-13.7-20ZM1407.8,149.6c0-11-3.8-15.7-9.1-15.7s-9.1,4.7-9.1,15.7,3.8,16,9.1,16,9.1-5,9.1-16ZM1395,149.2c0-2.5,1.7-4,3.7-4s3.7,1.5,3.7,4-1.7,4-3.7,4-3.7-1.5-3.7-4Z"/>
    <path class="cls-1" d="M1436.6,164.7h11v-28.1h-8.6v-3.2c4.5-.6,7.4-1.5,9.8-2.8h3.7v34.1h10v4.1h-26v-4.1Z"/>
  </g>
  <g class="cls-7">
    <path class="cls-1" d="M185.3,206c0-12.8,5.2-19.7,13.7-19.7s13.7,6.9,13.7,19.7-5.2,20-13.7,20-13.7-7.3-13.7-20ZM208.1,206c0-11-3.8-15.7-9.1-15.7s-9.1,4.7-9.1,15.7,3.8,16,9.1,16,9.1-5,9.1-16ZM195.3,205.5c0-2.5,1.7-4,3.7-4s3.7,1.5,3.7,4-1.7,4-3.7,4-3.7-1.5-3.7-4Z"/>
    <path class="cls-1" d="M236.9,221.1h11v-28.1h-8.6v-3.2c4.5-.6,7.4-1.5,9.8-2.8h3.7v34.1h10v4.1h-26v-4.1Z"/>
    <path class="cls-1" d="M285.4,206c0-12.8,5.2-19.7,13.7-19.7s13.7,6.9,13.7,19.7-5.2,20-13.7,20-13.7-7.3-13.7-20ZM308.2,206c0-11-3.8-15.7-9.1-15.7s-9.1,4.7-9.1,15.7,3.8,16,9.1,16,9.1-5,9.1-16ZM295.4,205.5c0-2.5,1.7-4,3.7-4s3.7,1.5,3.7,4-1.7,4-3.7,4-3.7-1.5-3.7-4Z"/>
    <path class="cls-1" d="M337,221.1h11v-28.1h-8.6v-3.2c4.5-.6,7.4-1.5,9.8-2.8h3.7v34.1h10v4.1h-26v-4.1Z"/>
    <path class="cls-2" d="M385.4,206c0-12.8,5.2-19.7,13.7-19.7s13.7,6.9,13.7,19.7-5.2,20-13.7,20-13.7-7.3-13.7-20ZM408.3,206c0-11-3.8-15.7-9.1-15.7s-9.1,4.7-9.1,15.7,3.8,16,9.1,16,9.1-5,9.1-16ZM395.5,205.5c0-2.5,1.7-4,3.7-4s3.7,1.5,3.7,4-1.7,4-3.7,4-3.7-1.5-3.7-4Z"/>
    <path class="cls-2" d="M437,221.1h11v-28.1h-8.6v-3.2c4.5-.6,7.4-1.5,9.8-2.8h3.7v34.1h10v4.1h-26v-4.1Z"/>
    <path class="cls-2" d="M485.5,206c0-12.8,5.2-19.7,13.7-19.7s13.7,6.9,13.7,19.7-5.2,20-13.7,20-13.7-7.3-13.7-20ZM508.4,206c0-11-3.8-15.7-9.1-15.7s-9.1,4.7-9.1,15.7,3.8,16,9.1,16,9.1-5,9.1-16ZM495.5,205.5c0-2.5,1.7-4,3.7-4s3.7,1.5,3.7,4-1.7,4-3.7,4-3.7-1.5-3.7-4Z"/>
    <path class="cls-2" d="M537.1,221.1h11v-28.1h-8.6v-3.2c4.5-.6,7.4-1.5,9.8-2.8h3.7v34.1h10v4.1h-26v-4.1Z"/>
    <path class="cls-2" d="M585.6,206c0-12.8,5.2-19.7,13.7-19.7s13.7,6.9,13.7,19.7-5.2,20-13.7,20-13.7-7.3-13.7-20ZM608.5,206c0-11-3.8-15.7-9.1-15.7s-9.1,4.7-9.1,15.7,3.8,16,9.1,16,9.1-5,9.1-16ZM595.6,205.5c0-2.5,1.7-4,3.7-4s3.7,1.5,3.7,4-1.7,4-3.7,4-3.7-1.5-3.7-4Z"/>
    <path class="cls-2" d="M637.2,221.1h11v-28.1h-8.6v-3.2c4.5-.6,7.4-1.5,9.8-2.8h3.7v34.1h10v4.1h-26v-4.1Z"/>
    <path class="cls-1" d="M685.7,206c0-12.8,5.2-19.7,13.7-19.7s13.7,6.9,13.7,19.7-5.2,20-13.7,20-13.7-7.3-13.7-20ZM708.5,206c0-11-3.8-15.7-9.1-15.7s-9.1,4.7-9.1,15.7,3.8,16,9.1,16,9.1-5,9.1-16ZM695.7,205.5c0-2.5,1.7-4,3.7-4s3.7,1.5,3.7,4-1.7,4-3.7,4-3.7-1.5-3.7-4Z"/>
    <path class="cls-1" d="M737.3,221.1h11v-28.1h-8.6v-3.2c4.5-.6,7.4-1.5,9.8-2.8h3.7v34.1h10v4.1h-26v-4.1Z"/>
    <path class="cls-1" d="M787.3,221.1h11v-28.1h-8.6v-3.2c4.5-.6,7.4-1.5,9.8-2.8h3.7v34.1h10v4.1h-26v-4.1Z"/>
    <path class="cls-1" d="M837.3,221.1h11v-28.1h-8.6v-3.2c4.5-.6,7.4-1.5,9.8-2.8h3.7v34.1h10v4.1h-26v-4.1Z"/>
    <path class="cls-1" d="M885.8,206c0-12.8,5.2-19.7,13.7-19.7s13.7,6.9,13.7,19.7-5.2,20-13.7,20-13.7-7.3-13.7-20ZM908.7,206c0-11-3.8-15.7-9.1-15.7s-9.1,4.7-9.1,15.7,3.8,16,9.1,16,9.1-5,9.1-16ZM895.8,205.5c0-2.5,1.7-4,3.7-4s3.7,1.5,3.7,4-1.7,4-3.7,4-3.7-1.5-3.7-4Z"/>
    <path class="cls-1" d="M935.9,206c0-12.8,5.2-19.7,13.7-19.7s13.7,6.9,13.7,19.7-5.2,20-13.7,20-13.7-7.3-13.7-20ZM958.7,206c0-11-3.8-15.7-9.1-15.7s-9.1,4.7-9.1,15.7,3.8,16,9.1,16,9.1-5,9.1-16ZM945.9,205.5c0-2.5,1.7-4,3.7-4s3.7,1.5,3.7,4-1.7,4-3.7,4-3.7-1.5-3.7-4Z"/>
    <path class="cls-1" d="M987.5,221.1h11v-28.1h-8.6v-3.2c4.5-.6,7.4-1.5,9.8-2.8h3.7v34.1h10v4.1h-26v-4.1Z"/>
    <path class="cls-1" d="M1035.9,206c0-12.8,5.2-19.7,13.7-19.7s13.7,6.9,13.7,19.7-5.2,20-13.7,20-13.7-7.3-13.7-20ZM1058.8,206c0-11-3.8-15.7-9.1-15.7s-9.1,4.7-9.1,15.7,3.8,16,9.1,16,9.1-5,9.1-16ZM1046,205.5c0-2.5,1.7-4,3.7-4s3.7,1.5,3.7,4-1.7,4-3.7,4-3.7-1.5-3.7-4Z"/>
    <path class="cls-1" d="M1087.5,221.1h11v-28.1h-8.6v-3.2c4.5-.6,7.4-1.5,9.8-2.8h3.7v34.1h10v4.1h-26v-4.1Z"/>
    <path class="cls-3" d="M1136,206c0-12.8,5.2-19.7,13.7-19.7s13.7,6.9,13.7,19.7-5.2,20-13.7,20-13.7-7.3-13.7-20ZM1158.9,206c0-11-3.8-15.7-9.1-15.7s-9.1,4.7-9.1,15.7,3.8,16,9.1,16,9.1-5,9.1-16ZM1146,205.5c0-2.5,1.7-4,3.7-4s3.7,1.5,3.7,4-1.7,4-3.7,4-3.7-1.5-3.7-4Z"/>
    <path class="cls-1" d="M1187.6,221.1h11v-28.1h-8.6v-3.2c4.5-.6,7.4-1.5,9.8-2.8h3.7v34.1h10v4.1h-26v-4.1Z"/>
    <path class="cls-1" d="M1236.1,206c0-12.8,5.2-19.7,13.7-19.7s13.7,6.9,13.7,19.7-5.2,20-13.7,20-13.7-7.3-13.7-20ZM1259,206c0-11-3.8-15.7-9.1-15.7s-9.1,4.7-9.1,15.7,3.8,16,9.1,16,9.1-5,9.1-16ZM1246.1,205.5c0-2.5,1.7-4,3.7-4s3.7,1.5,3.7,4-1.7,4-3.7,4-3.7-1.5-3.7-4Z"/>
    <path class="cls-1" d="M1287.7,221.1h11v-28.1h-8.6v-3.2c4.5-.6,7.4-1.5,9.8-2.8h3.7v34.1h10v4.1h-26v-4.1Z"/>
    <path class="cls-1" d="M1336.2,206c0-12.8,5.2-19.7,13.7-19.7s13.7,6.9,13.7,19.7-5.2,20-13.7,20-13.7-7.3-13.7-20ZM1359,206c0-11-3.8-15.7-9.1-15.7s-9.1,4.7-9.1,15.7,3.8,16,9.1,16,9.1-5,9.1-16ZM1346.2,205.5c0-2.5,1.7-4,3.7-4s3.7,1.5,3.7,4-1.7,4-3.7,4-3.7-1.5-3.7-4Z"/>
    <path class="cls-1" d="M1387.8,221.1h11v-28.1h-8.6v-3.2c4.5-.6,7.4-1.5,9.8-2.8h3.7v34.1h10v4.1h-26v-4.1Z"/>
    <path class="cls-1" d="M1437.8,221.1h11v-28.1h-8.6v-3.2c4.5-.6,7.4-1.5,9.8-2.8h3.7v34.1h10v4.1h-26v-4.1Z"/>
  </g>
  <g class="cls-7">
    <path class="cls-1" d="M185.3,262.5c0-12.8,5.2-19.7,13.7-19.7s13.7,6.9,13.7,19.7-5.2,20-13.7,20-13.7-7.3-13.7-20ZM208.1,262.5c0-11-3.8-15.7-9.1-15.7s-9.1,4.7-9.1,15.7,3.8,16,9.1,16,9.1-5,9.1-16ZM195.3,262.1c0-2.5,1.7-4,3.7-4s3.7,1.5,3.7,4-1.7,4-3.7,4-3.7-1.5-3.7-4Z"/>
    <path class="cls-1" d="M236.9,277.7h11v-28.1h-8.6v-3.2c4.5-.6,7.4-1.5,9.8-2.8h3.7v34.1h10v4.1h-26v-4.1Z"/>
    <path class="cls-1" d="M285.4,262.5c0-12.8,5.2-19.7,13.7-19.7s13.7,6.9,13.7,19.7-5.2,20-13.7,20-13.7-7.3-13.7-20ZM308.2,262.5c0-11-3.8-15.7-9.1-15.7s-9.1,4.7-9.1,15.7,3.8,16,9.1,16,9.1-5,9.1-16ZM295.4,262.1c0-2.5,1.7-4,3.7-4s3.7,1.5,3.7,4-1.7,4-3.7,4-3.7-1.5-3.7-4Z"/>
    <path class="cls-1" d="M337,277.7h11v-28.1h-8.6v-3.2c4.5-.6,7.4-1.5,9.8-2.8h3.7v34.1h10v4.1h-26v-4.1Z"/>
    <path class="cls-1" d="M387,277.7h11v-28.1h-8.6v-3.2c4.5-.6,7.4-1.5,9.8-2.8h3.7v34.1h10v4.1h-26v-4.1Z"/>
    <path class="cls-1" d="M435.5,262.5c0-12.8,5.2-19.7,13.7-19.7s13.7,6.9,13.7,19.7-5.2,20-13.7,20-13.7-7.3-13.7-20ZM458.3,262.5c0-11-3.8-15.7-9.1-15.7s-9.1,4.7-9.1,15.7,3.8,16,9.1,16,9.1-5,9.1-16ZM445.5,262.1c0-2.5,1.7-4,3.7-4s3.7,1.5,3.7,4-1.7,4-3.7,4-3.7-1.5-3.7-4Z"/>
    <path class="cls-1" d="M487.1,277.7h11v-28.1h-8.6v-3.2c4.5-.6,7.4-1.5,9.8-2.8h3.7v34.1h10v4.1h-26v-4.1Z"/>
    <path class="cls-1" d="M535.6,262.5c0-12.8,5.2-19.7,13.7-19.7s13.7,6.9,13.7,19.7-5.2,20-13.7,20-13.7-7.3-13.7-20ZM558.4,262.5c0-11-3.8-15.7-9.1-15.7s-9.1,4.7-9.1,15.7,3.8,16,9.1,16,9.1-5,9.1-16ZM545.6,262.1c0-2.5,1.7-4,3.7-4s3.7,1.5,3.7,4-1.7,4-3.7,4-3.7-1.5-3.7-4Z"/>
    <path class="cls-1" d="M587.2,277.7h11v-28.1h-8.6v-3.2c4.5-.6,7.4-1.5,9.8-2.8h3.7v34.1h10v4.1h-26v-4.1Z"/>
    <path class="cls-1" d="M637.2,277.7h11v-28.1h-8.6v-3.2c4.5-.6,7.4-1.5,9.8-2.8h3.7v34.1h10v4.1h-26v-4.1Z"/>
    <path class="cls-1" d="M687.2,277.7h11v-28.1h-8.6v-3.2c4.5-.6,7.4-1.5,9.8-2.8h3.7v34.1h10v4.1h-26v-4.1Z"/>
    <path class="cls-1" d="M737.3,277.7h11v-28.1h-8.6v-3.2c4.5-.6,7.4-1.5,9.8-2.8h3.7v34.1h10v4.1h-26v-4.1Z"/>
    <path class="cls-1" d="M785.8,262.5c0-12.8,5.2-19.7,13.7-19.7s13.7,6.9,13.7,19.7-5.2,20-13.7,20-13.7-7.3-13.7-20ZM808.6,262.5c0-11-3.8-15.7-9.1-15.7s-9.1,4.7-9.1,15.7,3.8,16,9.1,16,9.1-5,9.1-16ZM795.8,262.1c0-2.5,1.7-4,3.7-4s3.7,1.5,3.7,4-1.7,4-3.7,4-3.7-1.5-3.7-4Z"/>
    <path class="cls-1" d="M835.8,262.5c0-12.8,5.2-19.7,13.7-19.7s13.7,6.9,13.7,19.7-5.2,20-13.7,20-13.7-7.3-13.7-20ZM858.6,262.5c0-11-3.8-15.7-9.1-15.7s-9.1,4.7-9.1,15.7,3.8,16,9.1,16,9.1-5,9.1-16ZM845.8,262.1c0-2.5,1.7-4,3.7-4s3.7,1.5,3.7,4-1.7,4-3.7,4-3.7-1.5-3.7-4Z"/>
    <path class="cls-1" d="M887.4,277.7h11v-28.1h-8.6v-3.2c4.5-.6,7.4-1.5,9.8-2.8h3.7v34.1h10v4.1h-26v-4.1Z"/>
    <path class="cls-1" d="M935.9,262.5c0-12.8,5.2-19.7,13.7-19.7s13.7,6.9,13.7,19.7-5.2,20-13.7,20-13.7-7.3-13.7-20ZM958.7,262.5c0-11-3.8-15.7-9.1-15.7s-9.1,4.7-9.1,15.7,3.8,16,9.1,16,9.1-5,9.1-16ZM945.9,262.1c0-2.5,1.7-4,3.7-4s3.7,1.5,3.7,4-1.7,4-3.7,4-3.7-1.5-3.7-4Z"/>
    <path class="cls-1" d="M987.5,277.7h11v-28.1h-8.6v-3.2c4.5-.6,7.4-1.5,9.8-2.8h3.7v34.1h10v4.1h-26v-4.1Z"/>
    <path class="cls-1" d="M1035.9,262.5c0-12.8,5.2-19.7,13.7-19.7s13.7,6.9,13.7,19.7-5.2,20-13.7,20-13.7-7.3-13.7-20ZM1058.8,262.5c0-11-3.8-15.7-9.1-15.7s-9.1,4.7-9.1,15.7,3.8,16,9.1,16,9.1-5,9.1-16ZM1046,262.1c0-2.5,1.7-4,3.7-4s3.7,1.5,3.7,4-1.7,4-3.7,4-3.7-1.5-3.7-4Z"/>
    <path class="cls-1" d="M1087.5,277.7h11v-28.1h-8.6v-3.2c4.5-.6,7.4-1.5,9.8-2.8h3.7v34.1h10v4.1h-26v-4.1Z"/>
    <path class="cls-1" d="M1136,262.5c0-12.8,5.2-19.7,13.7-19.7s13.7,6.9,13.7,19.7-5.2,20-13.7,20-13.7-7.3-13.7-20ZM1158.9,262.5c0-11-3.8-15.7-9.1-15.7s-9.1,4.7-9.1,15.7,3.8,16,9.1,16,9.1-5,9.1-16ZM1146,262.1c0-2.5,1.7-4,3.7-4s3.7,1.5,3.7,4-1.7,4-3.7,4-3.7-1.5-3.7-4Z"/>
    <path class="cls-1" d="M1187.6,277.7h11v-28.1h-8.6v-3.2c4.5-.6,7.4-1.5,9.8-2.8h3.7v34.1h10v4.1h-26v-4.1Z"/>
    <path class="cls-1" d="M1236.1,262.5c0-12.8,5.2-19.7,13.7-19.7s13.7,6.9,13.7,19.7-5.2,20-13.7,20-13.7-7.3-13.7-20ZM1259,262.5c0-11-3.8-15.7-9.1-15.7s-9.1,4.7-9.1,15.7,3.8,16,9.1,16,9.1-5,9.1-16ZM1246.1,262.1c0-2.5,1.7-4,3.7-4s3.7,1.5,3.7,4-1.7,4-3.7,4-3.7-1.5-3.7-4Z"/>
    <path class="cls-1" d="M1287.7,277.7h11v-28.1h-8.6v-3.2c4.5-.6,7.4-1.5,9.8-2.8h3.7v34.1h10v4.1h-26v-4.1Z"/>
    <path class="cls-1" d="M1337.7,277.7h11v-28.1h-8.6v-3.2c4.5-.6,7.4-1.5,9.8-2.8h3.7v34.1h10v4.1h-26v-4.1Z"/>
    <path class="cls-1" d="M1387.8,277.7h11v-28.1h-8.6v-3.2c4.5-.6,7.4-1.5,9.8-2.8h3.7v34.1h10v4.1h-26v-4.1Z"/>
    <path class="cls-1" d="M1436.2,262.5c0-12.8,5.2-19.7,13.7-19.7s13.7,6.9,13.7,19.7-5.2,20-13.7,20-13.7-7.3-13.7-20ZM1459.1,262.5c0-11-3.8-15.7-9.1-15.7s-9.1,4.7-9.1,15.7,3.8,16,9.1,16,9.1-5,9.1-16ZM1446.3,262.1c0-2.5,1.7-4,3.7-4s3.7,1.5,3.7,4-1.7,4-3.7,4-3.7-1.5-3.7-4Z"/>
  </g>
  <g class="cls-7">
    <path class="cls-1" d="M185.3,326.8c0-12.8,5.2-19.7,13.7-19.7s13.7,6.9,13.7,19.7-5.2,20-13.7,20-13.7-7.3-13.7-20ZM208.1,326.8c0-11-3.8-15.7-9.1-15.7s-9.1,4.7-9.1,15.7,3.8,16,9.1,16,9.1-5,9.1-16ZM195.3,326.4c0-2.5,1.7-4,3.7-4s3.7,1.5,3.7,4-1.7,4-3.7,4-3.7-1.5-3.7-4Z"/>
    <path class="cls-1" d="M236.9,341.9h11v-28.1h-8.6v-3.2c4.5-.6,7.4-1.5,9.8-2.8h3.7v34.1h10v4.1h-26v-4.1Z"/>
    <path class="cls-1" d="M286.9,341.9h11v-28.1h-8.6v-3.2c4.5-.6,7.4-1.5,9.8-2.8h3.7v34.1h10v4.1h-26v-4.1Z"/>
    <path class="cls-1" d="M337,341.9h11v-28.1h-8.6v-3.2c4.5-.6,7.4-1.5,9.8-2.8h3.7v34.1h10v4.1h-26v-4.1Z"/>
    <path class="cls-1" d="M385.4,326.8c0-12.8,5.2-19.7,13.7-19.7s13.7,6.9,13.7,19.7-5.2,20-13.7,20-13.7-7.3-13.7-20ZM408.3,326.8c0-11-3.8-15.7-9.1-15.7s-9.1,4.7-9.1,15.7,3.8,16,9.1,16,9.1-5,9.1-16ZM395.5,326.4c0-2.5,1.7-4,3.7-4s3.7,1.5,3.7,4-1.7,4-3.7,4-3.7-1.5-3.7-4Z"/>
    <path class="cls-1" d="M435.5,326.8c0-12.8,5.2-19.7,13.7-19.7s13.7,6.9,13.7,19.7-5.2,20-13.7,20-13.7-7.3-13.7-20ZM458.3,326.8c0-11-3.8-15.7-9.1-15.7s-9.1,4.7-9.1,15.7,3.8,16,9.1,16,9.1-5,9.1-16ZM445.5,326.4c0-2.5,1.7-4,3.7-4s3.7,1.5,3.7,4-1.7,4-3.7,4-3.7-1.5-3.7-4Z"/>
    <path class="cls-1" d="M485.5,326.8c0-12.8,5.2-19.7,13.7-19.7s13.7,6.9,13.7,19.7-5.2,20-13.7,20-13.7-7.3-13.7-20ZM508.4,326.8c0-11-3.8-15.7-9.1-15.7s-9.1,4.7-9.1,15.7,3.8,16,9.1,16,9.1-5,9.1-16ZM495.5,326.4c0-2.5,1.7-4,3.7-4s3.7,1.5,3.7,4-1.7,4-3.7,4-3.7-1.5-3.7-4Z"/>
    <path class="cls-1" d="M537.1,341.9h11v-28.1h-8.6v-3.2c4.5-.6,7.4-1.5,9.8-2.8h3.7v34.1h10v4.1h-26v-4.1Z"/>
    <path class="cls-1" d="M587.2,341.9h11v-28.1h-8.6v-3.2c4.5-.6,7.4-1.5,9.8-2.8h3.7v34.1h10v4.1h-26v-4.1Z"/>
    <path class="cls-1" d="M635.6,326.8c0-12.8,5.2-19.7,13.7-19.7s13.7,6.9,13.7,19.7-5.2,20-13.7,20-13.7-7.3-13.7-20ZM658.5,326.8c0-11-3.8-15.7-9.1-15.7s-9.1,4.7-9.1,15.7,3.8,16,9.1,16,9.1-5,9.1-16ZM645.7,326.4c0-2.5,1.7-4,3.7-4s3.7,1.5,3.7,4-1.7,4-3.7,4-3.7-1.5-3.7-4Z"/>
    <path class="cls-1" d="M685.7,326.8c0-12.8,5.2-19.7,13.7-19.7s13.7,6.9,13.7,19.7-5.2,20-13.7,20-13.7-7.3-13.7-20ZM708.5,326.8c0-11-3.8-15.7-9.1-15.7s-9.1,4.7-9.1,15.7,3.8,16,9.1,16,9.1-5,9.1-16ZM695.7,326.4c0-2.5,1.7-4,3.7-4s3.7,1.5,3.7,4-1.7,4-3.7,4-3.7-1.5-3.7-4Z"/>
    <path class="cls-3" d="M737.3,341.9h11v-28.1h-8.6v-3.2c4.5-.6,7.4-1.5,9.8-2.8h3.7v34.1h10v4.1h-26v-4.1Z"/>
    <path class="cls-3" d="M785.8,326.8c0-12.8,5.2-19.7,13.7-19.7s13.7,6.9,13.7,19.7-5.2,20-13.7,20-13.7-7.3-13.7-20ZM808.6,326.8c0-11-3.8-15.7-9.1-15.7s-9.1,4.7-9.1,15.7,3.8,16,9.1,16,9.1-5,9.1-16ZM795.8,326.4c0-2.5,1.7-4,3.7-4s3.7,1.5,3.7,4-1.7,4-3.7,4-3.7-1.5-3.7-4Z"/>
    <path class="cls-3" d="M837.3,341.9h11v-28.1h-8.6v-3.2c4.5-.6,7.4-1.5,9.8-2.8h3.7v34.1h10v4.1h-26v-4.1Z"/>
    <path class="cls-3" d="M885.8,326.8c0-12.8,5.2-19.7,13.7-19.7s13.7,6.9,13.7,19.7-5.2,20-13.7,20-13.7-7.3-13.7-20ZM908.7,326.8c0-11-3.8-15.7-9.1-15.7s-9.1,4.7-9.1,15.7,3.8,16,9.1,16,9.1-5,9.1-16ZM895.8,326.4c0-2.5,1.7-4,3.7-4s3.7,1.5,3.7,4-1.7,4-3.7,4-3.7-1.5-3.7-4Z"/>
    <path class="cls-3" d="M937.4,341.9h11v-28.1h-8.6v-3.2c4.5-.6,7.4-1.5,9.8-2.8h3.7v34.1h10v4.1h-26v-4.1Z"/>
    <path class="cls-3" d="M985.9,326.8c0-12.8,5.2-19.7,13.7-19.7s13.7,6.9,13.7,19.7-5.2,20-13.7,20-13.7-7.3-13.7-20ZM1008.8,326.8c0-11-3.8-15.7-9.1-15.7s-9.1,4.7-9.1,15.7,3.8,16,9.1,16,9.1-5,9.1-16ZM995.9,326.4c0-2.5,1.7-4,3.7-4s3.7,1.5,3.7,4-1.7,4-3.7,4-3.7-1.5-3.7-4Z"/>
    <path class="cls-3" d="M1035.9,326.8c0-12.8,5.2-19.7,13.7-19.7s13.7,6.9,13.7,19.7-5.2,20-13.7,20-13.7-7.3-13.7-20ZM1058.8,326.8c0-11-3.8-15.7-9.1-15.7s-9.1,4.7-9.1,15.7,3.8,16,9.1,16,9.1-5,9.1-16ZM1046,326.4c0-2.5,1.7-4,3.7-4s3.7,1.5,3.7,4-1.7,4-3.7,4-3.7-1.5-3.7-4Z"/>
    <path class="cls-3" d="M1087.5,341.9h11v-28.1h-8.6v-3.2c4.5-.6,7.4-1.5,9.8-2.8h3.7v34.1h10v4.1h-26v-4.1Z"/>
    <path class="cls-3" d="M1136,326.8c0-12.8,5.2-19.7,13.7-19.7s13.7,6.9,13.7,19.7-5.2,20-13.7,20-13.7-7.3-13.7-20ZM1158.9,326.8c0-11-3.8-15.7-9.1-15.7s-9.1,4.7-9.1,15.7,3.8,16,9.1,16,9.1-5,9.1-16ZM1146,326.4c0-2.5,1.7-4,3.7-4s3.7,1.5,3.7,4-1.7,4-3.7,4-3.7-1.5-3.7-4Z"/>
    <path class="cls-1" d="M1187.6,341.9h11v-28.1h-8.6v-3.2c4.5-.6,7.4-1.5,9.8-2.8h3.7v34.1h10v4.1h-26v-4.1Z"/>
    <path class="cls-1" d="M1236.1,326.8c0-12.8,5.2-19.7,13.7-19.7s13.7,6.9,13.7,19.7-5.2,20-13.7,20-13.7-7.3-13.7-20ZM1259,326.8c0-11-3.8-15.7-9.1-15.7s-9.1,4.7-9.1,15.7,3.8,16,9.1,16,9.1-5,9.1-16ZM1246.1,326.4c0-2.5,1.7-4,3.7-4s3.7,1.5,3.7,4-1.7,4-3.7,4-3.7-1.5-3.7-4Z"/>
    <path class="cls-1" d="M1287.7,341.9h11v-28.1h-8.6v-3.2c4.5-.6,7.4-1.5,9.8-2.8h3.7v34.1h10v4.1h-26v-4.1Z"/>
    <path class="cls-1" d="M1336.2,326.8c0-12.8,5.2-19.7,13.7-19.7s13.7,6.9,13.7,19.7-5.2,20-13.7,20-13.7-7.3-13.7-20ZM1359,326.8c0-11-3.8-15.7-9.1-15.7s-9.1,4.7-9.1,15.7,3.8,16,9.1,16,9.1-5,9.1-16ZM1346.2,326.4c0-2.5,1.7-4,3.7-4s3.7,1.5,3.7,4-1.7,4-3.7,4-3.7-1.5-3.7-4Z"/>
    <path class="cls-1" d="M1386.2,326.8c0-12.8,5.2-19.7,13.7-19.7s13.7,6.9,13.7,19.7-5.2,20-13.7,20-13.7-7.3-13.7-20ZM1409.1,326.8c0-11-3.8-15.7-9.1-15.7s-9.1,4.7-9.1,15.7,3.8,16,9.1,16,9.1-5,9.1-16ZM1396.2,326.4c0-2.5,1.7-4,3.7-4s3.7,1.5,3.7,4-1.7,4-3.7,4-3.7-1.5-3.7-4Z"/>
    <path class="cls-3" d="M1436.2,326.8c0-12.8,5.2-19.7,13.7-19.7s13.7,6.9,13.7,19.7-5.2,20-13.7,20-13.7-7.3-13.7-20ZM1459.1,326.8c0-11-3.8-15.7-9.1-15.7s-9.1,4.7-9.1,15.7,3.8,16,9.1,16,9.1-5,9.1-16ZM1446.3,326.4c0-2.5,1.7-4,3.7-4s3.7,1.5,3.7,4-1.7,4-3.7,4-3.7-1.5-3.7-4Z"/>
  </g>
  <g class="cls-7">
    <path class="cls-1" d="M186.8,400.3h11v-28.1h-8.6v-3.2c4.5-.6,7.4-1.5,9.8-2.8h3.7v34.1h10v4.1h-26v-4.1Z"/>
    <path class="cls-3" d="M235.3,385.2c0-12.8,5.2-19.7,13.7-19.7s13.7,6.9,13.7,19.7-5.2,20-13.7,20-13.7-7.3-13.7-20ZM258.2,385.2c0-11-3.8-15.7-9.1-15.7s-9.1,4.7-9.1,15.7,3.8,16,9.1,16,9.1-5,9.1-16ZM245.3,384.8c0-2.5,1.7-4,3.7-4s3.7,1.5,3.7,4-1.7,4-3.7,4-3.7-1.5-3.7-4Z"/>
    <path class="cls-3" d="M286.9,400.3h11v-28.1h-8.6v-3.2c4.5-.6,7.4-1.5,9.8-2.8h3.7v34.1h10v4.1h-26v-4.1Z"/>
    <path class="cls-3" d="M335.4,385.2c0-12.8,5.2-19.7,13.7-19.7s13.7,6.9,13.7,19.7-5.2,20-13.7,20-13.7-7.3-13.7-20ZM358.3,385.2c0-11-3.8-15.7-9.1-15.7s-9.1,4.7-9.1,15.7,3.8,16,9.1,16,9.1-5,9.1-16ZM345.4,384.8c0-2.5,1.7-4,3.7-4s3.7,1.5,3.7,4-1.7,4-3.7,4-3.7-1.5-3.7-4Z"/>
    <path class="cls-3" d="M387,400.3h11v-28.1h-8.6v-3.2c4.5-.6,7.4-1.5,9.8-2.8h3.7v34.1h10v4.1h-26v-4.1Z"/>
    <path class="cls-1" d="M435.5,385.2c0-12.8,5.2-19.7,13.7-19.7s13.7,6.9,13.7,19.7-5.2,20-13.7,20-13.7-7.3-13.7-20ZM458.3,385.2c0-11-3.8-15.7-9.1-15.7s-9.1,4.7-9.1,15.7,3.8,16,9.1,16,9.1-5,9.1-16ZM445.5,384.8c0-2.5,1.7-4,3.7-4s3.7,1.5,3.7,4-1.7,4-3.7,4-3.7-1.5-3.7-4Z"/>
    <path class="cls-1" d="M487.1,400.3h11v-28.1h-8.6v-3.2c4.5-.6,7.4-1.5,9.8-2.8h3.7v34.1h10v4.1h-26v-4.1Z"/>
    <path class="cls-1" d="M535.6,385.2c0-12.8,5.2-19.7,13.7-19.7s13.7,6.9,13.7,19.7-5.2,20-13.7,20-13.7-7.3-13.7-20ZM558.4,385.2c0-11-3.8-15.7-9.1-15.7s-9.1,4.7-9.1,15.7,3.8,16,9.1,16,9.1-5,9.1-16ZM545.6,384.8c0-2.5,1.7-4,3.7-4s3.7,1.5,3.7,4-1.7,4-3.7,4-3.7-1.5-3.7-4Z"/>
    <path class="cls-1" d="M585.6,385.2c0-12.8,5.2-19.7,13.7-19.7s13.7,6.9,13.7,19.7-5.2,20-13.7,20-13.7-7.3-13.7-20ZM608.5,385.2c0-11-3.8-15.7-9.1-15.7s-9.1,4.7-9.1,15.7,3.8,16,9.1,16,9.1-5,9.1-16ZM595.6,384.8c0-2.5,1.7-4,3.7-4s3.7,1.5,3.7,4-1.7,4-3.7,4-3.7-1.5-3.7-4Z"/>
    <path class="cls-1" d="M635.6,385.2c0-12.8,5.2-19.7,13.7-19.7s13.7,6.9,13.7,19.7-5.2,20-13.7,20-13.7-7.3-13.7-20ZM658.5,385.2c0-11-3.8-15.7-9.1-15.7s-9.1,4.7-9.1,15.7,3.8,16,9.1,16,9.1-5,9.1-16ZM645.7,384.8c0-2.5,1.7-4,3.7-4s3.7,1.5,3.7,4-1.7,4-3.7,4-3.7-1.5-3.7-4Z"/>
    <path class="cls-1" d="M687.2,400.3h11v-28.1h-8.6v-3.2c4.5-.6,7.4-1.5,9.8-2.8h3.7v34.1h10v4.1h-26v-4.1Z"/>
    <path class="cls-1" d="M735.7,385.2c0-12.8,5.2-19.7,13.7-19.7s13.7,6.9,13.7,19.7-5.2,20-13.7,20-13.7-7.3-13.7-20ZM758.6,385.2c0-11-3.8-15.7-9.1-15.7s-9.1,4.7-9.1,15.7,3.8,16,9.1,16,9.1-5,9.1-16ZM745.7,384.8c0-2.5,1.7-4,3.7-4s3.7,1.5,3.7,4-1.7,4-3.7,4-3.7-1.5-3.7-4Z"/>
    <path class="cls-1" d="M785.8,385.2c0-12.8,5.2-19.7,13.7-19.7s13.7,6.9,13.7,19.7-5.2,20-13.7,20-13.7-7.3-13.7-20ZM808.6,385.2c0-11-3.8-15.7-9.1-15.7s-9.1,4.7-9.1,15.7,3.8,16,9.1,16,9.1-5,9.1-16ZM795.8,384.8c0-2.5,1.7-4,3.7-4s3.7,1.5,3.7,4-1.7,4-3.7,4-3.7-1.5-3.7-4Z"/>
    <path class="cls-1" d="M837.3,400.3h11v-28.1h-8.6v-3.2c4.5-.6,7.4-1.5,9.8-2.8h3.7v34.1h10v4.1h-26v-4.1Z"/>
    <path class="cls-1" d="M885.8,385.2c0-12.8,5.2-19.7,13.7-19.7s13.7,6.9,13.7,19.7-5.2,20-13.7,20-13.7-7.3-13.7-20ZM908.7,385.2c0-11-3.8-15.7-9.1-15.7s-9.1,4.7-9.1,15.7,3.8,16,9.1,16,9.1-5,9.1-16ZM895.8,384.8c0-2.5,1.7-4,3.7-4s3.7,1.5,3.7,4-1.7,4-3.7,4-3.7-1.5-3.7-4Z"/>
    <path class="cls-1" d="M937.4,400.3h11v-28.1h-8.6v-3.2c4.5-.6,7.4-1.5,9.8-2.8h3.7v34.1h10v4.1h-26v-4.1Z"/>
    <path class="cls-1" d="M987.5,400.3h11v-28.1h-8.6v-3.2c4.5-.6,7.4-1.5,9.8-2.8h3.7v34.1h10v4.1h-26v-4.1Z"/>
    <path class="cls-1" d="M1037.5,400.3h11v-28.1h-8.6v-3.2c4.5-.6,7.4-1.5,9.8-2.8h3.7v34.1h10v4.1h-26v-4.1Z"/>
    <path class="cls-1" d="M1086,385.2c0-12.8,5.2-19.7,13.7-19.7s13.7,6.9,13.7,19.7-5.2,20-13.7,20-13.7-7.3-13.7-20ZM1108.8,385.2c0-11-3.8-15.7-9.1-15.7s-9.1,4.7-9.1,15.7,3.8,16,9.1,16,9.1-5,9.1-16ZM1096,384.8c0-2.5,1.7-4,3.7-4s3.7,1.5,3.7,4-1.7,4-3.7,4-3.7-1.5-3.7-4Z"/>
    <path class="cls-1" d="M1136,385.2c0-12.8,5.2-19.7,13.7-19.7s13.7,6.9,13.7,19.7-5.2,20-13.7,20-13.7-7.3-13.7-20ZM1158.9,385.2c0-11-3.8-15.7-9.1-15.7s-9.1,4.7-9.1,15.7,3.8,16,9.1,16,9.1-5,9.1-16ZM1146,384.8c0-2.5,1.7-4,3.7-4s3.7,1.5,3.7,4-1.7,4-3.7,4-3.7-1.5-3.7-4Z"/>
    <path class="cls-3" d="M1186.1,385.2c0-12.8,5.2-19.7,13.7-19.7s13.7,6.9,13.7,19.7-5.2,20-13.7,20-13.7-7.3-13.7-20ZM1208.9,385.2c0-11-3.8-15.7-9.1-15.7s-9.1,4.7-9.1,15.7,3.8,16,9.1,16,9.1-5,9.1-16ZM1196.1,384.8c0-2.5,1.7-4,3.7-4s3.7,1.5,3.7,4-1.7,4-3.7,4-3.7-1.5-3.7-4Z"/>
    <path class="cls-3" d="M1236.1,385.2c0-12.8,5.2-19.7,13.7-19.7s13.7,6.9,13.7,19.7-5.2,20-13.7,20-13.7-7.3-13.7-20ZM1259,385.2c0-11-3.8-15.7-9.1-15.7s-9.1,4.7-9.1,15.7,3.8,16,9.1,16,9.1-5,9.1-16ZM1246.1,384.8c0-2.5,1.7-4,3.7-4s3.7,1.5,3.7,4-1.7,4-3.7,4-3.7-1.5-3.7-4Z"/>
    <path class="cls-3" d="M1286.1,385.2c0-12.8,5.2-19.7,13.7-19.7s13.7,6.9,13.7,19.7-5.2,20-13.7,20-13.7-7.3-13.7-20ZM1309,385.2c0-11-3.8-15.7-9.1-15.7s-9.1,4.7-9.1,15.7,3.8,16,9.1,16,9.1-5,9.1-16ZM1296.2,384.8c0-2.5,1.7-4,3.7-4s3.7,1.5,3.7,4-1.7,4-3.7,4-3.7-1.5-3.7-4Z"/>
    <path class="cls-1" d="M1336.2,385.2c0-12.8,5.2-19.7,13.7-19.7s13.7,6.9,13.7,19.7-5.2,20-13.7,20-13.7-7.3-13.7-20ZM1359,385.2c0-11-3.8-15.7-9.1-15.7s-9.1,4.7-9.1,15.7,3.8,16,9.1,16,9.1-5,9.1-16ZM1346.2,384.8c0-2.5,1.7-4,3.7-4s3.7,1.5,3.7,4-1.7,4-3.7,4-3.7-1.5-3.7-4Z"/>
    <path class="cls-1" d="M1386.2,385.2c0-12.8,5.2-19.7,13.7-19.7s13.7,6.9,13.7,19.7-5.2,20-13.7,20-13.7-7.3-13.7-20ZM1409.1,385.2c0-11-3.8-15.7-9.1-15.7s-9.1,4.7-9.1,15.7,3.8,16,9.1,16,9.1-5,9.1-16ZM1396.2,384.8c0-2.5,1.7-4,3.7-4s3.7,1.5,3.7,4-1.7,4-3.7,4-3.7-1.5-3.7-4Z"/>
    <path class="cls-1" d="M1436.2,385.2c0-12.8,5.2-19.7,13.7-19.7s13.7,6.9,13.7,19.7-5.2,20-13.7,20-13.7-7.3-13.7-20ZM1459.1,385.2c0-11-3.8-15.7-9.1-15.7s-9.1,4.7-9.1,15.7,3.8,16,9.1,16,9.1-5,9.1-16ZM1446.3,384.8c0-2.5,1.7-4,3.7-4s3.7,1.5,3.7,4-1.7,4-3.7,4-3.7-1.5-3.7-4Z"/>
  </g>
  <g class="cls-7">
    <path class="cls-1" d="M186.8,459.3h11v-28.1h-8.6v-3.2c4.5-.6,7.4-1.5,9.8-2.8h3.7v34.1h10v4.1h-26v-4.1Z"/>
    <path class="cls-1" d="M235.3,444.2c0-12.8,5.2-19.7,13.7-19.7s13.7,6.9,13.7,19.7-5.2,20-13.7,20-13.7-7.3-13.7-20ZM258.2,444.2c0-11-3.8-15.7-9.1-15.7s-9.1,4.7-9.1,15.7,3.8,16,9.1,16,9.1-5,9.1-16ZM245.3,443.8c0-2.5,1.7-4,3.7-4s3.7,1.5,3.7,4-1.7,4-3.7,4-3.7-1.5-3.7-4Z"/>
    <path class="cls-1" d="M286.9,459.3h11v-28.1h-8.6v-3.2c4.5-.6,7.4-1.5,9.8-2.8h3.7v34.1h10v4.1h-26v-4.1Z"/>
    <path class="cls-1" d="M335.4,444.2c0-12.8,5.2-19.7,13.7-19.7s13.7,6.9,13.7,19.7-5.2,20-13.7,20-13.7-7.3-13.7-20ZM358.3,444.2c0-11-3.8-15.7-9.1-15.7s-9.1,4.7-9.1,15.7,3.8,16,9.1,16,9.1-5,9.1-16ZM345.4,443.8c0-2.5,1.7-4,3.7-4s3.7,1.5,3.7,4-1.7,4-3.7,4-3.7-1.5-3.7-4Z"/>
    <path class="cls-1" d="M387,459.3h11v-28.1h-8.6v-3.2c4.5-.6,7.4-1.5,9.8-2.8h3.7v34.1h10v4.1h-26v-4.1Z"/>
    <path class="cls-1" d="M437,459.3h11v-28.1h-8.6v-3.2c4.5-.6,7.4-1.5,9.8-2.8h3.7v34.1h10v4.1h-26v-4.1Z"/>
    <path class="cls-1" d="M487.1,459.3h11v-28.1h-8.6v-3.2c4.5-.6,7.4-1.5,9.8-2.8h3.7v34.1h10v4.1h-26v-4.1Z"/>
    <path class="cls-3" d="M537.1,459.3h11v-28.1h-8.6v-3.2c4.5-.6,7.4-1.5,9.8-2.8h3.7v34.1h10v4.1h-26v-4.1Z"/>
    <path class="cls-3" d="M587.2,459.3h11v-28.1h-8.6v-3.2c4.5-.6,7.4-1.5,9.8-2.8h3.7v34.1h10v4.1h-26v-4.1Z"/>
    <path class="cls-3" d="M637.2,459.3h11v-28.1h-8.6v-3.2c4.5-.6,7.4-1.5,9.8-2.8h3.7v34.1h10v4.1h-26v-4.1Z"/>
    <path class="cls-3" d="M687.2,459.3h11v-28.1h-8.6v-3.2c4.5-.6,7.4-1.5,9.8-2.8h3.7v34.1h10v4.1h-26v-4.1Z"/>
    <path class="cls-1" d="M735.7,444.2c0-12.8,5.2-19.7,13.7-19.7s13.7,6.9,13.7,19.7-5.2,20-13.7,20-13.7-7.3-13.7-20ZM758.6,444.2c0-11-3.8-15.7-9.1-15.7s-9.1,4.7-9.1,15.7,3.8,16,9.1,16,9.1-5,9.1-16ZM745.7,443.8c0-2.5,1.7-4,3.7-4s3.7,1.5,3.7,4-1.7,4-3.7,4-3.7-1.5-3.7-4Z"/>
    <path class="cls-1" d="M785.8,444.2c0-12.8,5.2-19.7,13.7-19.7s13.7,6.9,13.7,19.7-5.2,20-13.7,20-13.7-7.3-13.7-20ZM808.6,444.2c0-11-3.8-15.7-9.1-15.7s-9.1,4.7-9.1,15.7,3.8,16,9.1,16,9.1-5,9.1-16ZM795.8,443.8c0-2.5,1.7-4,3.7-4s3.7,1.5,3.7,4-1.7,4-3.7,4-3.7-1.5-3.7-4Z"/>
    <path class="cls-1" d="M835.8,444.2c0-12.8,5.2-19.7,13.7-19.7s13.7,6.9,13.7,19.7-5.2,20-13.7,20-13.7-7.3-13.7-20ZM858.6,444.2c0-11-3.8-15.7-9.1-15.7s-9.1,4.7-9.1,15.7,3.8,16,9.1,16,9.1-5,9.1-16ZM845.8,443.8c0-2.5,1.7-4,3.7-4s3.7,1.5,3.7,4-1.7,4-3.7,4-3.7-1.5-3.7-4Z"/>
    <path class="cls-1" d="M885.8,444.2c0-12.8,5.2-19.7,13.7-19.7s13.7,6.9,13.7,19.7-5.2,20-13.7,20-13.7-7.3-13.7-20ZM908.7,444.2c0-11-3.8-15.7-9.1-15.7s-9.1,4.7-9.1,15.7,3.8,16,9.1,16,9.1-5,9.1-16ZM895.8,443.8c0-2.5,1.7-4,3.7-4s3.7,1.5,3.7,4-1.7,4-3.7,4-3.7-1.5-3.7-4Z"/>
    <path class="cls-3" d="M935.9,444.2c0-12.8,5.2-19.7,13.7-19.7s13.7,6.9,13.7,19.7-5.2,20-13.7,20-13.7-7.3-13.7-20ZM958.7,444.2c0-11-3.8-15.7-9.1-15.7s-9.1,4.7-9.1,15.7,3.8,16,9.1,16,9.1-5,9.1-16ZM945.9,443.8c0-2.5,1.7-4,3.7-4s3.7,1.5,3.7,4-1.7,4-3.7,4-3.7-1.5-3.7-4Z"/>
    <path class="cls-1" d="M985.9,444.2c0-12.8,5.2-19.7,13.7-19.7s13.7,6.9,13.7,19.7-5.2,20-13.7,20-13.7-7.3-13.7-20ZM1008.8,444.2c0-11-3.8-15.7-9.1-15.7s-9.1,4.7-9.1,15.7,3.8,16,9.1,16,9.1-5,9.1-16ZM995.9,443.8c0-2.5,1.7-4,3.7-4s3.7,1.5,3.7,4-1.7,4-3.7,4-3.7-1.5-3.7-4Z"/>
    <path class="cls-1" d="M1035.9,444.2c0-12.8,5.2-19.7,13.7-19.7s13.7,6.9,13.7,19.7-5.2,20-13.7,20-13.7-7.3-13.7-20ZM1058.8,444.2c0-11-3.8-15.7-9.1-15.7s-9.1,4.7-9.1,15.7,3.8,16,9.1,16,9.1-5,9.1-16ZM1046,443.8c0-2.5,1.7-4,3.7-4s3.7,1.5,3.7,4-1.7,4-3.7,4-3.7-1.5-3.7-4Z"/>
    <path class="cls-1" d="M1086,444.2c0-12.8,5.2-19.7,13.7-19.7s13.7,6.9,13.7,19.7-5.2,20-13.7,20-13.7-7.3-13.7-20ZM1108.8,444.2c0-11-3.8-15.7-9.1-15.7s-9.1,4.7-9.1,15.7,3.8,16,9.1,16,9.1-5,9.1-16ZM1096,443.8c0-2.5,1.7-4,3.7-4s3.7,1.5,3.7,4-1.7,4-3.7,4-3.7-1.5-3.7-4Z"/>
    <path class="cls-1" d="M1136,444.2c0-12.8,5.2-19.7,13.7-19.7s13.7,6.9,13.7,19.7-5.2,20-13.7,20-13.7-7.3-13.7-20ZM1158.9,444.2c0-11-3.8-15.7-9.1-15.7s-9.1,4.7-9.1,15.7,3.8,16,9.1,16,9.1-5,9.1-16ZM1146,443.8c0-2.5,1.7-4,3.7-4s3.7,1.5,3.7,4-1.7,4-3.7,4-3.7-1.5-3.7-4Z"/>
    <path class="cls-1" d="M1186.1,444.2c0-12.8,5.2-19.7,13.7-19.7s13.7,6.9,13.7,19.7-5.2,20-13.7,20-13.7-7.3-13.7-20ZM1208.9,444.2c0-11-3.8-15.7-9.1-15.7s-9.1,4.7-9.1,15.7,3.8,16,9.1,16,9.1-5,9.1-16ZM1196.1,443.8c0-2.5,1.7-4,3.7-4s3.7,1.5,3.7,4-1.7,4-3.7,4-3.7-1.5-3.7-4Z"/>
    <path class="cls-1" d="M1237.7,459.3h11v-28.1h-8.6v-3.2c4.5-.6,7.4-1.5,9.8-2.8h3.7v34.1h10v4.1h-26v-4.1Z"/>
    <path class="cls-1" d="M1287.7,459.3h11v-28.1h-8.6v-3.2c4.5-.6,7.4-1.5,9.8-2.8h3.7v34.1h10v4.1h-26v-4.1Z"/>
    <path class="cls-1" d="M1337.7,459.3h11v-28.1h-8.6v-3.2c4.5-.6,7.4-1.5,9.8-2.8h3.7v34.1h10v4.1h-26v-4.1Z"/>
    <path class="cls-1" d="M1387.8,459.3h11v-28.1h-8.6v-3.2c4.5-.6,7.4-1.5,9.8-2.8h3.7v34.1h10v4.1h-26v-4.1Z"/>
    <path class="cls-1" d="M1437.8,459.3h11v-28.1h-8.6v-3.2c4.5-.6,7.4-1.5,9.8-2.8h3.7v34.1h10v4.1h-26v-4.1Z"/>
  </g>
  <g class="cls-7">
    <path class="cls-1" d="M185.3,501.7c0-12.8,5.2-19.7,13.7-19.7s13.7,6.9,13.7,19.7-5.2,20-13.7,20-13.7-7.3-13.7-20ZM208.1,501.7c0-11-3.8-15.7-9.1-15.7s-9.1,4.7-9.1,15.7,3.8,16,9.1,16,9.1-5,9.1-16ZM195.3,501.3c0-2.5,1.7-4,3.7-4s3.7,1.5,3.7,4-1.7,4-3.7,4-3.7-1.5-3.7-4Z"/>
    <path class="cls-1" d="M235.3,501.7c0-12.8,5.2-19.7,13.7-19.7s13.7,6.9,13.7,19.7-5.2,20-13.7,20-13.7-7.3-13.7-20ZM258.2,501.7c0-11-3.8-15.7-9.1-15.7s-9.1,4.7-9.1,15.7,3.8,16,9.1,16,9.1-5,9.1-16ZM245.3,501.3c0-2.5,1.7-4,3.7-4s3.7,1.5,3.7,4-1.7,4-3.7,4-3.7-1.5-3.7-4Z"/>
    <path class="cls-1" d="M285.4,501.7c0-12.8,5.2-19.7,13.7-19.7s13.7,6.9,13.7,19.7-5.2,20-13.7,20-13.7-7.3-13.7-20ZM308.2,501.7c0-11-3.8-15.7-9.1-15.7s-9.1,4.7-9.1,15.7,3.8,16,9.1,16,9.1-5,9.1-16ZM295.4,501.3c0-2.5,1.7-4,3.7-4s3.7,1.5,3.7,4-1.7,4-3.7,4-3.7-1.5-3.7-4Z"/>
    <path class="cls-3" d="M335.4,501.7c0-12.8,5.2-19.7,13.7-19.7s13.7,6.9,13.7,19.7-5.2,20-13.7,20-13.7-7.3-13.7-20ZM358.3,501.7c0-11-3.8-15.7-9.1-15.7s-9.1,4.7-9.1,15.7,3.8,16,9.1,16,9.1-5,9.1-16ZM345.4,501.3c0-2.5,1.7-4,3.7-4s3.7,1.5,3.7,4-1.7,4-3.7,4-3.7-1.5-3.7-4Z"/>
    <path class="cls-3" d="M385.4,501.7c0-12.8,5.2-19.7,13.7-19.7s13.7,6.9,13.7,19.7-5.2,20-13.7,20-13.7-7.3-13.7-20ZM408.3,501.7c0-11-3.8-15.7-9.1-15.7s-9.1,4.7-9.1,15.7,3.8,16,9.1,16,9.1-5,9.1-16ZM395.5,501.3c0-2.5,1.7-4,3.7-4s3.7,1.5,3.7,4-1.7,4-3.7,4-3.7-1.5-3.7-4Z"/>
    <path class="cls-3" d="M435.5,501.7c0-12.8,5.2-19.7,13.7-19.7s13.7,6.9,13.7,19.7-5.2,20-13.7,20-13.7-7.3-13.7-20ZM458.3,501.7c0-11-3.8-15.7-9.1-15.7s-9.1,4.7-9.1,15.7,3.8,16,9.1,16,9.1-5,9.1-16ZM445.5,501.3c0-2.5,1.7-4,3.7-4s3.7,1.5,3.7,4-1.7,4-3.7,4-3.7-1.5-3.7-4Z"/>
    <path class="cls-3" d="M485.5,501.7c0-12.8,5.2-19.7,13.7-19.7s13.7,6.9,13.7,19.7-5.2,20-13.7,20-13.7-7.3-13.7-20ZM508.4,501.7c0-11-3.8-15.7-9.1-15.7s-9.1,4.7-9.1,15.7,3.8,16,9.1,16,9.1-5,9.1-16ZM495.5,501.3c0-2.5,1.7-4,3.7-4s3.7,1.5,3.7,4-1.7,4-3.7,4-3.7-1.5-3.7-4Z"/>
    <path class="cls-3" d="M537.1,516.8h11v-28.1h-8.6v-3.2c4.5-.6,7.4-1.5,9.8-2.8h3.7v34.1h10v4.1h-26v-4.1Z"/>
    <path class="cls-1" d="M587.2,516.8h11v-28.1h-8.6v-3.2c4.5-.6,7.4-1.5,9.8-2.8h3.7v34.1h10v4.1h-26v-4.1Z"/>
    <path class="cls-1" d="M637.2,516.8h11v-28.1h-8.6v-3.2c4.5-.6,7.4-1.5,9.8-2.8h3.7v34.1h10v4.1h-26v-4.1Z"/>
    <path class="cls-1" d="M687.2,516.8h11v-28.1h-8.6v-3.2c4.5-.6,7.4-1.5,9.8-2.8h3.7v34.1h10v4.1h-26v-4.1Z"/>
    <path class="cls-1" d="M737.3,516.8h11v-28.1h-8.6v-3.2c4.5-.6,7.4-1.5,9.8-2.8h3.7v34.1h10v4.1h-26v-4.1Z"/>
    <path class="cls-1" d="M787.3,516.8h11v-28.1h-8.6v-3.2c4.5-.6,7.4-1.5,9.8-2.8h3.7v34.1h10v4.1h-26v-4.1Z"/>
    <path class="cls-1" d="M837.3,516.8h11v-28.1h-8.6v-3.2c4.5-.6,7.4-1.5,9.8-2.8h3.7v34.1h10v4.1h-26v-4.1Z"/>
    <path class="cls-3" d="M887.4,516.8h11v-28.1h-8.6v-3.2c4.5-.6,7.4-1.5,9.8-2.8h3.7v34.1h10v4.1h-26v-4.1Z"/>
    <path class="cls-3" d="M937.4,516.8h11v-28.1h-8.6v-3.2c4.5-.6,7.4-1.5,9.8-2.8h3.7v34.1h10v4.1h-26v-4.1Z"/>
    <path class="cls-3" d="M985.9,501.7c0-12.8,5.2-19.7,13.7-19.7s13.7,6.9,13.7,19.7-5.2,20-13.7,20-13.7-7.3-13.7-20ZM1008.8,501.7c0-11-3.8-15.7-9.1-15.7s-9.1,4.7-9.1,15.7,3.8,16,9.1,16,9.1-5,9.1-16ZM995.9,501.3c0-2.5,1.7-4,3.7-4s3.7,1.5,3.7,4-1.7,4-3.7,4-3.7-1.5-3.7-4Z"/>
    <path class="cls-3" d="M1035.9,501.7c0-12.8,5.2-19.7,13.7-19.7s13.7,6.9,13.7,19.7-5.2,20-13.7,20-13.7-7.3-13.7-20ZM1058.8,501.7c0-11-3.8-15.7-9.1-15.7s-9.1,4.7-9.1,15.7,3.8,16,9.1,16,9.1-5,9.1-16ZM1046,501.3c0-2.5,1.7-4,3.7-4s3.7,1.5,3.7,4-1.7,4-3.7,4-3.7-1.5-3.7-4Z"/>
    <path class="cls-1" d="M1086,501.7c0-12.8,5.2-19.7,13.7-19.7s13.7,6.9,13.7,19.7-5.2,20-13.7,20-13.7-7.3-13.7-20ZM1108.8,501.7c0-11-3.8-15.7-9.1-15.7s-9.1,4.7-9.1,15.7,3.8,16,9.1,16,9.1-5,9.1-16ZM1096,501.3c0-2.5,1.7-4,3.7-4s3.7,1.5,3.7,4-1.7,4-3.7,4-3.7-1.5-3.7-4Z"/>
    <path class="cls-1" d="M1137.6,516.8h11v-28.1h-8.6v-3.2c4.5-.6,7.4-1.5,9.8-2.8h3.7v34.1h10v4.1h-26v-4.1Z"/>
    <path class="cls-1" d="M1186.1,501.7c0-12.8,5.2-19.7,13.7-19.7s13.7,6.9,13.7,19.7-5.2,20-13.7,20-13.7-7.3-13.7-20ZM1208.9,501.7c0-11-3.8-15.7-9.1-15.7s-9.1,4.7-9.1,15.7,3.8,16,9.1,16,9.1-5,9.1-16ZM1196.1,501.3c0-2.5,1.7-4,3.7-4s3.7,1.5,3.7,4-1.7,4-3.7,4-3.7-1.5-3.7-4Z"/>
    <path class="cls-1" d="M1237.7,516.8h11v-28.1h-8.6v-3.2c4.5-.6,7.4-1.5,9.8-2.8h3.7v34.1h10v4.1h-26v-4.1Z"/>
    <path class="cls-1" d="M1286.1,501.7c0-12.8,5.2-19.7,13.7-19.7s13.7,6.9,13.7,19.7-5.2,20-13.7,20-13.7-7.3-13.7-20ZM1309,501.7c0-11-3.8-15.7-9.1-15.7s-9.1,4.7-9.1,15.7,3.8,16,9.1,16,9.1-5,9.1-16ZM1296.2,501.3c0-2.5,1.7-4,3.7-4s3.7,1.5,3.7,4-1.7,4-3.7,4-3.7-1.5-3.7-4Z"/>
    <path class="cls-3" d="M1337.7,516.8h11v-28.1h-8.6v-3.2c4.5-.6,7.4-1.5,9.8-2.8h3.7v34.1h10v4.1h-26v-4.1Z"/>
    <path class="cls-1" d="M1386.2,501.7c0-12.8,5.2-19.7,13.7-19.7s13.7,6.9,13.7,19.7-5.2,20-13.7,20-13.7-7.3-13.7-20ZM1409.1,501.7c0-11-3.8-15.7-9.1-15.7s-9.1,4.7-9.1,15.7,3.8,16,9.1,16,9.1-5,9.1-16ZM1396.2,501.3c0-2.5,1.7-4,3.7-4s3.7,1.5,3.7,4-1.7,4-3.7,4-3.7-1.5-3.7-4Z"/>
    <path class="cls-1" d="M1437.8,516.8h11v-28.1h-8.6v-3.2c4.5-.6,7.4-1.5,9.8-2.8h3.7v34.1h10v4.1h-26v-4.1Z"/>
  </g>
  <g class="cls-7">
    <path class="cls-1" d="M186.8,577.4h11v-28.1h-8.6v-3.2c4.5-.6,7.4-1.5,9.8-2.8h3.7v34.1h10v4.1h-26v-4.1Z"/>
    <path class="cls-1" d="M235.3,562.3c0-12.8,5.2-19.7,13.7-19.7s13.7,6.9,13.7,19.7-5.2,20-13.7,20-13.7-7.3-13.7-20ZM258.2,562.3c0-11-3.8-15.7-9.1-15.7s-9.1,4.7-9.1,15.7,3.8,16,9.1,16,9.1-5,9.1-16ZM245.3,561.9c0-2.5,1.7-4,3.7-4s3.7,1.5,3.7,4-1.7,4-3.7,4-3.7-1.5-3.7-4Z"/>
    <path class="cls-3" d="M286.9,577.4h11v-28.1h-8.6v-3.2c4.5-.6,7.4-1.5,9.8-2.8h3.7v34.1h10v4.1h-26v-4.1Z"/>
    <path class="cls-3" d="M335.4,562.3c0-12.8,5.2-19.7,13.7-19.7s13.7,6.9,13.7,19.7-5.2,20-13.7,20-13.7-7.3-13.7-20ZM358.3,562.3c0-11-3.8-15.7-9.1-15.7s-9.1,4.7-9.1,15.7,3.8,16,9.1,16,9.1-5,9.1-16ZM345.4,561.9c0-2.5,1.7-4,3.7-4s3.7,1.5,3.7,4-1.7,4-3.7,4-3.7-1.5-3.7-4Z"/>
    <path class="cls-3" d="M387,577.4h11v-28.1h-8.6v-3.2c4.5-.6,7.4-1.5,9.8-2.8h3.7v34.1h10v4.1h-26v-4.1Z"/>
    <path class="cls-3" d="M435.5,562.3c0-12.8,5.2-19.7,13.7-19.7s13.7,6.9,13.7,19.7-5.2,20-13.7,20-13.7-7.3-13.7-20ZM458.3,562.3c0-11-3.8-15.7-9.1-15.7s-9.1,4.7-9.1,15.7,3.8,16,9.1,16,9.1-5,9.1-16ZM445.5,561.9c0-2.5,1.7-4,3.7-4s3.7,1.5,3.7,4-1.7,4-3.7,4-3.7-1.5-3.7-4Z"/>
    <path class="cls-3" d="M485.5,562.3c0-12.8,5.2-19.7,13.7-19.7s13.7,6.9,13.7,19.7-5.2,20-13.7,20-13.7-7.3-13.7-20ZM508.4,562.3c0-11-3.8-15.7-9.1-15.7s-9.1,4.7-9.1,15.7,3.8,16,9.1,16,9.1-5,9.1-16ZM495.5,561.9c0-2.5,1.7-4,3.7-4s3.7,1.5,3.7,4-1.7,4-3.7,4-3.7-1.5-3.7-4Z"/>
    <path class="cls-1" d="M537.1,577.4h11v-28.1h-8.6v-3.2c4.5-.6,7.4-1.5,9.8-2.8h3.7v34.1h10v4.1h-26v-4.1Z"/>
    <path class="cls-1" d="M587.2,577.4h11v-28.1h-8.6v-3.2c4.5-.6,7.4-1.5,9.8-2.8h3.7v34.1h10v4.1h-26v-4.1Z"/>
    <path class="cls-1" d="M635.6,562.3c0-12.8,5.2-19.7,13.7-19.7s13.7,6.9,13.7,19.7-5.2,20-13.7,20-13.7-7.3-13.7-20ZM658.5,562.3c0-11-3.8-15.7-9.1-15.7s-9.1,4.7-9.1,15.7,3.8,16,9.1,16,9.1-5,9.1-16ZM645.7,561.9c0-2.5,1.7-4,3.7-4s3.7,1.5,3.7,4-1.7,4-3.7,4-3.7-1.5-3.7-4Z"/>
    <path class="cls-3" d="M685.7,562.3c0-12.8,5.2-19.7,13.7-19.7s13.7,6.9,13.7,19.7-5.2,20-13.7,20-13.7-7.3-13.7-20ZM708.5,562.3c0-11-3.8-15.7-9.1-15.7s-9.1,4.7-9.1,15.7,3.8,16,9.1,16,9.1-5,9.1-16ZM695.7,561.9c0-2.5,1.7-4,3.7-4s3.7,1.5,3.7,4-1.7,4-3.7,4-3.7-1.5-3.7-4Z"/>
    <path class="cls-3" d="M737.3,577.4h11v-28.1h-8.6v-3.2c4.5-.6,7.4-1.5,9.8-2.8h3.7v34.1h10v4.1h-26v-4.1Z"/>
    <path class="cls-3" d="M785.8,562.3c0-12.8,5.2-19.7,13.7-19.7s13.7,6.9,13.7,19.7-5.2,20-13.7,20-13.7-7.3-13.7-20ZM808.6,562.3c0-11-3.8-15.7-9.1-15.7s-9.1,4.7-9.1,15.7,3.8,16,9.1,16,9.1-5,9.1-16ZM795.8,561.9c0-2.5,1.7-4,3.7-4s3.7,1.5,3.7,4-1.7,4-3.7,4-3.7-1.5-3.7-4Z"/>
    <path class="cls-3" d="M837.3,577.4h11v-28.1h-8.6v-3.2c4.5-.6,7.4-1.5,9.8-2.8h3.7v34.1h10v4.1h-26v-4.1Z"/>
    <path class="cls-3" d="M885.8,562.3c0-12.8,5.2-19.7,13.7-19.7s13.7,6.9,13.7,19.7-5.2,20-13.7,20-13.7-7.3-13.7-20ZM908.7,562.3c0-11-3.8-15.7-9.1-15.7s-9.1,4.7-9.1,15.7,3.8,16,9.1,16,9.1-5,9.1-16ZM895.8,561.9c0-2.5,1.7-4,3.7-4s3.7,1.5,3.7,4-1.7,4-3.7,4-3.7-1.5-3.7-4Z"/>
    <path class="cls-1" d="M937.4,577.4h11v-28.1h-8.6v-3.2c4.5-.6,7.4-1.5,9.8-2.8h3.7v34.1h10v4.1h-26v-4.1Z"/>
    <path class="cls-1" d="M985.9,562.3c0-12.8,5.2-19.7,13.7-19.7s13.7,6.9,13.7,19.7-5.2,20-13.7,20-13.7-7.3-13.7-20ZM1008.8,562.3c0-11-3.8-15.7-9.1-15.7s-9.1,4.7-9.1,15.7,3.8,16,9.1,16,9.1-5,9.1-16ZM995.9,561.9c0-2.5,1.7-4,3.7-4s3.7,1.5,3.7,4-1.7,4-3.7,4-3.7-1.5-3.7-4Z"/>
    <path class="cls-1" d="M1037.5,577.4h11v-28.1h-8.6v-3.2c4.5-.6,7.4-1.5,9.8-2.8h3.7v34.1h10v4.1h-26v-4.1Z"/>
    <path class="cls-1" d="M1086,562.3c0-12.8,5.2-19.7,13.7-19.7s13.7,6.9,13.7,19.7-5.2,20-13.7,20-13.7-7.3-13.7-20ZM1108.8,562.3c0-11-3.8-15.7-9.1-15.7s-9.1,4.7-9.1,15.7,3.8,16,9.1,16,9.1-5,9.1-16ZM1096,561.9c0-2.5,1.7-4,3.7-4s3.7,1.5,3.7,4-1.7,4-3.7,4-3.7-1.5-3.7-4Z"/>
    <path class="cls-3" d="M1136,562.3c0-12.8,5.2-19.7,13.7-19.7s13.7,6.9,13.7,19.7-5.2,20-13.7,20-13.7-7.3-13.7-20ZM1158.9,562.3c0-11-3.8-15.7-9.1-15.7s-9.1,4.7-9.1,15.7,3.8,16,9.1,16,9.1-5,9.1-16ZM1146,561.9c0-2.5,1.7-4,3.7-4s3.7,1.5,3.7,4-1.7,4-3.7,4-3.7-1.5-3.7-4Z"/>
    <path class="cls-3" d="M1187.6,577.4h11v-28.1h-8.6v-3.2c4.5-.6,7.4-1.5,9.8-2.8h3.7v34.1h10v4.1h-26v-4.1Z"/>
    <path class="cls-3" d="M1237.7,577.4h11v-28.1h-8.6v-3.2c4.5-.6,7.4-1.5,9.8-2.8h3.7v34.1h10v4.1h-26v-4.1Z"/>
    <path class="cls-3" d="M1286.1,562.3c0-12.8,5.2-19.7,13.7-19.7s13.7,6.9,13.7,19.7-5.2,20-13.7,20-13.7-7.3-13.7-20ZM1309,562.3c0-11-3.8-15.7-9.1-15.7s-9.1,4.7-9.1,15.7,3.8,16,9.1,16,9.1-5,9.1-16ZM1296.2,561.9c0-2.5,1.7-4,3.7-4s3.7,1.5,3.7,4-1.7,4-3.7,4-3.7-1.5-3.7-4Z"/>
    <path class="cls-3" d="M1336.2,562.3c0-12.8,5.2-19.7,13.7-19.7s13.7,6.9,13.7,19.7-5.2,20-13.7,20-13.7-7.3-13.7-20ZM1359,562.3c0-11-3.8-15.7-9.1-15.7s-9.1,4.7-9.1,15.7,3.8,16,9.1,16,9.1-5,9.1-16ZM1346.2,561.9c0-2.5,1.7-4,3.7-4s3.7,1.5,3.7,4-1.7,4-3.7,4-3.7-1.5-3.7-4Z"/>
    <path class="cls-3" d="M1387.8,577.4h11v-28.1h-8.6v-3.2c4.5-.6,7.4-1.5,9.8-2.8h3.7v34.1h10v4.1h-26v-4.1Z"/>
    <path class="cls-3" d="M1437.8,577.4h11v-28.1h-8.6v-3.2c4.5-.6,7.4-1.5,9.8-2.8h3.7v34.1h10v4.1h-26v-4.1Z"/>
  </g>
  <g class="cls-7">
    <path class="cls-3" d="M186.8,638.7h11v-28.1h-8.6v-3.2c4.5-.6,7.4-1.5,9.8-2.8h3.7v34.1h10v4.1h-26v-4.1Z"/>
    <path class="cls-3" d="M236.9,638.7h11v-28.1h-8.6v-3.2c4.5-.6,7.4-1.5,9.8-2.8h3.7v34.1h10v4.1h-26v-4.1Z"/>
    <path class="cls-3" d="M286.9,638.7h11v-28.1h-8.6v-3.2c4.5-.6,7.4-1.5,9.8-2.8h3.7v34.1h10v4.1h-26v-4.1Z"/>
    <path class="cls-3" d="M335.4,623.6c0-12.8,5.2-19.7,13.7-19.7s13.7,6.9,13.7,19.7-5.2,20-13.7,20-13.7-7.3-13.7-20ZM358.3,623.6c0-11-3.8-15.7-9.1-15.7s-9.1,4.7-9.1,15.7,3.8,16,9.1,16,9.1-5,9.1-16ZM345.4,623.1c0-2.5,1.7-4,3.7-4s3.7,1.5,3.7,4-1.7,4-3.7,4-3.7-1.5-3.7-4Z"/>
    <path class="cls-1" d="M387,638.7h11v-28.1h-8.6v-3.2c4.5-.6,7.4-1.5,9.8-2.8h3.7v34.1h10v4.1h-26v-4.1Z"/>
    <path class="cls-1" d="M435.5,623.6c0-12.8,5.2-19.7,13.7-19.7s13.7,6.9,13.7,19.7-5.2,20-13.7,20-13.7-7.3-13.7-20ZM458.3,623.6c0-11-3.8-15.7-9.1-15.7s-9.1,4.7-9.1,15.7,3.8,16,9.1,16,9.1-5,9.1-16ZM445.5,623.1c0-2.5,1.7-4,3.7-4s3.7,1.5,3.7,4-1.7,4-3.7,4-3.7-1.5-3.7-4Z"/>
    <path class="cls-1" d="M485.5,623.6c0-12.8,5.2-19.7,13.7-19.7s13.7,6.9,13.7,19.7-5.2,20-13.7,20-13.7-7.3-13.7-20ZM508.4,623.6c0-11-3.8-15.7-9.1-15.7s-9.1,4.7-9.1,15.7,3.8,16,9.1,16,9.1-5,9.1-16ZM495.5,623.1c0-2.5,1.7-4,3.7-4s3.7,1.5,3.7,4-1.7,4-3.7,4-3.7-1.5-3.7-4Z"/>
    <path class="cls-1" d="M537.1,638.7h11v-28.1h-8.6v-3.2c4.5-.6,7.4-1.5,9.8-2.8h3.7v34.1h10v4.1h-26v-4.1Z"/>
    <path class="cls-3" d="M585.6,623.6c0-12.8,5.2-19.7,13.7-19.7s13.7,6.9,13.7,19.7-5.2,20-13.7,20-13.7-7.3-13.7-20ZM608.5,623.6c0-11-3.8-15.7-9.1-15.7s-9.1,4.7-9.1,15.7,3.8,16,9.1,16,9.1-5,9.1-16ZM595.6,623.1c0-2.5,1.7-4,3.7-4s3.7,1.5,3.7,4-1.7,4-3.7,4-3.7-1.5-3.7-4Z"/>
    <path class="cls-3" d="M637.2,638.7h11v-28.1h-8.6v-3.2c4.5-.6,7.4-1.5,9.8-2.8h3.7v34.1h10v4.1h-26v-4.1Z"/>
    <path class="cls-3" d="M685.7,623.6c0-12.8,5.2-19.7,13.7-19.7s13.7,6.9,13.7,19.7-5.2,20-13.7,20-13.7-7.3-13.7-20ZM708.5,623.6c0-11-3.8-15.7-9.1-15.7s-9.1,4.7-9.1,15.7,3.8,16,9.1,16,9.1-5,9.1-16ZM695.7,623.1c0-2.5,1.7-4,3.7-4s3.7,1.5,3.7,4-1.7,4-3.7,4-3.7-1.5-3.7-4Z"/>
    <path class="cls-3" d="M735.7,623.6c0-12.8,5.2-19.7,13.7-19.7s13.7,6.9,13.7,19.7-5.2,20-13.7,20-13.7-7.3-13.7-20ZM758.6,623.6c0-11-3.8-15.7-9.1-15.7s-9.1,4.7-9.1,15.7,3.8,16,9.1,16,9.1-5,9.1-16ZM745.7,623.1c0-2.5,1.7-4,3.7-4s3.7,1.5,3.7,4-1.7,4-3.7,4-3.7-1.5-3.7-4Z"/>
    <path class="cls-3" d="M787.3,638.7h11v-28.1h-8.6v-3.2c4.5-.6,7.4-1.5,9.8-2.8h3.7v34.1h10v4.1h-26v-4.1Z"/>
    <path class="cls-3" d="M835.8,623.6c0-12.8,5.2-19.7,13.7-19.7s13.7,6.9,13.7,19.7-5.2,20-13.7,20-13.7-7.3-13.7-20ZM858.6,623.6c0-11-3.8-15.7-9.1-15.7s-9.1,4.7-9.1,15.7,3.8,16,9.1,16,9.1-5,9.1-16ZM845.8,623.1c0-2.5,1.7-4,3.7-4s3.7,1.5,3.7,4-1.7,4-3.7,4-3.7-1.5-3.7-4Z"/>
    <path class="cls-3" d="M887.4,638.7h11v-28.1h-8.6v-3.2c4.5-.6,7.4-1.5,9.8-2.8h3.7v34.1h10v4.1h-26v-4.1Z"/>
    <path class="cls-3" d="M935.9,623.6c0-12.8,5.2-19.7,13.7-19.7s13.7,6.9,13.7,19.7-5.2,20-13.7,20-13.7-7.3-13.7-20ZM958.7,623.6c0-11-3.8-15.7-9.1-15.7s-9.1,4.7-9.1,15.7,3.8,16,9.1,16,9.1-5,9.1-16ZM945.9,623.1c0-2.5,1.7-4,3.7-4s3.7,1.5,3.7,4-1.7,4-3.7,4-3.7-1.5-3.7-4Z"/>
    <path class="cls-1" d="M987.5,638.7h11v-28.1h-8.6v-3.2c4.5-.6,7.4-1.5,9.8-2.8h3.7v34.1h10v4.1h-26v-4.1Z"/>
    <path class="cls-3" d="M1035.9,623.6c0-12.8,5.2-19.7,13.7-19.7s13.7,6.9,13.7,19.7-5.2,20-13.7,20-13.7-7.3-13.7-20ZM1058.8,623.6c0-11-3.8-15.7-9.1-15.7s-9.1,4.7-9.1,15.7,3.8,16,9.1,16,9.1-5,9.1-16ZM1046,623.1c0-2.5,1.7-4,3.7-4s3.7,1.5,3.7,4-1.7,4-3.7,4-3.7-1.5-3.7-4Z"/>
    <path class="cls-3" d="M1087.5,638.7h11v-28.1h-8.6v-3.2c4.5-.6,7.4-1.5,9.8-2.8h3.7v34.1h10v4.1h-26v-4.1Z"/>
    <path class="cls-3" d="M1136,623.6c0-12.8,5.2-19.7,13.7-19.7s13.7,6.9,13.7,19.7-5.2,20-13.7,20-13.7-7.3-13.7-20ZM1158.9,623.6c0-11-3.8-15.7-9.1-15.7s-9.1,4.7-9.1,15.7,3.8,16,9.1,16,9.1-5,9.1-16ZM1146,623.1c0-2.5,1.7-4,3.7-4s3.7,1.5,3.7,4-1.7,4-3.7,4-3.7-1.5-3.7-4Z"/>
    <path class="cls-1" d="M1187.6,638.7h11v-28.1h-8.6v-3.2c4.5-.6,7.4-1.5,9.8-2.8h3.7v34.1h10v4.1h-26v-4.1Z"/>
    <path class="cls-1" d="M1237.7,638.7h11v-28.1h-8.6v-3.2c4.5-.6,7.4-1.5,9.8-2.8h3.7v34.1h10v4.1h-26v-4.1Z"/>
    <path class="cls-1" d="M1286.1,623.6c0-12.8,5.2-19.7,13.7-19.7s13.7,6.9,13.7,19.7-5.2,20-13.7,20-13.7-7.3-13.7-20ZM1309,623.6c0-11-3.8-15.7-9.1-15.7s-9.1,4.7-9.1,15.7,3.8,16,9.1,16,9.1-5,9.1-16ZM1296.2,623.1c0-2.5,1.7-4,3.7-4s3.7,1.5,3.7,4-1.7,4-3.7,4-3.7-1.5-3.7-4Z"/>
    <path class="cls-1" d="M1337.7,638.7h11v-28.1h-8.6v-3.2c4.5-.6,7.4-1.5,9.8-2.8h3.7v34.1h10v4.1h-26v-4.1Z"/>
    <path class="cls-1" d="M1387.8,638.7h11v-28.1h-8.6v-3.2c4.5-.6,7.4-1.5,9.8-2.8h3.7v34.1h10v4.1h-26v-4.1Z"/>
    <path class="cls-1" d="M1437.8,638.7h11v-28.1h-8.6v-3.2c4.5-.6,7.4-1.5,9.8-2.8h3.7v34.1h10v4.1h-26v-4.1Z"/>
  </g>
  <g class="cls-7">
    <path class="cls-4" d="M185.3,679.8c0-12.8,5.2-19.7,13.7-19.7s13.7,6.9,13.7,19.7-5.2,20-13.7,20-13.7-7.3-13.7-20ZM208.1,679.8c0-11-3.8-15.7-9.1-15.7s-9.1,4.7-9.1,15.7,3.8,16,9.1,16,9.1-5,9.1-16ZM195.3,679.4c0-2.5,1.7-4,3.7-4s3.7,1.5,3.7,4-1.7,4-3.7,4-3.7-1.5-3.7-4Z"/>
    <path class="cls-4" d="M235.3,679.8c0-12.8,5.2-19.7,13.7-19.7s13.7,6.9,13.7,19.7-5.2,20-13.7,20-13.7-7.3-13.7-20ZM258.2,679.8c0-11-3.8-15.7-9.1-15.7s-9.1,4.7-9.1,15.7,3.8,16,9.1,16,9.1-5,9.1-16ZM245.3,679.4c0-2.5,1.7-4,3.7-4s3.7,1.5,3.7,4-1.7,4-3.7,4-3.7-1.5-3.7-4Z"/>
    <path class="cls-4" d="M285.4,679.8c0-12.8,5.2-19.7,13.7-19.7s13.7,6.9,13.7,19.7-5.2,20-13.7,20-13.7-7.3-13.7-20ZM308.2,679.8c0-11-3.8-15.7-9.1-15.7s-9.1,4.7-9.1,15.7,3.8,16,9.1,16,9.1-5,9.1-16ZM295.4,679.4c0-2.5,1.7-4,3.7-4s3.7,1.5,3.7,4-1.7,4-3.7,4-3.7-1.5-3.7-4Z"/>
    <path class="cls-4" d="M335.4,679.8c0-12.8,5.2-19.7,13.7-19.7s13.7,6.9,13.7,19.7-5.2,20-13.7,20-13.7-7.3-13.7-20ZM358.3,679.8c0-11-3.8-15.7-9.1-15.7s-9.1,4.7-9.1,15.7,3.8,16,9.1,16,9.1-5,9.1-16ZM345.4,679.4c0-2.5,1.7-4,3.7-4s3.7,1.5,3.7,4-1.7,4-3.7,4-3.7-1.5-3.7-4Z"/>
    <path class="cls-4" d="M385.4,679.8c0-12.8,5.2-19.7,13.7-19.7s13.7,6.9,13.7,19.7-5.2,20-13.7,20-13.7-7.3-13.7-20ZM408.3,679.8c0-11-3.8-15.7-9.1-15.7s-9.1,4.7-9.1,15.7,3.8,16,9.1,16,9.1-5,9.1-16ZM395.5,679.4c0-2.5,1.7-4,3.7-4s3.7,1.5,3.7,4-1.7,4-3.7,4-3.7-1.5-3.7-4Z"/>
    <path class="cls-4" d="M435.5,679.8c0-12.8,5.2-19.7,13.7-19.7s13.7,6.9,13.7,19.7-5.2,20-13.7,20-13.7-7.3-13.7-20ZM458.3,679.8c0-11-3.8-15.7-9.1-15.7s-9.1,4.7-9.1,15.7,3.8,16,9.1,16,9.1-5,9.1-16ZM445.5,679.4c0-2.5,1.7-4,3.7-4s3.7,1.5,3.7,4-1.7,4-3.7,4-3.7-1.5-3.7-4Z"/>
    <path class="cls-4" d="M485.5,679.8c0-12.8,5.2-19.7,13.7-19.7s13.7,6.9,13.7,19.7-5.2,20-13.7,20-13.7-7.3-13.7-20ZM508.4,679.8c0-11-3.8-15.7-9.1-15.7s-9.1,4.7-9.1,15.7,3.8,16,9.1,16,9.1-5,9.1-16ZM495.5,679.4c0-2.5,1.7-4,3.7-4s3.7,1.5,3.7,4-1.7,4-3.7,4-3.7-1.5-3.7-4Z"/>
    <path class="cls-4" d="M535.6,679.8c0-12.8,5.2-19.7,13.7-19.7s13.7,6.9,13.7,19.7-5.2,20-13.7,20-13.7-7.3-13.7-20ZM558.4,679.8c0-11-3.8-15.7-9.1-15.7s-9.1,4.7-9.1,15.7,3.8,16,9.1,16,9.1-5,9.1-16ZM545.6,679.4c0-2.5,1.7-4,3.7-4s3.7,1.5,3.7,4-1.7,4-3.7,4-3.7-1.5-3.7-4Z"/>
    <path class="cls-4" d="M585.6,679.8c0-12.8,5.2-19.7,13.7-19.7s13.7,6.9,13.7,19.7-5.2,20-13.7,20-13.7-7.3-13.7-20ZM608.5,679.8c0-11-3.8-15.7-9.1-15.7s-9.1,4.7-9.1,15.7,3.8,16,9.1,16,9.1-5,9.1-16ZM595.6,679.4c0-2.5,1.7-4,3.7-4s3.7,1.5,3.7,4-1.7,4-3.7,4-3.7-1.5-3.7-4Z"/>
    <path class="cls-4" d="M635.6,679.8c0-12.8,5.2-19.7,13.7-19.7s13.7,6.9,13.7,19.7-5.2,20-13.7,20-13.7-7.3-13.7-20ZM658.5,679.8c0-11-3.8-15.7-9.1-15.7s-9.1,4.7-9.1,15.7,3.8,16,9.1,16,9.1-5,9.1-16ZM645.7,679.4c0-2.5,1.7-4,3.7-4s3.7,1.5,3.7,4-1.7,4-3.7,4-3.7-1.5-3.7-4Z"/>
    <path class="cls-4" d="M687.2,695h11v-28.1h-8.6v-3.2c4.5-.6,7.4-1.5,9.8-2.8h3.7v34.1h10v4.1h-26v-4.1Z"/>
    <path class="cls-4" d="M737.3,695h11v-28.1h-8.6v-3.2c4.5-.6,7.4-1.5,9.8-2.8h3.7v34.1h10v4.1h-26v-4.1Z"/>
    <path class="cls-4" d="M787.3,695h11v-28.1h-8.6v-3.2c4.5-.6,7.4-1.5,9.8-2.8h3.7v34.1h10v4.1h-26v-4.1Z"/>
    <path class="cls-4" d="M837.3,695h11v-28.1h-8.6v-3.2c4.5-.6,7.4-1.5,9.8-2.8h3.7v34.1h10v4.1h-26v-4.1Z"/>
    <path class="cls-4" d="M887.4,695h11v-28.1h-8.6v-3.2c4.5-.6,7.4-1.5,9.8-2.8h3.7v34.1h10v4.1h-26v-4.1Z"/>
    <path class="cls-4" d="M937.4,695h11v-28.1h-8.6v-3.2c4.5-.6,7.4-1.5,9.8-2.8h3.7v34.1h10v4.1h-26v-4.1Z"/>
    <path class="cls-4" d="M987.5,695h11v-28.1h-8.6v-3.2c4.5-.6,7.4-1.5,9.8-2.8h3.7v34.1h10v4.1h-26v-4.1Z"/>
    <path class="cls-4" d="M1037.5,695h11v-28.1h-8.6v-3.2c4.5-.6,7.4-1.5,9.8-2.8h3.7v34.1h10v4.1h-26v-4.1Z"/>
    <path class="cls-4" d="M1087.5,695h11v-28.1h-8.6v-3.2c4.5-.6,7.4-1.5,9.8-2.8h3.7v34.1h10v4.1h-26v-4.1Z"/>
    <path class="cls-4" d="M1137.6,695h11v-28.1h-8.6v-3.2c4.5-.6,7.4-1.5,9.8-2.8h3.7v34.1h10v4.1h-26v-4.1Z"/>
    <path class="cls-4" d="M1187.6,695h11v-28.1h-8.6v-3.2c4.5-.6,7.4-1.5,9.8-2.8h3.7v34.1h10v4.1h-26v-4.1Z"/>
    <path class="cls-4" d="M1237.7,695h11v-28.1h-8.6v-3.2c4.5-.6,7.4-1.5,9.8-2.8h3.7v34.1h10v4.1h-26v-4.1Z"/>
    <path class="cls-4" d="M1286.1,679.8c0-12.8,5.2-19.7,13.7-19.7s13.7,6.9,13.7,19.7-5.2,20-13.7,20-13.7-7.3-13.7-20ZM1309,679.8c0-11-3.8-15.7-9.1-15.7s-9.1,4.7-9.1,15.7,3.8,16,9.1,16,9.1-5,9.1-16ZM1296.2,679.4c0-2.5,1.7-4,3.7-4s3.7,1.5,3.7,4-1.7,4-3.7,4-3.7-1.5-3.7-4Z"/>
    <path class="cls-4" d="M1336.2,679.8c0-12.8,5.2-19.7,13.7-19.7s13.7,6.9,13.7,19.7-5.2,20-13.7,20-13.7-7.3-13.7-20ZM1359,679.8c0-11-3.8-15.7-9.1-15.7s-9.1,4.7-9.1,15.7,3.8,16,9.1,16,9.1-5,9.1-16ZM1346.2,679.4c0-2.5,1.7-4,3.7-4s3.7,1.5,3.7,4-1.7,4-3.7,4-3.7-1.5-3.7-4Z"/>
    <path class="cls-4" d="M1386.2,679.8c0-12.8,5.2-19.7,13.7-19.7s13.7,6.9,13.7,19.7-5.2,20-13.7,20-13.7-7.3-13.7-20ZM1409.1,679.8c0-11-3.8-15.7-9.1-15.7s-9.1,4.7-9.1,15.7,3.8,16,9.1,16,9.1-5,9.1-16ZM1396.2,679.4c0-2.5,1.7-4,3.7-4s3.7,1.5,3.7,4-1.7,4-3.7,4-3.7-1.5-3.7-4Z"/>
    <path class="cls-4" d="M1436.2,679.8c0-12.8,5.2-19.7,13.7-19.7s13.7,6.9,13.7,19.7-5.2,20-13.7,20-13.7-7.3-13.7-20ZM1459.1,679.8c0-11-3.8-15.7-9.1-15.7s-9.1,4.7-9.1,15.7,3.8,16,9.1,16,9.1-5,9.1-16ZM1446.3,679.4c0-2.5,1.7-4,3.7-4s3.7,1.5,3.7,4-1.7,4-3.7,4-3.7-1.5-3.7-4Z"/>
  </g>
  <g class="cls-7">
    <path class="cls-1" d="M186.8,755.2h11v-28.1h-8.6v-3.2c4.5-.6,7.4-1.5,9.8-2.8h3.7v34.1h10v4.1h-26v-4.1Z"/>
    <path class="cls-1" d="M235.3,740.1c0-12.8,5.2-19.7,13.7-19.7s13.7,6.9,13.7,19.7-5.2,20-13.7,20-13.7-7.3-13.7-20ZM258.2,740.1c0-11-3.8-15.7-9.1-15.7s-9.1,4.7-9.1,15.7,3.8,16,9.1,16,9.1-5,9.1-16ZM245.3,739.7c0-2.5,1.7-4,3.7-4s3.7,1.5,3.7,4-1.7,4-3.7,4-3.7-1.5-3.7-4Z"/>
    <path class="cls-1" d="M286.9,755.2h11v-28.1h-8.6v-3.2c4.5-.6,7.4-1.5,9.8-2.8h3.7v34.1h10v4.1h-26v-4.1Z"/>
    <path class="cls-1" d="M335.4,740.1c0-12.8,5.2-19.7,13.7-19.7s13.7,6.9,13.7,19.7-5.2,20-13.7,20-13.7-7.3-13.7-20ZM358.3,740.1c0-11-3.8-15.7-9.1-15.7s-9.1,4.7-9.1,15.7,3.8,16,9.1,16,9.1-5,9.1-16ZM345.4,739.7c0-2.5,1.7-4,3.7-4s3.7,1.5,3.7,4-1.7,4-3.7,4-3.7-1.5-3.7-4Z"/>
    <path class="cls-1" d="M387,755.2h11v-28.1h-8.6v-3.2c4.5-.6,7.4-1.5,9.8-2.8h3.7v34.1h10v4.1h-26v-4.1Z"/>
    <path class="cls-3" d="M435.5,740.1c0-12.8,5.2-19.7,13.7-19.7s13.7,6.9,13.7,19.7-5.2,20-13.7,20-13.7-7.3-13.7-20ZM458.3,740.1c0-11-3.8-15.7-9.1-15.7s-9.1,4.7-9.1,15.7,3.8,16,9.1,16,9.1-5,9.1-16ZM445.5,739.7c0-2.5,1.7-4,3.7-4s3.7,1.5,3.7,4-1.7,4-3.7,4-3.7-1.5-3.7-4Z"/>
    <path class="cls-3" d="M487.1,755.2h11v-28.1h-8.6v-3.2c4.5-.6,7.4-1.5,9.8-2.8h3.7v34.1h10v4.1h-26v-4.1Z"/>
    <path class="cls-3" d="M535.6,740.1c0-12.8,5.2-19.7,13.7-19.7s13.7,6.9,13.7,19.7-5.2,20-13.7,20-13.7-7.3-13.7-20ZM558.4,740.1c0-11-3.8-15.7-9.1-15.7s-9.1,4.7-9.1,15.7,3.8,16,9.1,16,9.1-5,9.1-16ZM545.6,739.7c0-2.5,1.7-4,3.7-4s3.7,1.5,3.7,4-1.7,4-3.7,4-3.7-1.5-3.7-4Z"/>
    <path class="cls-3" d="M585.6,740.1c0-12.8,5.2-19.7,13.7-19.7s13.7,6.9,13.7,19.7-5.2,20-13.7,20-13.7-7.3-13.7-20ZM608.5,740.1c0-11-3.8-15.7-9.1-15.7s-9.1,4.7-9.1,15.7,3.8,16,9.1,16,9.1-5,9.1-16ZM595.6,739.7c0-2.5,1.7-4,3.7-4s3.7,1.5,3.7,4-1.7,4-3.7,4-3.7-1.5-3.7-4Z"/>
    <path class="cls-1" d="M635.6,740.1c0-12.8,5.2-19.7,13.7-19.7s13.7,6.9,13.7,19.7-5.2,20-13.7,20-13.7-7.3-13.7-20ZM658.5,740.1c0-11-3.8-15.7-9.1-15.7s-9.1,4.7-9.1,15.7,3.8,16,9.1,16,9.1-5,9.1-16ZM645.7,739.7c0-2.5,1.7-4,3.7-4s3.7,1.5,3.7,4-1.7,4-3.7,4-3.7-1.5-3.7-4Z"/>
    <path class="cls-1" d="M687.2,755.2h11v-28.1h-8.6v-3.2c4.5-.6,7.4-1.5,9.8-2.8h3.7v34.1h10v4.1h-26v-4.1Z"/>
    <path class="cls-1" d="M735.7,740.1c0-12.8,5.2-19.7,13.7-19.7s13.7,6.9,13.7,19.7-5.2,20-13.7,20-13.7-7.3-13.7-20ZM758.6,740.1c0-11-3.8-15.7-9.1-15.7s-9.1,4.7-9.1,15.7,3.8,16,9.1,16,9.1-5,9.1-16ZM745.7,739.7c0-2.5,1.7-4,3.7-4s3.7,1.5,3.7,4-1.7,4-3.7,4-3.7-1.5-3.7-4Z"/>
    <path class="cls-1" d="M785.8,740.1c0-12.8,5.2-19.7,13.7-19.7s13.7,6.9,13.7,19.7-5.2,20-13.7,20-13.7-7.3-13.7-20ZM808.6,740.1c0-11-3.8-15.7-9.1-15.7s-9.1,4.7-9.1,15.7,3.8,16,9.1,16,9.1-5,9.1-16ZM795.8,739.7c0-2.5,1.7-4,3.7-4s3.7,1.5,3.7,4-1.7,4-3.7,4-3.7-1.5-3.7-4Z"/>
    <path class="cls-1" d="M835.8,740.1c0-12.8,5.2-19.7,13.7-19.7s13.7,6.9,13.7,19.7-5.2,20-13.7,20-13.7-7.3-13.7-20ZM858.6,740.1c0-11-3.8-15.7-9.1-15.7s-9.1,4.7-9.1,15.7,3.8,16,9.1,16,9.1-5,9.1-16ZM845.8,739.7c0-2.5,1.7-4,3.7-4s3.7,1.5,3.7,4-1.7,4-3.7,4-3.7-1.5-3.7-4Z"/>
    <path class="cls-1" d="M887.4,755.2h11v-28.1h-8.6v-3.2c4.5-.6,7.4-1.5,9.8-2.8h3.7v34.1h10v4.1h-26v-4.1Z"/>
    <path class="cls-3" d="M935.9,740.1c0-12.8,5.2-19.7,13.7-19.7s13.7,6.9,13.7,19.7-5.2,20-13.7,20-13.7-7.3-13.7-20ZM958.7,740.1c0-11-3.8-15.7-9.1-15.7s-9.1,4.7-9.1,15.7,3.8,16,9.1,16,9.1-5,9.1-16ZM945.9,739.7c0-2.5,1.7-4,3.7-4s3.7,1.5,3.7,4-1.7,4-3.7,4-3.7-1.5-3.7-4Z"/>
    <path class="cls-3" d="M987.5,755.2h11v-28.1h-8.6v-3.2c4.5-.6,7.4-1.5,9.8-2.8h3.7v34.1h10v4.1h-26v-4.1Z"/>
    <path class="cls-3" d="M1035.9,740.1c0-12.8,5.2-19.7,13.7-19.7s13.7,6.9,13.7,19.7-5.2,20-13.7,20-13.7-7.3-13.7-20ZM1058.8,740.1c0-11-3.8-15.7-9.1-15.7s-9.1,4.7-9.1,15.7,3.8,16,9.1,16,9.1-5,9.1-16ZM1046,739.7c0-2.5,1.7-4,3.7-4s3.7,1.5,3.7,4-1.7,4-3.7,4-3.7-1.5-3.7-4Z"/>
    <path class="cls-3" d="M1087.5,755.2h11v-28.1h-8.6v-3.2c4.5-.6,7.4-1.5,9.8-2.8h3.7v34.1h10v4.1h-26v-4.1Z"/>
    <path class="cls-3" d="M1136,740.1c0-12.8,5.2-19.7,13.7-19.7s13.7,6.9,13.7,19.7-5.2,20-13.7,20-13.7-7.3-13.7-20ZM1158.9,740.1c0-11-3.8-15.7-9.1-15.7s-9.1,4.7-9.1,15.7,3.8,16,9.1,16,9.1-5,9.1-16ZM1146,739.7c0-2.5,1.7-4,3.7-4s3.7,1.5,3.7,4-1.7,4-3.7,4-3.7-1.5-3.7-4Z"/>
    <path class="cls-3" d="M1187.6,755.2h11v-28.1h-8.6v-3.2c4.5-.6,7.4-1.5,9.8-2.8h3.7v34.1h10v4.1h-26v-4.1Z"/>
    <path class="cls-3" d="M1236.1,740.1c0-12.8,5.2-19.7,13.7-19.7s13.7,6.9,13.7,19.7-5.2,20-13.7,20-13.7-7.3-13.7-20ZM1259,740.1c0-11-3.8-15.7-9.1-15.7s-9.1,4.7-9.1,15.7,3.8,16,9.1,16,9.1-5,9.1-16ZM1246.1,739.7c0-2.5,1.7-4,3.7-4s3.7,1.5,3.7,4-1.7,4-3.7,4-3.7-1.5-3.7-4Z"/>
    <path class="cls-1" d="M1286.1,740.1c0-12.8,5.2-19.7,13.7-19.7s13.7,6.9,13.7,19.7-5.2,20-13.7,20-13.7-7.3-13.7-20ZM1309,740.1c0-11-3.8-15.7-9.1-15.7s-9.1,4.7-9.1,15.7,3.8,16,9.1,16,9.1-5,9.1-16ZM1296.2,739.7c0-2.5,1.7-4,3.7-4s3.7,1.5,3.7,4-1.7,4-3.7,4-3.7-1.5-3.7-4Z"/>
    <path class="cls-1" d="M1336.2,740.1c0-12.8,5.2-19.7,13.7-19.7s13.7,6.9,13.7,19.7-5.2,20-13.7,20-13.7-7.3-13.7-20ZM1359,740.1c0-11-3.8-15.7-9.1-15.7s-9.1,4.7-9.1,15.7,3.8,16,9.1,16,9.1-5,9.1-16ZM1346.2,739.7c0-2.5,1.7-4,3.7-4s3.7,1.5,3.7,4-1.7,4-3.7,4-3.7-1.5-3.7-4Z"/>
    <path class="cls-1" d="M1387.8,755.2h11v-28.1h-8.6v-3.2c4.5-.6,7.4-1.5,9.8-2.8h3.7v34.1h10v4.1h-26v-4.1Z"/>
    <path class="cls-1" d="M1436.2,740.1c0-12.8,5.2-19.7,13.7-19.7s13.7,6.9,13.7,19.7-5.2,20-13.7,20-13.7-7.3-13.7-20ZM1459.1,740.1c0-11-3.8-15.7-9.1-15.7s-9.1,4.7-9.1,15.7,3.8,16,9.1,16,9.1-5,9.1-16ZM1446.3,739.7c0-2.5,1.7-4,3.7-4s3.7,1.5,3.7,4-1.7,4-3.7,4-3.7-1.5-3.7-4Z"/>
  </g>
  <g class="cls-7">
    <path class="cls-3" d="M186.8,811.5h11v-28.1h-8.6v-3.2c4.5-.6,7.4-1.5,9.8-2.8h3.7v34.1h10v4.1h-26v-4.1Z"/>
    <path class="cls-3" d="M235.3,796.3c0-12.8,5.2-19.7,13.7-19.7s13.7,6.9,13.7,19.7-5.2,20-13.7,20-13.7-7.3-13.7-20ZM258.2,796.3c0-11-3.8-15.7-9.1-15.7s-9.1,4.7-9.1,15.7,3.8,16,9.1,16,9.1-5,9.1-16ZM245.3,795.9c0-2.5,1.7-4,3.7-4s3.7,1.5,3.7,4-1.7,4-3.7,4-3.7-1.5-3.7-4Z"/>
    <path class="cls-3" d="M286.9,811.5h11v-28.1h-8.6v-3.2c4.5-.6,7.4-1.5,9.8-2.8h3.7v34.1h10v4.1h-26v-4.1Z"/>
    <path class="cls-3" d="M335.4,796.3c0-12.8,5.2-19.7,13.7-19.7s13.7,6.9,13.7,19.7-5.2,20-13.7,20-13.7-7.3-13.7-20ZM358.3,796.3c0-11-3.8-15.7-9.1-15.7s-9.1,4.7-9.1,15.7,3.8,16,9.1,16,9.1-5,9.1-16ZM345.4,795.9c0-2.5,1.7-4,3.7-4s3.7,1.5,3.7,4-1.7,4-3.7,4-3.7-1.5-3.7-4Z"/>
    <path class="cls-3" d="M387,811.5h11v-28.1h-8.6v-3.2c4.5-.6,7.4-1.5,9.8-2.8h3.7v34.1h10v4.1h-26v-4.1Z"/>
    <path class="cls-3" d="M435.5,796.3c0-12.8,5.2-19.7,13.7-19.7s13.7,6.9,13.7,19.7-5.2,20-13.7,20-13.7-7.3-13.7-20ZM458.3,796.3c0-11-3.8-15.7-9.1-15.7s-9.1,4.7-9.1,15.7,3.8,16,9.1,16,9.1-5,9.1-16ZM445.5,795.9c0-2.5,1.7-4,3.7-4s3.7,1.5,3.7,4-1.7,4-3.7,4-3.7-1.5-3.7-4Z"/>
    <path class="cls-3" d="M485.5,796.3c0-12.8,5.2-19.7,13.7-19.7s13.7,6.9,13.7,19.7-5.2,20-13.7,20-13.7-7.3-13.7-20ZM508.4,796.3c0-11-3.8-15.7-9.1-15.7s-9.1,4.7-9.1,15.7,3.8,16,9.1,16,9.1-5,9.1-16ZM495.5,795.9c0-2.5,1.7-4,3.7-4s3.7,1.5,3.7,4-1.7,4-3.7,4-3.7-1.5-3.7-4Z"/>
    <path class="cls-3" d="M535.6,796.3c0-12.8,5.2-19.7,13.7-19.7s13.7,6.9,13.7,19.7-5.2,20-13.7,20-13.7-7.3-13.7-20ZM558.4,796.3c0-11-3.8-15.7-9.1-15.7s-9.1,4.7-9.1,15.7,3.8,16,9.1,16,9.1-5,9.1-16ZM545.6,795.9c0-2.5,1.7-4,3.7-4s3.7,1.5,3.7,4-1.7,4-3.7,4-3.7-1.5-3.7-4Z"/>
    <path class="cls-3" d="M587.2,811.5h11v-28.1h-8.6v-3.2c4.5-.6,7.4-1.5,9.8-2.8h3.7v34.1h10v4.1h-26v-4.1Z"/>
    <path class="cls-3" d="M637.2,811.5h11v-28.1h-8.6v-3.2c4.5-.6,7.4-1.5,9.8-2.8h3.7v34.1h10v4.1h-26v-4.1Z"/>
    <path class="cls-3" d="M685.7,796.3c0-12.8,5.2-19.7,13.7-19.7s13.7,6.9,13.7,19.7-5.2,20-13.7,20-13.7-7.3-13.7-20ZM708.5,796.3c0-11-3.8-15.7-9.1-15.7s-9.1,4.7-9.1,15.7,3.8,16,9.1,16,9.1-5,9.1-16ZM695.7,795.9c0-2.5,1.7-4,3.7-4s3.7,1.5,3.7,4-1.7,4-3.7,4-3.7-1.5-3.7-4Z"/>
    <path class="cls-3" d="M737.3,811.5h11v-28.1h-8.6v-3.2c4.5-.6,7.4-1.5,9.8-2.8h3.7v34.1h10v4.1h-26v-4.1Z"/>
    <path class="cls-3" d="M787.3,811.5h11v-28.1h-8.6v-3.2c4.5-.6,7.4-1.5,9.8-2.8h3.7v34.1h10v4.1h-26v-4.1Z"/>
    <path class="cls-3" d="M835.8,796.3c0-12.8,5.2-19.7,13.7-19.7s13.7,6.9,13.7,19.7-5.2,20-13.7,20-13.7-7.3-13.7-20ZM858.6,796.3c0-11-3.8-15.7-9.1-15.7s-9.1,4.7-9.1,15.7,3.8,16,9.1,16,9.1-5,9.1-16ZM845.8,795.9c0-2.5,1.7-4,3.7-4s3.7,1.5,3.7,4-1.7,4-3.7,4-3.7-1.5-3.7-4Z"/>
    <path class="cls-3" d="M887.4,811.5h11v-28.1h-8.6v-3.2c4.5-.6,7.4-1.5,9.8-2.8h3.7v34.1h10v4.1h-26v-4.1Z"/>
    <path class="cls-3" d="M935.9,796.3c0-12.8,5.2-19.7,13.7-19.7s13.7,6.9,13.7,19.7-5.2,20-13.7,20-13.7-7.3-13.7-20ZM958.7,796.3c0-11-3.8-15.7-9.1-15.7s-9.1,4.7-9.1,15.7,3.8,16,9.1,16,9.1-5,9.1-16ZM945.9,795.9c0-2.5,1.7-4,3.7-4s3.7,1.5,3.7,4-1.7,4-3.7,4-3.7-1.5-3.7-4Z"/>
    <path class="cls-3" d="M987.5,811.5h11v-28.1h-8.6v-3.2c4.5-.6,7.4-1.5,9.8-2.8h3.7v34.1h10v4.1h-26v-4.1Z"/>
    <path class="cls-3" d="M1035.9,796.3c0-12.8,5.2-19.7,13.7-19.7s13.7,6.9,13.7,19.7-5.2,20-13.7,20-13.7-7.3-13.7-20ZM1058.8,796.3c0-11-3.8-15.7-9.1-15.7s-9.1,4.7-9.1,15.7,3.8,16,9.1,16,9.1-5,9.1-16ZM1046,795.9c0-2.5,1.7-4,3.7-4s3.7,1.5,3.7,4-1.7,4-3.7,4-3.7-1.5-3.7-4Z"/>
    <path class="cls-3" d="M1086,796.3c0-12.8,5.2-19.7,13.7-19.7s13.7,6.9,13.7,19.7-5.2,20-13.7,20-13.7-7.3-13.7-20ZM1108.8,796.3c0-11-3.8-15.7-9.1-15.7s-9.1,4.7-9.1,15.7,3.8,16,9.1,16,9.1-5,9.1-16ZM1096,795.9c0-2.5,1.7-4,3.7-4s3.7,1.5,3.7,4-1.7,4-3.7,4-3.7-1.5-3.7-4Z"/>
    <path class="cls-3" d="M1137.6,811.5h11v-28.1h-8.6v-3.2c4.5-.6,7.4-1.5,9.8-2.8h3.7v34.1h10v4.1h-26v-4.1Z"/>
    <path class="cls-3" d="M1186.1,796.3c0-12.8,5.2-19.7,13.7-19.7s13.7,6.9,13.7,19.7-5.2,20-13.7,20-13.7-7.3-13.7-20ZM1208.9,796.3c0-11-3.8-15.7-9.1-15.7s-9.1,4.7-9.1,15.7,3.8,16,9.1,16,9.1-5,9.1-16ZM1196.1,795.9c0-2.5,1.7-4,3.7-4s3.7,1.5,3.7,4-1.7,4-3.7,4-3.7-1.5-3.7-4Z"/>
    <path class="cls-3" d="M1237.7,811.5h11v-28.1h-8.6v-3.2c4.5-.6,7.4-1.5,9.8-2.8h3.7v34.1h10v4.1h-26v-4.1Z"/>
    <path class="cls-3" d="M1286.1,796.3c0-12.8,5.2-19.7,13.7-19.7s13.7,6.9,13.7,19.7-5.2,20-13.7,20-13.7-7.3-13.7-20ZM1309,796.3c0-11-3.8-15.7-9.1-15.7s-9.1,4.7-9.1,15.7,3.8,16,9.1,16,9.1-5,9.1-16ZM1296.2,795.9c0-2.5,1.7-4,3.7-4s3.7,1.5,3.7,4-1.7,4-3.7,4-3.7-1.5-3.7-4Z"/>
    <path class="cls-3" d="M1337.7,811.5h11v-28.1h-8.6v-3.2c4.5-.6,7.4-1.5,9.8-2.8h3.7v34.1h10v4.1h-26v-4.1Z"/>
    <path class="cls-3" d="M1387.8,811.5h11v-28.1h-8.6v-3.2c4.5-.6,7.4-1.5,9.8-2.8h3.7v34.1h10v4.1h-26v-4.1Z"/>
    <path class="cls-3" d="M1437.8,811.5h11v-28.1h-8.6v-3.2c4.5-.6,7.4-1.5,9.8-2.8h3.7v34.1h10v4.1h-26v-4.1Z"/>
  </g>
</svg>