<?xml version="1.0" encoding="UTF-8"?>
<svg id="Layer_4" data-name="Layer 4" xmlns="http://www.w3.org/2000/svg" viewBox="0 0 1024 1024">
  <defs>
    <style>
      .cls-1 {
        stroke: #9e9ecc;
      }

      .cls-1, .cls-2, .cls-3 {
        fill: none;
        stroke-linecap: round;
        stroke-linejoin: round;
        stroke-width: .5px;
      }

      .cls-2 {
        stroke: #fff;
      }

      .cls-3 {
        stroke: #cacaea;
      }

      .cls-4 {
        fill: #e39394;
        opacity: .3;
      }

      .cls-4, .cls-5, .cls-6, .cls-7, .cls-8, .cls-9, .cls-10 {
        stroke-width: 0px;
      }

      .cls-5 {
        fill: #f7d2ba;
      }

      .cls-6 {
        fill: #282828;
      }

      .cls-7 {
        fill: #cacaea;
      }

      .cls-8 {
        fill: #ba7070;
      }

      .cls-9 {
        fill: #f2dac7;
      }

      .cls-10 {
        fill: #fff;
      }
    </style>
  </defs>
  <g>
    <g>
      <path class="cls-5" d="M847.9,379.8c.5,8.7,1.7,33.1,0,64.9,0,0-1.8,34.8-13.9,74.3-2.1,6.8-6.9,21.7-17.6,27.8-8.3,4.7-17.3,6.8-17.3,6.8-2,.5-3.1.6-4.9,1l-.7-2.1c4.5-7.8,10.6-19.7,15.4-34.9,6.5-20.4,7.7-37.3,8.3-50.7,3.2-73.7-5.6-129.5-5.6-129.5-5.9-37.3-10-62.7-24.4-95.4-8.8-19.9-20.5-45.7-46.2-70.6-9.3-9-29.6-28.4-62.7-40.2-18.9-6.7-35.5-8.6-46.9-9.2v-.4c39.9-2.1,79.9,13.7,79.9,13.7,39.7,15.6,65.6,40.9,79.6,57.4,30.1,35.6,39.5,71.9,46.2,98,7.6,29.4,8.9,53.5,10.9,89Z"/>
      <path class="cls-10" d="M846.1,695.1c.4,4.3,1.1,15.1-5.9,25.6-1.1,1.6-8.2,12-22,15.5-17.5,4.4-31.9-5.8-34.6-7.9-2.3-1.8-6.9-6.8-16-16.9-4.2-4.6-10.4-14.6-10.3-7.9-.1-1.4-.2-2.8-.4-4.1-.7-7-1.6-11.7-2-13.6-3-14.9-7.3-26.2-10.1-33.5-7.9-20.3-17.2-36.1-24.5-47l-44.7-61.8c4,1.1,9.8,2.9,16.5,5.2,13.5,4.8,41,14.7,69.6,36.6,12.4,9.5,20.3,17.7,36,34.1,3.6,3.8,14.1,14.7,25.9,30.1,6.6,8.6,12.3,16.8,17.2,27.9,4.7,10.6,5.2,16.1,5.4,17.7Z"/>
      <path class="cls-10" d="M768.2,365.2c-3.2-.1-7.1-.2-12.1-.2h-2.8l-2.6-3.2c1.4-13.4,2.6-32.2,1.1-54.4-1.4-21-3.4-49.3-16.5-82.2-2-5-21.9-53.6-58.9-81.5-17.1-12.9-31.9-16.8-35.3-17.6-10-2.5-18.6-2.8-24.5-2.6h0c4.9-.9,9.8-1.4,14.7-1.7v.4c11.4.5,28.1,2.5,46.9,9.2,33.1,11.7,53.4,31.1,62.7,40.2,25.7,24.9,37.4,50.7,46.2,70.6,14.4,32.6,18.5,58.1,24.4,95.4,0,0,8.9,55.8,5.6,129.5-.6,13.4-1.8,30.2-8.3,50.7-4.8,15.2-10.9,27.1-15.4,34.9l.7,2.1c-.6.1-1.3.3-2.2.5-7.2,1.8-8.6,3.1-14.3,4.9-9.2,2.8-16.6,2.7-18.4,2.6-4.6-.1-8.3-.9-10.9-1.5,1.7-1.9,4.1-4.8,6.4-8.6,7.3-12.2,8.2-23.9,8.6-30,3-39.1,3.8-18.9,4.8-48.3h0c0-1,0-2,.1-3.1.2-6.3.8-23.2.4-61.9-.2-17.1-.2-33.9-.5-43.9Z"/>
      <path class="cls-10" d="M768.7,409.1c.4,38.7-.2,55.7-.4,61.9,0,1.1,0,2.1-.1,3.1h0c-3.4,6.8-11.7,18.7-20.4,28.4-17.4,19.5-36.8,27.9-49.5,33.2-7.8,3.3-15.4,5.8-22.7,7.7-22.6,6-42.3,6.3-57.8,6.4-18.2.1-40.4.1-66-7.6-4.5-1.4-9.2-3-13.9-4.8-32-12.6-51.8-31.2-56.9-36-7.5-7.3-17.1-14.3-20.9-19.4-.2-4.5-.3-9.3-.4-14.5-.5-38.3,2-88.8,2.6-100.8h0c7,1.8,11.5-.8,14.2-2.2,3.3-.9,5.6-1.7,6.2-2,.7,0,1.3,0,1.9,0,2.2.2,3.8.9,4.1,1.1,3.2,1.3,16.6,2.1,54.1.8,2.4-3.7,3.8-4.3,4.7-4.1.6.1,1,.8,1.5,1.5.4.5.9,1.1,1.7,1.5,1.2.7,2.4.9,3.2.9,3,.3,26,.5,57.6.6l5.4-4.9c.5.7,1.4,1.8,2.8,2.8,2.6,1.8,5.3,2.1,6.6,2.2,9,.9,24.1.4,25,.4,6.1-.2,4.8,0,14.3-.2,6.1-.1,11.6-.3,16.3-.6l4.7-3.9c1.1,1.4,3,3.2,5.6,4.1,2.3.8,4.3.6,5.1.6,12.2-1,24.5.4,36.8,0,2.4,0,6.7-.2,12.2-.4l4.5-3.2,2.6,3.2h2.8c5,0,8.9.1,12.1.2.2,10,.3,26.8.5,43.9ZM711.8,407.6c0-11.6-8.4-21.1-18.8-21.1s-18.8,9.4-18.8,21.1,8.4,21.1,18.8,21.1,18.8-9.4,18.8-21.1ZM557.4,407.6c0-11.6-8.4-21.1-18.8-21.1s-18.8,9.4-18.8,21.1,8.4,21.1,18.8,21.1,18.8-9.4,18.8-21.1Z"/>
      <path class="cls-10" d="M757.2,703.6c.8,9.8,1.1,23.2-.4,39.4-2.1,23.5-9.8,46.7-25,93.3-2.9,8.7-7.8,23.5-18,40.9-1.6,2.7-3.2,5.4-4.9,7.9-20.8,2.6-37.1,2.3-48.1,1.5-8.1-.6-15.8-1.6-21.4-7.5-4.6-4.7-5.9-10.6-6.4-14.3l-14.6-75.8h-10.5c-6.9,41.8-12.3,72.5-13.9,81.8-.4,2.2-1.2,7.5-5.3,12-2.3,2.6-4.9,4.1-6.4,4.9h-42.8c-3.7-.2-10.3-1.1-17.3-5.2-4.1-2.4-7.1-5.3-9-7.5-22.7-48-33.3-88.6-38.7-116.4-6.1-31.7-5.9-48.6-3.7-63.2,3.8-25.1,13.6-46.8,18.6-57.4,4.3-9.4,8.9-17.8,13.5-25.3l48.5-70.4c25.7,7.7,47.8,7.7,66,7.6,15.5-.1,35.2-.4,57.8-6.4l44.7,61.8c7.3,10.9,16.6,26.7,24.5,47,2.8,7.3,7.1,18.6,10.1,33.5.4,2,1.3,6.6,2,13.6.1,1.3.3,2.7.4,4.1Z"/>
      <path class="cls-9" d="M751.8,307.3c1.4,22.3.3,41-1.1,54.4l-4.5,3.2c-5.5.2-9.8.3-12.2.4-12.3.4-24.6-1-36.8,0-.7,0-2.7.2-5.1-.6-2.7-.9-4.5-2.7-5.6-4.1,1.1-36.4-.4-66.8-2.2-89.4-2.8-34.2-6.9-55.7-13.1-76.2,0,0-7.6-25.1-27.4-52.9-2.6-3.7-6.7-8.9-13.5-13.1-5.3-3.3-10.3-4.9-13.6-5.6,5.9-.2,14.5.1,24.5,2.6,3.4.9,18.1,4.8,35.3,17.6,37.1,27.9,56.9,76.5,58.9,81.5,13.1,32.9,15.2,61.2,16.5,82.2Z"/>
      <path class="cls-6" d="M693,386.5c10.4,0,18.8,9.4,18.8,21.1s-8.4,21.1-18.8,21.1-18.8-9.4-18.8-21.1,8.4-21.1,18.8-21.1Z"/>
      <path class="cls-5" d="M684.2,271.3c1.9,22.5,3.4,52.9,2.2,89.4l-4.7,3.9c-4.7.2-10.2.4-16.3.6-9.5.2-8.2,0-14.3.2-.8,0-15.9.5-25-.4-1.3-.1-4-.4-6.6-2.2-1.4-1-2.3-2.1-2.8-2.8-.8-78.7-1.6-157.4-2.4-236.1.7-.1,1.5-.3,2.2-.4h0c3.2.8,8.2,2.3,13.6,5.7,6.8,4.3,10.9,9.5,13.5,13.1,19.8,27.9,27.4,52.9,27.4,52.9,6.2,20.5,10.3,42,13.1,76.2Z"/>
      <path class="cls-10" d="M614.4,123.8c.8,78.7,1.6,157.4,2.4,236.1l-5.4,4.9c-31.6,0-54.6-.3-57.6-.6-.8,0-2-.2-3.2-.9-.8-.5-1.3-1-1.7-1.5h0c-1.2-29-.7-53.3.2-71.3,1-21.3,3.4-53.3,11.6-89.3.9-3.8,4.9-21,15-40.9,6.7-13.2,12.4-20.4,19.5-26.3,5.9-4.9,11.7-7.8,15.8-9.6h0c.7-.1,1.5-.2,2.3-.4.6,0,1-.2,1-.2Z"/>
      <path class="cls-9" d="M606.1,124.9c1,0,2.7-.2,4.9-.5-4.1,1.8-9.9,4.7-15.8,9.6-7.1,5.8-12.8,13.1-19.5,26.3-10.1,19.9-14.1,37.1-15,40.9-8.2,36.1-10.6,68-11.6,89.3-.8,18-1.4,42.3-.2,71.3h0c-.5-.7-.9-1.3-1.5-1.5-.9-.2-2.3.4-4.7,4.1-37.5,1.3-50.9.6-54.1-.8-.4-.1-1.9-.9-4.1-1.1-3.6-29.5-2.6-54.4-.8-72.6,1.8-17.7,4.4-41,15.5-69.3,4.6-11.6,11.2-28.2,25.4-46.5,4.7-6.1,19.7-25.1,41.7-37.2,4-2.2,12.2-6.6,23.9-9.6,6.1-1.5,11.4-2.2,15.4-2.6.2,0,.3,0,.5,0Z"/>
      <path class="cls-10" d="M600.4,125c2.2,0,4.2,0,5.2-.1-4.1.4-9.4,1.1-15.4,2.6-11.7,3-19.9,7.4-23.9,9.6-22,12.1-37,31.1-41.7,37.2-14.1,18.3-20.8,34.8-25.4,46.5-11.1,28.2-13.7,51.6-15.5,69.3-1.9,18.2-2.9,43.1.8,72.6-.6,0-1.2,0-1.9,0-2.6.2-4.5,1.1-5.2,1.5-.3.1-.6.3-.9.5-3.7,1-8.6,2-14.2,2.2h0c-9.2.4-20.1-1.2-29.1-8.3-3-2.4-6.9-6.3-10.1-12.4,0-14.9,1.2-35.9,6.8-60.2,5.4-24,15.2-67.2,50.7-106.4,44-48.7,97.1-57.5,104.7-55.9,7.5,1.6,10.1,1.6,15.3,1.7Z"/>
      <path class="cls-10" d="M585.1,123.4c-7.6-1.6-60.7,7.3-104.7,55.9-35.5,39.2-45.2,82.4-50.7,106.4-5.5,24.4-6.7,45.4-6.8,60.2-6.7,30.1-9.5,60.1-10.1,80,0,0-1,31.8,6.8,83.3,1,6.4,2.7,16.7,8.4,28.7,3.7,7.8,7.9,13.6,10.9,17.5-1.3-.4-2.8-.8-4.4-1.1-5.4-1.3-8.6-1.5-10.9-1.9-2.1-.4-4.4-1.1-7.1-2.6-22.4-25.9-31.5-156.4-30-176.6,1.3-17.5,4.8-51.4,16.6-92.1,4.1-14.2,9.3-31.9,20-54.1,8.5-17.7,17.4-31.8,24.5-42,3.5-3.8,6.3-6.8,7.9-8.5,16.1-16.5,41-31,59.3-37.2,11.1-3.7,43.2-15,48.2-14.6.5,0,16.5-2.8,22-1.5Z"/>
      <path class="cls-6" d="M538.6,386.5c10.4,0,18.8,9.4,18.8,21.1s-8.4,21.1-18.8,21.1-18.8-9.4-18.8-21.1,8.4-21.1,18.8-21.1Z"/>
      <path class="cls-10" d="M551.7,542.3l-48.5,70.4c-4.6,7.5-9.2,16-13.5,25.3-4.9,10.7-14.8,32.4-18.6,57.4-2.2,3.7-5.6,8.8-10.1,14.4-10.2,12.5-18.6,22.8-32.1,26.2-2.2.6-20.4,4.9-33.8-6.8-11.7-10.1-11.8-25.5-11.8-30.4,0-11,3.8-19.4,5.9-23.6,19.8-39.7,64.2-77.7,64.2-77.7,20.3-17.4,39.2-33.3,69.3-45.6,11.7-4.8,21.8-7.7,29.1-9.5Z"/>
      <path class="cls-5" d="M479.6,555.5c.2,1.8.6,4.8-1.1,6.8-4.6,5.3-20.8-.4-33.8-4.9-1.2-.4-3.1-1.1-5.8-1.9-3-3.8-7.2-9.7-10.9-17.5-5.8-12-7.5-22.4-8.4-28.7-7.8-51.6-6.8-83.3-6.8-83.3.6-19.9,3.5-49.9,10.1-80,3.2,6.1,7.1,10,10.1,12.4,9.1,7.2,19.9,8.8,29.1,8.3-.6,12-3.1,62.5-2.6,100.8,0,5.1.2,10,.4,14.5.4,9.7,1.2,17.5,2.4,22,.5,2,2.1,6.9,4.1,15.4,4.5,18.5,2.9,21.1,7.1,25.5,1.6,1.6,5.4,5.1,6,10.5Z"/>
      <path class="cls-8" d="M477.3,364c.8-.4,2.6-1.3,5.2-1.5-.6.2-2.9,1.1-6.2,2,.3-.2.6-.3.9-.5Z"/>
      <path class="cls-7" d="M476.4,364.5c-2.8,1.5-7.2,4.1-14.2,2.2,5.6-.3,10.5-1.3,14.2-2.2Z"/>
      <path class="cls-9" d="M434.5,200c4.7-5.5,9.3-10.6,13.1-14.8-7.1,10.2-16,24.3-24.5,42-10.6,22.1-15.9,39.9-20,54.1-11.8,40.7-15.3,74.6-16.6,92.1-1.5,20.1,7.6,150.6,30,176.6-3.3-1.8-7-4.7-10.9-9.4-10.6-26.6-20.9-60.7-25.5-101-6.4-55.1.6-97.2,4.5-120.1,1.4-8.1,6.2-34.5,17.6-64.6,2.2-5.8,11.7-30.2,25.9-47.3.9-1,3.4-4.1,6.4-7.5Z"/>
    </g>
    <g>
      <path class="cls-2" d="M605.6,124.9c-.9,0-3,.2-5.2.1-5.2,0-7.8-.1-15.3-1.7-7.6-1.6-60.7,7.3-104.7,55.9-35.5,39.2-45.2,82.4-50.7,106.4-5.5,24.4-6.7,45.4-6.8,60.2"/>
      <path class="cls-2" d="M611,124.3c-2.2.3-3.9.5-4.9.5"/>
      <path class="cls-2" d="M768.2,365.2c.2,10,.3,26.8.5,43.9.4,38.7-.2,55.7-.4,61.9,0,1.1,0,2.1-.1,3.1h0c-1,29.4-1.8,9.3-4.8,48.3-.5,6.1-1.3,17.9-8.6,30-2.3,3.9-4.7,6.8-6.4,8.6,2.6.6,6.3,1.4,10.9,1.5,1.8,0,9.2.2,18.4-2.6,5.7-1.7,7.1-3.1,14.3-4.9.9-.2,1.6-.4,2.2-.5,1.9-.4,2.9-.5,4.9-1,0,0,8.9-2,17.3-6.8,10.8-6.1,15.6-21,17.6-27.8,12.1-39.5,13.9-74.3,13.9-74.3,1.7-31.8.5-56.3,0-64.9-2-35.4-3.3-59.6-10.9-89-6.7-26-16.1-62.4-46.2-98-14-16.5-39.9-41.8-79.6-57.4,0,0-40-15.8-80-13.7-4.9.2-9.9.8-14.7,1.6-.7.1-1.5.3-2.2.4,0,0-.5,0-1,.2-.8.2-1.6.3-2.3.4"/>
      <path class="cls-1" d="M462.2,366.7c7,1.8,11.5-.8,14.2-2.2.3-.2.6-.3.9-.5.8-.4,2.6-1.3,5.2-1.5.7,0,1.3,0,1.9,0,2.2.2,3.8.9,4.1,1.1,3.2,1.3,16.6,2.1,54.1.8,2.4-3.7,3.8-4.3,4.7-4.1.6.1,1,.8,1.5,1.5.4.5.9,1.1,1.7,1.5,1.2.7,2.4.9,3.2.9,3,.3,26,.5,57.6.6l5.4-4.9c.5.7,1.4,1.8,2.8,2.8,2.6,1.8,5.3,2.1,6.6,2.2,9,.9,24.1.4,25,.4,6.1-.2,4.8,0,14.3-.2,6.1-.1,11.6-.3,16.3-.6l4.7-3.9c1.1,1.4,3,3.2,5.6,4.1,2.3.8,4.3.6,5.1.6,12.2-1,24.5.4,36.8,0,2.4,0,6.7-.2,12.2-.4l4.5-3.2,2.6,3.2h2.8c5,0,8.9.1,12.1.2,7.7.3,11.2.6,16.1,0"/>
      <path class="cls-1" d="M459.6,467.6c-.5-38.3,2-88.8,2.6-100.8"/>
      <path class="cls-2" d="M585.1,123.4c-5.5-1.3-21.4,1.5-22,1.5-5.1-.3-37.1,10.9-48.2,14.6-18.4,6.1-43.2,20.7-59.3,37.2-1.6,1.7-4.5,4.7-7.9,8.5-3.8,4.2-8.4,9.3-13.1,14.8-3,3.4-5.5,6.5-6.4,7.5-14.2,17.1-23.7,41.5-25.9,47.3-11.5,30.1-16.2,56.5-17.6,64.6-3.9,23-10.9,65.1-4.5,120.1,4.7,40.3,14.9,74.4,25.5,101,3.9,4.7,7.6,7.6,10.9,9.4,2.6,1.5,5,2.2,7.1,2.6,2.3.4,5.5.6,10.9,1.9,1.6.4,3.1.8,4.4,1.1,2.7.8,4.6,1.5,5.8,1.9,12.9,4.5,29.1,10.2,33.8,4.9,1.7-1.9,1.3-5,1.1-6.8-.6-5.4-4.5-8.9-6-10.5-4.2-4.4-2.6-7-7.1-25.5-2.1-8.5-3.6-13.4-4.1-15.4-1.2-4.5-1.9-12.3-2.4-22-.2-4.5-.3-9.3-.4-14.5"/>
      <path class="cls-2" d="M447.6,185.2c-7.1,10.2-16,24.3-24.5,42-10.6,22.1-15.9,39.9-20,54.1-11.8,40.7-15.3,74.6-16.6,92.1-1.5,20.1,7.6,150.6,30,176.6"/>
      <path class="cls-3" d="M438.9,555.5c-3-3.8-7.2-9.7-10.9-17.5-5.8-12-7.5-22.4-8.4-28.7-7.8-51.6-6.8-83.3-6.8-83.3.6-19.9,3.5-49.9,10.1-80"/>
      <path class="cls-1" d="M462.2,366.7h0"/>
      <path class="cls-2" d="M606.1,124.9c-.2,0-.3,0-.5,0-4.1.4-9.4,1.1-15.4,2.6-11.7,3-19.9,7.4-23.9,9.6-22,12.1-37,31.1-41.7,37.2-14.1,18.3-20.8,34.8-25.4,46.5-11.1,28.2-13.7,51.6-15.5,69.3-1.9,18.2-2.9,43.1.8,72.6"/>
      <path class="cls-2" d="M611,124.3h0c-4.1,1.8-9.9,4.7-15.8,9.6-7.1,5.8-12.8,13.1-19.5,26.3-10.1,19.9-14.1,37.1-15,40.9-8.2,36.1-10.6,68-11.6,89.3-.8,18-1.4,42.3-.2,71.3"/>
      <path class="cls-2" d="M614.4,123.8c.8,78.7,1.6,157.4,2.4,236.1"/>
      <path class="cls-2" d="M616.6,123.4c3.2.8,8.2,2.3,13.6,5.6,6.8,4.3,10.9,9.5,13.5,13.1,19.8,27.9,27.4,52.9,27.4,52.9,6.2,20.5,10.3,42,13.1,76.2,1.9,22.5,3.4,52.9,2.2,89.4"/>
      <path class="cls-2" d="M616.6,123.4c5.9-.2,14.5.1,24.5,2.6,3.4.9,18.1,4.8,35.3,17.6,37.1,27.9,56.9,76.5,58.9,81.5,13.1,32.9,15.2,61.2,16.5,82.2,1.4,22.3.3,41-1.1,54.4"/>
      <path class="cls-2" d="M793.4,552.5c4.5-7.8,10.6-19.7,15.4-34.9,6.5-20.4,7.7-37.3,8.3-50.7,3.2-73.7-5.6-129.5-5.6-129.5-5.9-37.3-10-62.7-24.4-95.4-8.8-19.9-20.5-45.7-46.2-70.6-9.3-9-29.6-28.4-62.7-40.2-18.9-6.7-35.5-8.6-46.9-9.2"/>
    </g>
  </g>
  <ellipse class="cls-4" cx="508.4" cy="467.6" rx="23.7" ry="30.1" transform="translate(-181.7 496.4) rotate(-45)"/>
  <ellipse class="cls-4" cx="718.6" cy="467.6" rx="30.1" ry="23.7" transform="translate(-120.2 645.1) rotate(-45)"/>
</svg>